{"glyphs":{"0":{"ha":636,"x_min":44,"x_max":678,"o":"m 197 -17 l 197 -17 q 112 9 146 -17 q 61 76 78 35 q 44 165 44 118 l 44 165 q 65 286 44 218 q 123 426 86 354 q 208 567 160 499 q 313 690 257 635 q 429 776 369 744 q 547 808 489 808 l 547 808 q 649 763 621 808 q 678 653 678 718 l 678 653 q 660 527 678 597 q 609 381 642 457 q 532 235 576 306 q 434 107 488 164 q 321 17 381 50 q 197 -17 261 -17 z m 214 11 l 214 11 q 310 48 261 11 q 404 147 358 85 q 490 283 450 208 q 560 433 529 357 q 607 573 590 508 q 624 679 624 638 l 624 679 q 608 751 624 719 q 549 782 593 782 l 549 782 q 454 744 503 782 q 359 645 406 707 q 271 508 313 583 q 197 358 229 433 q 147 220 165 283 q 129 118 129 157 l 129 118 q 147 43 129 75 q 214 11 165 11 z "},"1":{"ha":421,"x_min":36,"x_max":550,"o":"m 53 -4 l 53 -4 q 40 0 44 -4 l 40 0 q 38 7 36 4 l 38 7 q 226 345 132 176 q 415 682 321 514 l 415 682 q 306 590 361 633 q 188 508 250 546 l 188 508 q 179 507 185 507 l 179 507 q 176 513 176 508 q 175 519 175 517 l 175 519 q 179 529 175 525 l 179 529 q 307 627 236 572 q 435 743 378 682 l 435 743 q 465 774 450 760 q 497 789 481 788 l 497 789 l 540 793 q 545 794 543 794 q 550 793 547 793 l 550 793 l 550 786 l 125 6 q 90 -1 115 0 q 53 -4 65 -1 z "},"2":{"ha":544,"x_min":-89,"x_max":614,"o":"m 247 -17 l 247 -17 q 201 -6 232 -17 q 136 19 171 4 q 72 47 101 33 q 29 65 42 60 l 29 65 l -67 -11 q -81 -10 -72 -14 q -86 0 -89 -6 l -86 0 q -65 26 -85 3 q -20 77 -46 49 q 26 128 6 106 q 50 151 47 150 l 50 151 l 63 151 q 82 149 71 151 l 82 149 q 171 229 117 179 q 285 340 225 279 q 398 466 344 401 q 485 591 451 531 q 518 699 518 651 l 518 699 q 500 746 518 732 q 450 760 482 760 l 450 760 q 351 725 397 760 q 272 640 306 690 q 219 543 238 589 l 219 543 q 214 538 217 538 l 214 538 q 197 538 206 533 l 197 538 q 196 547 194 544 l 196 547 q 259 667 218 608 q 358 765 300 726 q 488 804 417 804 l 488 804 q 577 774 540 804 q 614 688 614 744 l 614 688 q 585 601 614 650 q 507 499 556 553 q 401 390 458 444 q 288 288 344 336 q 183 201 231 239 q 110 140 136 163 l 110 140 q 150 122 124 135 q 207 94 176 108 q 263 71 238 81 q 301 61 289 61 l 301 61 q 356 76 331 61 q 403 110 382 90 q 438 145 424 129 q 458 163 453 161 l 458 163 q 466 160 461 164 q 469 149 471 156 l 469 149 q 427 100 453 128 q 370 46 401 72 q 307 1 339 19 q 247 -17 275 -17 z "},"3":{"ha":538,"x_min":-65,"x_max":599,"o":"m 63 -17 l 63 -17 q -4 -10 31 -17 q -65 17 -39 -3 l -65 17 l -65 25 l -57 33 l -49 36 q -2 21 -29 26 q 47 15 25 15 l 47 15 q 160 44 101 15 q 268 122 218 74 q 349 226 318 169 q 381 339 381 283 l 381 339 q 352 404 381 383 q 285 425 324 425 l 285 425 q 235 419 261 425 q 186 406 210 413 l 186 406 l 176 410 l 175 422 l 181 431 q 272 472 218 446 q 379 535 326 499 q 467 615 432 571 q 501 711 501 660 l 501 711 q 449 761 501 761 l 449 761 q 376 740 413 761 q 308 691 339 719 q 254 636 276 663 l 254 636 l 247 636 l 238 646 l 238 653 q 308 726 269 692 q 394 783 347 761 q 493 806 440 806 l 493 806 q 567 786 535 806 q 599 721 599 767 l 599 721 q 566 626 599 668 q 484 551 533 583 q 382 494 435 518 q 288 456 329 471 l 288 456 q 374 444 329 456 q 449 406 418 433 q 479 328 479 378 l 479 328 q 440 203 479 264 q 336 92 400 142 q 200 13 272 42 q 63 -17 128 -17 z "},"4":{"ha":564,"x_min":28,"x_max":604,"o":"m 235 -11 l 235 -11 l 229 -10 l 229 -4 q 242 24 229 -1 q 274 87 256 50 q 314 162 293 124 q 349 228 335 200 q 368 263 364 256 l 368 263 l 28 253 l 28 264 q 31 271 29 269 q 33 274 32 272 l 33 274 q 143 395 82 335 q 251 507 204 456 l 251 507 q 345 614 299 560 q 440 732 392 668 l 440 732 q 485 775 464 764 q 531 790 506 786 q 593 800 556 793 l 593 800 l 601 794 l 603 785 q 579 746 604 775 q 511 674 554 717 q 415 583 468 632 q 308 485 363 533 q 206 394 253 436 q 125 322 158 351 q 82 285 92 293 l 82 285 l 385 290 l 475 467 q 511 489 486 486 q 554 493 536 492 l 554 493 l 564 490 l 564 481 q 551 453 564 479 q 522 392 539 426 q 490 331 504 358 q 471 296 475 303 l 471 296 l 511 296 q 519 290 519 296 l 519 290 q 514 274 519 285 l 514 274 q 504 268 511 268 l 504 268 l 456 267 q 428 213 447 251 q 388 130 410 174 q 349 52 367 86 q 324 11 331 18 l 324 11 q 301 3 321 8 q 262 -7 282 -3 q 235 -11 242 -11 z "},"5":{"ha":517,"x_min":-76,"x_max":649,"o":"m 24 -18 l 24 -18 q -27 -15 4 -18 q -75 -1 -58 -12 l -75 -1 q -76 7 -76 1 l -76 7 q -73 15 -75 13 q -69 18 -71 17 l -69 18 q -62 21 -67 21 l -62 21 q -19 10 -42 14 q 25 7 4 7 l 25 7 q 147 40 83 7 q 263 126 210 74 q 350 242 317 179 q 383 363 383 304 l 383 363 q 359 429 383 406 q 292 453 335 453 l 292 453 q 197 424 242 453 q 107 374 151 396 l 107 374 q 100 376 103 374 l 100 376 q 100 385 97 379 l 100 385 q 119 425 103 394 q 159 498 135 456 q 210 587 183 540 q 260 674 236 633 q 302 741 285 714 q 324 772 319 768 l 324 772 q 358 781 339 779 q 397 783 376 783 l 397 783 q 463 780 429 783 q 531 776 497 776 l 531 776 q 592 782 563 776 q 643 806 621 788 l 643 806 l 649 804 q 594 731 631 756 q 510 697 557 706 q 414 688 463 688 l 414 688 q 356 690 385 688 q 303 693 328 692 l 303 693 l 150 425 q 240 469 190 451 q 336 488 290 488 l 336 488 q 436 458 394 488 q 478 367 478 429 l 478 367 q 435 226 478 294 q 325 102 393 157 q 178 15 257 47 q 24 -18 99 -18 z "},"6":{"ha":549,"x_min":14,"x_max":572,"o":"m 167 -17 l 167 -17 q 56 23 97 -17 q 14 135 14 63 l 14 135 q 51 290 14 211 q 147 447 88 369 q 279 596 207 525 q 423 724 351 667 q 553 822 494 782 l 553 822 q 566 818 560 828 q 568 804 572 808 l 568 804 q 517 758 544 782 q 467 713 490 733 l 467 713 q 372 617 419 669 q 288 517 325 565 l 288 517 q 225 428 258 478 q 163 322 192 378 q 116 209 135 265 q 97 103 97 153 l 97 103 q 117 42 97 68 q 174 17 136 17 l 174 17 q 271 54 224 17 q 355 149 318 92 q 414 267 392 207 q 436 371 436 326 l 436 371 q 426 410 436 394 q 390 426 417 426 l 390 426 q 324 403 356 426 q 265 344 292 379 q 218 271 238 308 q 188 206 199 233 l 188 206 q 182 197 186 197 l 182 197 q 171 196 178 196 l 171 196 q 165 206 161 199 l 165 206 q 199 292 175 246 q 257 378 222 338 q 334 444 292 418 q 424 469 376 469 l 424 469 q 499 439 472 469 q 525 363 525 408 l 525 363 q 492 237 525 303 q 407 113 460 171 q 291 19 354 56 q 167 -17 228 -17 z "},"7":{"ha":482,"x_min":14,"x_max":643,"o":"m 25 -7 l 25 -7 l 15 -4 l 14 1 q 41 53 14 13 q 112 151 68 93 q 210 276 156 208 q 319 410 264 343 q 424 537 375 478 q 507 638 472 596 q 553 693 542 679 l 553 693 q 328 697 443 697 l 328 697 q 259 682 282 697 q 225 647 236 667 q 206 612 214 628 q 183 596 199 596 l 183 596 l 179 597 l 178 607 q 210 702 194 667 q 249 756 226 738 q 308 781 271 775 q 408 788 346 788 l 408 788 q 507 785 457 788 q 608 775 557 782 l 608 775 q 621 785 613 778 q 635 793 629 793 l 635 793 q 643 783 643 790 l 643 783 q 640 775 643 781 l 640 775 q 613 733 621 746 q 597 709 604 719 q 573 677 589 699 q 524 611 557 656 q 429 485 490 567 l 429 485 q 308 304 368 403 q 192 119 249 206 l 192 119 q 178 98 189 115 q 156 60 168 81 q 135 23 144 39 q 124 6 125 7 l 124 6 q 77 -5 108 -4 q 25 -7 46 -6 z "},"8":{"ha":533,"x_min":-7,"x_max":617,"o":"m 151 -17 l 151 -17 q 75 -1 111 -17 q 16 44 39 14 q -7 119 -7 75 l -7 119 q 23 219 -7 169 q 99 315 53 268 q 192 400 144 361 q 278 465 240 439 l 278 465 q 253 578 253 519 l 253 578 q 286 690 253 639 q 374 773 319 742 q 488 804 428 804 l 488 804 q 578 779 540 804 q 617 699 617 754 l 617 699 q 595 612 617 654 q 541 530 574 569 q 472 457 508 490 q 406 397 436 424 l 406 397 q 428 320 425 354 q 432 240 432 286 l 432 240 q 407 141 432 188 q 342 59 382 94 q 251 3 301 24 q 151 -17 201 -17 z m 394 425 l 394 425 q 472 500 433 456 q 538 596 511 544 q 565 699 565 647 l 565 699 q 490 776 565 776 l 490 776 q 417 754 450 776 q 364 697 383 732 q 344 624 344 663 l 344 624 q 362 522 344 578 q 394 425 379 467 z m 154 13 l 154 13 q 249 43 207 13 q 317 121 292 74 q 343 218 343 168 l 343 218 q 324 330 343 269 q 283 439 304 390 l 283 439 q 182 353 235 403 q 92 243 129 303 q 56 115 56 183 l 56 115 q 81 41 56 69 q 154 13 106 13 z "},"9":{"ha":558,"x_min":81,"x_max":615,"o":"m 89 -32 l 89 -32 q 83 -18 81 -26 l 83 -18 q 89 -11 85 -15 l 89 -11 q 356 244 244 100 q 515 578 467 389 l 515 578 q 527 632 524 610 q 531 679 531 654 l 531 679 q 513 748 531 719 q 451 776 496 776 l 451 776 q 354 743 401 776 q 268 658 307 710 q 206 551 229 607 q 183 449 183 494 l 183 449 q 201 393 183 415 q 254 371 218 371 l 254 371 q 340 403 303 371 q 403 481 376 436 q 446 564 429 526 l 446 564 q 451 569 447 568 l 451 569 q 467 568 458 572 l 467 568 q 468 560 471 564 l 468 560 q 428 476 454 522 q 368 388 403 431 q 292 317 333 344 q 204 290 250 290 l 204 290 q 129 322 154 290 q 104 399 104 353 l 104 399 q 127 501 104 446 q 189 609 150 556 q 276 707 228 663 q 376 778 325 751 q 476 804 428 804 l 476 804 q 556 780 525 804 q 601 717 586 756 q 615 636 615 679 l 615 636 q 581 480 615 558 q 491 327 547 401 q 366 185 435 253 q 228 63 297 118 q 99 -32 158 8 l 99 -32 q 89 -32 94 -35 z "},"\r":{"ha":833,"x_min":null,"x_max":null,"o":""}," ":{"ha":238,"x_min":null,"x_max":null,"o":""},"!":{"ha":433,"x_min":110,"x_max":611,"o":"m 218 149 l 218 149 l 203 151 l 204 160 l 489 836 q 515 860 496 856 q 557 864 535 864 l 557 864 l 601 864 l 608 860 l 611 853 q 589 805 608 843 q 538 709 569 767 q 467 583 506 651 q 388 445 428 514 q 313 315 349 376 q 253 210 278 254 q 218 149 228 165 z m 164 -21 l 164 -21 q 124 -3 138 -21 q 111 39 110 15 l 111 39 q 131 79 111 64 q 172 94 150 94 l 172 94 q 210 81 194 94 q 226 47 225 68 l 226 47 q 210 0 229 21 q 164 -21 190 -21 z "},"\"":{"ha":286,"x_min":146,"x_max":418,"o":"m 160 642 l 146 646 l 196 871 q 215 898 199 888 q 247 903 232 908 l 247 903 q 269 860 279 896 l 269 860 q 249 809 264 840 q 217 744 235 778 q 183 683 199 711 q 160 642 167 656 l 160 642 z m 299 642 l 285 646 l 335 871 q 354 898 338 888 q 386 903 371 908 l 386 903 q 408 860 418 896 l 408 860 q 388 809 403 840 q 356 744 374 778 q 322 683 338 711 q 299 642 306 656 l 299 642 z "},"#":{"ha":1113,"x_min":229,"x_max":1157,"o":"m 275 -21 l 275 -21 q 261 -31 269 -31 q 249 -32 253 -32 l 249 -32 q 232 -21 238 -32 l 232 -21 q 236 -3 229 -14 q 247 15 243 8 l 247 15 q 324 139 272 56 q 443 333 375 222 l 443 333 l 235 333 q 242 358 235 344 q 269 375 249 372 l 269 375 l 468 375 q 532 483 499 426 q 600 597 565 539 l 600 597 l 356 597 q 363 622 356 608 q 390 639 369 636 l 390 639 l 625 639 q 718 801 671 718 q 811 967 765 883 l 811 967 q 828 981 818 978 q 851 985 839 985 l 851 985 q 876 980 864 985 q 890 967 888 975 l 890 967 q 888 953 892 964 l 888 953 q 801 815 853 897 q 690 639 749 733 l 690 639 l 889 639 q 982 801 935 718 q 1075 967 1029 883 l 1075 967 q 1092 981 1082 978 q 1115 985 1103 985 l 1115 985 q 1140 980 1128 985 q 1154 967 1151 975 l 1154 967 q 1150 954 1157 963 l 1150 954 q 1064 816 1115 899 q 954 639 1013 733 l 954 639 l 1139 639 q 1135 615 1139 633 q 1107 597 1131 597 l 1107 597 l 928 597 q 858 485 893 542 q 789 375 824 429 l 789 375 l 1018 375 q 1014 351 1018 369 q 986 333 1010 333 l 986 333 l 764 333 q 629 119 690 215 q 539 -21 568 24 l 539 -21 q 525 -31 533 -31 q 513 -32 517 -32 l 513 -32 q 496 -21 501 -32 l 496 -21 q 500 -3 493 -14 q 511 15 507 8 l 511 15 q 588 139 536 56 q 707 333 639 222 l 707 333 l 500 333 q 365 119 426 215 q 275 -21 304 24 z m 525 375 l 525 375 l 732 375 q 796 483 763 426 q 864 597 829 539 l 864 597 l 664 597 q 595 485 631 542 q 525 375 560 429 z "},"$":{"ha":628,"x_min":-93,"x_max":663,"o":"m 76 -78 l 29 -86 l 78 0 q 19 14 53 6 q -46 36 -15 22 q -93 72 -76 50 l -93 72 q -83 90 -93 79 q -69 106 -74 101 l -69 106 l -56 106 q 14 56 -25 75 q 94 28 53 36 l 94 28 l 303 408 q 246 491 272 446 q 219 586 219 536 l 219 586 q 249 684 219 643 q 324 751 278 725 q 423 790 369 778 q 524 803 476 803 l 524 803 l 563 875 l 607 882 l 560 799 q 640 754 617 789 q 663 679 663 719 l 663 679 q 641 615 663 643 q 586 586 619 586 l 586 586 q 543 605 561 586 q 525 649 525 624 l 525 649 q 542 692 525 675 q 588 710 560 710 l 588 710 q 614 703 599 710 q 631 688 629 696 l 631 688 q 599 747 625 729 q 543 771 572 764 l 543 771 l 379 475 q 443 378 414 431 q 472 268 472 325 l 472 268 q 439 150 472 201 q 351 65 406 99 q 235 13 297 31 q 115 -4 174 -4 l 115 -4 l 76 -78 z m 357 504 l 357 504 l 508 776 l 489 776 q 406 757 447 776 q 335 703 364 738 q 307 622 307 669 l 307 622 q 323 560 307 588 q 357 504 339 533 z m 328 379 l 132 25 q 250 52 192 25 q 347 128 308 79 q 385 242 385 178 l 385 242 q 367 315 385 279 q 328 379 350 350 l 328 379 z "},"%":{"ha":867,"x_min":-47,"x_max":865,"o":"m 7 -117 l -44 -117 l -47 -111 q 290 268 129 74 q 611 658 451 463 l 611 658 q 496 578 554 611 q 388 544 438 544 l 388 544 q 306 579 340 544 l 306 579 q 250 545 283 561 q 185 531 217 529 l 185 531 q 111 567 136 532 q 86 656 86 603 l 86 656 q 115 788 86 719 l 115 788 q 188 904 143 851 q 285 990 233 957 q 382 1022 336 1022 l 382 1022 q 461 993 439 1022 q 483 919 483 964 l 483 919 q 469 835 483 881 q 431 744 454 789 q 383 662 408 699 q 333 603 357 625 l 333 603 q 358 577 343 585 q 390 569 372 569 l 390 569 q 476 597 426 569 q 575 663 525 624 l 575 663 q 622 706 593 676 q 684 772 651 736 q 747 841 717 807 q 800 899 778 875 q 829 926 822 922 l 829 926 q 850 932 838 932 l 850 932 q 865 921 865 932 l 865 921 l 7 -117 z m 211 563 l 211 563 q 290 597 247 563 l 290 597 q 276 631 282 613 q 269 663 269 649 l 269 663 q 280 707 269 688 q 317 726 290 726 l 317 726 q 347 715 335 726 q 360 685 360 704 l 360 685 q 356 671 360 676 l 356 671 q 392 734 371 692 q 429 826 413 776 q 446 914 446 875 l 446 914 q 435 958 446 942 q 396 975 424 975 l 396 975 q 302 924 353 975 q 213 790 251 872 l 213 790 q 177 699 190 742 q 164 624 164 657 l 164 624 q 176 579 164 596 q 211 563 188 563 z m 492 -40 l 492 -40 q 415 -6 440 -40 q 390 82 390 29 l 390 82 q 419 213 390 144 l 419 213 q 490 329 446 276 q 584 415 533 382 q 681 447 635 447 l 681 447 q 763 417 738 447 q 789 339 789 386 l 789 339 q 772 245 789 296 q 724 144 754 194 q 655 51 693 93 q 574 -15 617 10 q 492 -40 532 -40 z m 499 -10 l 499 -10 q 517 -12 510 -12 l 517 -12 q 572 7 546 -12 q 621 53 599 26 q 658 97 643 79 l 658 97 q 694 160 674 117 q 729 240 715 204 l 729 240 q 744 292 739 267 q 750 338 750 317 l 750 338 q 738 385 750 367 q 697 403 726 403 l 697 403 q 635 378 668 403 q 571 311 601 353 q 515 218 540 269 l 515 218 q 480 126 493 169 q 467 50 467 82 l 467 50 q 499 -10 467 0 z "},"&":{"ha":847,"x_min":15,"x_max":1040,"o":"m 365 -62 l 365 -62 q 169 -26 247 -62 q 53 72 92 11 q 15 200 15 132 l 15 200 q 61 352 15 276 q 198 483 107 428 q 421 551 289 538 l 421 551 q 392 612 401 578 q 382 676 382 646 l 382 676 q 424 806 383 750 q 527 901 464 863 q 663 960 590 940 q 799 981 735 981 l 799 981 q 878 970 838 981 q 946 933 918 960 q 974 858 974 907 l 974 858 q 949 786 974 818 q 888 754 924 754 l 888 754 q 842 774 861 754 q 822 818 822 793 l 822 818 q 841 866 822 847 q 888 885 860 885 l 888 885 q 916 876 900 885 q 936 860 932 868 l 936 860 q 938 875 938 865 l 938 875 q 907 928 938 913 q 842 943 876 943 l 842 943 q 713 916 786 943 q 569 828 639 889 l 569 828 q 518 769 544 806 q 474 692 492 733 q 456 610 456 651 l 456 610 q 467 554 456 578 l 467 554 q 515 556 488 554 q 571 558 542 558 l 571 558 q 628 543 607 558 q 649 508 649 528 l 649 508 q 632 482 649 494 q 579 469 615 469 l 579 469 q 497 490 533 469 q 439 531 460 510 l 439 531 q 283 463 347 518 q 186 331 219 407 q 153 181 153 256 l 153 181 q 176 69 153 121 q 246 -13 199 18 q 365 -44 293 -44 l 365 -44 q 502 -17 440 -44 q 608 53 564 10 q 677 144 653 96 q 701 233 701 192 l 701 233 q 676 294 701 269 q 608 330 650 318 q 519 342 567 342 l 519 342 q 423 328 471 342 q 342 288 375 315 q 301 219 308 261 l 301 219 q 301 213 301 217 q 300 207 300 210 l 300 207 q 323 147 300 176 q 394 92 346 117 l 394 92 q 407 71 407 86 l 407 71 q 393 63 407 56 l 393 63 q 281 151 317 103 q 246 242 246 199 l 246 242 q 313 349 246 304 q 506 394 381 394 l 506 394 l 751 394 q 817 404 774 394 q 907 433 861 414 q 985 477 953 451 q 1018 536 1018 503 l 1018 536 q 1006 575 1018 554 l 1006 575 q 1003 585 1003 579 l 1003 585 q 1010 593 1003 593 l 1010 593 q 1019 586 1015 593 l 1019 586 q 1040 524 1040 556 l 1040 524 q 1013 454 1040 486 q 940 398 986 422 q 838 361 894 374 q 724 350 782 349 l 724 350 q 763 300 750 328 q 775 242 775 272 l 775 242 q 744 137 775 190 q 658 38 714 83 q 528 -35 603 -7 q 365 -62 454 -62 z m 579 493 l 579 493 q 625 511 625 493 l 625 511 q 613 526 625 518 q 582 535 601 533 l 582 535 q 554 536 574 536 q 513 536 535 536 q 478 536 492 536 l 478 536 q 579 493 513 493 z "},"'":{"ha":147,"x_min":146,"x_max":279,"o":"m 160 642 l 146 646 l 196 871 q 215 898 199 888 q 247 903 232 908 l 247 903 q 269 860 279 896 l 269 860 q 249 809 264 840 q 217 744 235 778 q 183 683 199 711 q 160 642 167 656 l 160 642 z "},"(":{"ha":739,"x_min":215,"x_max":906,"o":"m 538 -62 l 538 -62 q 523 -78 538 -71 q 476 -85 508 -85 l 476 -85 q 344 -40 403 -85 q 250 87 285 6 q 215 275 215 168 l 215 275 q 251 481 215 379 q 351 676 288 583 q 499 846 415 769 q 678 976 583 922 q 872 1054 774 1031 l 872 1054 q 883 1056 878 1056 q 893 1057 888 1057 l 893 1057 q 906 1049 906 1057 l 906 1049 q 878 1025 906 1032 l 878 1025 q 690 945 779 1003 q 529 805 601 888 q 403 626 457 722 q 322 428 350 529 q 293 235 293 328 l 293 235 q 315 90 293 154 q 379 -14 336 25 q 486 -53 422 -53 l 486 -53 q 506 -52 496 -53 q 524 -51 517 -51 l 524 -51 q 538 -62 538 -51 z "},")":{"ha":711,"x_min":21,"x_max":711,"o":"m 389 1035 l 389 1035 q 403 1050 389 1043 q 450 1057 418 1057 l 450 1057 q 583 1012 524 1057 q 676 885 642 967 q 711 697 711 804 l 711 697 q 675 491 711 593 q 575 296 639 389 q 427 126 511 203 q 248 -4 343 50 q 54 -82 153 -58 l 54 -82 q 44 -84 49 -83 q 33 -85 40 -85 l 33 -85 q 21 -76 21 -85 l 21 -76 q 49 -53 21 -60 l 49 -53 q 236 27 147 -31 q 397 167 325 85 q 523 347 469 250 q 605 544 576 443 q 633 738 633 644 l 633 738 q 612 883 633 818 q 548 986 590 947 q 440 1025 506 1025 l 440 1025 q 420 1024 431 1025 q 403 1024 410 1024 l 403 1024 q 389 1035 389 1024 z "},"*":{"ha":768,"x_min":231,"x_max":778,"o":"m 497 619 l 344 454 q 326 449 339 449 l 326 449 q 303 456 314 449 q 292 475 292 463 l 292 475 q 303 499 292 488 l 303 499 l 443 639 l 258 633 q 240 644 249 633 q 231 669 231 656 l 231 669 q 238 687 231 679 q 261 694 244 694 l 261 694 l 464 694 q 426 780 446 736 q 383 869 406 824 l 383 869 q 379 886 379 881 l 379 886 q 393 901 379 901 l 393 901 q 410 895 401 901 q 429 871 419 889 l 429 871 q 471 792 446 840 q 514 711 496 743 l 514 711 l 675 874 q 693 883 685 883 l 693 883 q 706 867 706 883 l 706 867 q 685 824 706 847 l 685 824 l 565 694 l 756 694 q 778 681 778 694 l 778 681 q 765 661 778 671 q 729 650 753 651 l 729 650 l 546 644 q 581 571 564 607 q 619 497 599 535 l 619 497 q 615 465 626 485 q 588 446 603 446 l 588 446 q 576 450 583 446 q 565 464 569 454 l 565 464 q 540 522 560 479 q 497 619 521 565 l 497 619 z "},"+":{"ha":476,"x_min":75,"x_max":446,"o":"m 181 161 l 181 161 l 233 322 l 81 322 q 75 326 75 322 l 75 326 q 82 351 75 338 q 113 364 89 364 l 113 364 l 247 364 l 290 493 q 311 521 299 517 q 338 518 324 525 l 338 518 q 342 508 344 518 l 342 508 l 293 364 l 439 364 q 446 358 446 364 l 446 358 q 438 333 446 343 q 406 322 429 322 l 406 322 l 279 322 l 229 176 q 207 150 222 150 q 183 151 192 150 l 183 151 q 181 161 179 156 z "},",":{"ha":299,"x_min":68,"x_max":229,"o":"m 78 -146 l 78 -146 q 68 -132 68 -146 l 68 -132 q 149 -85 117 -117 q 186 -7 181 -53 l 186 -7 q 168 -17 178 -12 q 147 -22 158 -22 l 147 -22 q 115 -8 126 -22 q 103 28 103 7 l 103 28 q 124 77 103 61 q 168 93 146 93 l 168 93 q 213 74 197 93 q 229 28 229 56 l 229 28 q 206 -54 229 -18 q 147 -114 182 -90 q 78 -146 113 -137 z "},"-":{"ha":561,"x_min":171,"x_max":544,"o":"m 504 292 l 178 292 q 171 297 171 292 l 171 297 q 178 320 171 307 q 208 333 186 333 l 208 333 l 538 333 q 544 328 544 333 l 544 328 q 536 302 544 313 q 504 292 528 292 l 504 292 z "},".":{"ha":285,"x_min":97,"x_max":215,"o":"m 147 -21 l 147 -21 q 111 -7 125 -21 q 97 28 97 7 l 97 28 q 119 75 97 56 q 165 94 140 94 l 165 94 q 201 81 188 94 q 215 47 215 68 l 215 47 q 194 0 215 21 q 147 -21 174 -21 z "},"/":{"ha":696,"x_min":111,"x_max":1136,"o":"m 154 -44 l 154 -44 q 136 -56 144 -54 q 124 -57 128 -57 l 124 -57 q 111 -44 111 -57 l 111 -44 q 122 -22 111 -35 q 140 -1 133 -10 l 140 -1 q 244 121 176 40 q 403 311 311 201 q 601 551 494 421 q 824 825 708 682 q 1057 1115 940 968 l 1057 1115 q 1079 1133 1067 1128 q 1104 1138 1092 1138 l 1104 1138 q 1126 1132 1117 1138 q 1136 1117 1136 1126 l 1136 1117 q 1128 1100 1136 1111 l 1128 1100 q 1010 962 1079 1043 q 861 786 942 881 q 696 591 781 692 q 528 393 611 490 q 373 210 446 296 q 243 58 300 124 q 154 -44 186 -8 z "},":":{"ha":410,"x_min":97,"x_max":368,"o":"m 300 292 l 300 292 q 264 306 278 292 q 250 340 250 319 l 250 340 q 271 388 250 368 q 318 408 292 408 l 318 408 q 354 394 340 408 q 368 360 368 381 l 368 360 q 347 313 368 333 q 300 292 325 292 z m 144 -21 l 144 -21 q 111 -7 125 -21 q 97 28 97 7 l 97 28 q 118 75 97 56 q 165 94 139 94 l 165 94 q 201 81 188 94 q 214 47 214 68 l 214 47 q 192 0 214 21 q 144 -21 171 -21 z "},";":{"ha":411,"x_min":68,"x_max":369,"o":"m 301 292 l 301 292 q 265 306 279 292 q 251 340 251 319 l 251 340 q 272 388 251 368 q 319 408 293 408 l 319 408 q 356 394 342 408 q 369 360 369 381 l 369 360 q 348 313 369 333 q 301 292 326 292 z m 83 -143 l 83 -143 q 76 -144 79 -144 l 76 -144 q 68 -139 68 -144 l 68 -139 q 79 -128 68 -132 l 79 -128 q 150 -84 119 -115 q 188 -6 181 -53 l 188 -6 q 146 -21 168 -21 l 146 -21 q 113 -7 126 -21 q 99 28 99 7 l 99 28 q 119 75 99 56 q 167 94 140 94 l 167 94 q 209 71 196 94 q 222 19 222 47 l 222 19 q 200 -59 222 -26 q 146 -112 178 -92 q 83 -143 114 -132 z "},"<":{"ha":326,"x_min":46,"x_max":304,"o":"m 192 156 l 192 156 l 65 300 q 53 315 60 307 q 47 333 46 324 l 47 333 q 64 363 47 351 l 64 363 l 221 464 q 257 487 244 479 q 276 494 269 494 l 276 494 q 290 490 285 494 q 300 479 296 485 l 300 479 q 296 467 304 474 l 296 467 l 133 361 q 90 338 110 346 l 90 338 q 103 328 96 335 q 119 313 110 322 l 119 313 q 142 283 128 304 q 175 240 157 263 q 207 204 193 218 l 207 204 q 219 179 222 189 l 219 179 q 203 156 219 168 l 203 156 q 192 156 197 150 z "},"=":{"ha":525,"x_min":75,"x_max":494,"o":"m 406 247 l 81 247 q 75 251 75 247 l 75 251 q 82 276 75 263 q 113 289 89 289 l 113 289 l 439 289 q 446 283 446 289 l 446 283 q 438 258 446 268 q 406 247 429 247 l 406 247 z m 454 381 l 129 381 q 124 385 124 381 l 124 385 q 131 409 124 396 q 161 422 138 422 l 161 422 l 488 422 q 494 417 494 422 l 494 417 q 486 391 494 401 q 454 381 478 381 l 454 381 z "},">":{"ha":351,"x_min":51,"x_max":318,"o":"m 283 307 l 65 154 q 57 157 60 150 l 57 157 q 53 166 56 161 q 51 176 51 171 l 51 176 q 57 192 53 183 q 75 207 61 200 l 75 207 q 163 272 117 233 q 244 331 208 310 l 244 331 q 274 346 258 339 l 274 346 q 262 356 268 350 q 249 369 256 363 l 249 369 l 150 476 q 146 485 144 483 q 149 488 147 486 l 149 488 q 162 496 156 493 q 176 499 168 499 l 176 499 q 214 468 188 499 l 214 468 l 301 375 q 314 358 310 365 q 317 343 318 351 l 317 343 q 283 307 317 331 l 283 307 z "},"?":{"ha":563,"x_min":179,"x_max":697,"o":"m 293 224 l 293 224 q 281 214 289 214 l 281 214 q 270 220 275 214 q 267 233 265 226 l 267 233 q 311 342 279 286 q 385 452 343 397 q 469 558 426 507 q 547 651 513 608 l 547 651 q 586 714 575 686 q 597 765 597 742 l 597 765 q 570 823 597 803 q 501 843 543 843 l 501 843 q 456 838 479 843 q 407 819 432 832 l 407 819 q 349 776 375 804 q 328 722 324 747 l 328 722 q 345 751 332 739 q 376 772 358 763 l 376 772 q 417 783 397 783 l 417 783 q 453 768 440 783 q 465 732 465 753 l 465 732 q 433 671 465 697 l 433 671 q 372 649 403 649 l 372 649 q 323 668 343 649 q 303 721 303 688 l 303 721 q 329 793 303 760 q 397 851 356 826 q 483 890 438 876 q 567 904 528 904 l 567 904 q 660 877 624 904 q 697 800 697 850 l 697 800 q 676 720 697 765 q 606 619 654 675 l 606 619 q 517 526 561 568 q 431 440 472 483 q 355 346 390 397 q 293 224 319 294 z m 229 -21 l 229 -21 q 191 -3 203 -21 q 182 39 179 15 l 182 39 q 206 79 185 64 q 249 94 226 94 l 249 94 q 285 81 271 94 q 299 47 299 68 l 299 47 q 277 0 299 21 q 229 -21 256 -21 z "},"@":{"ha":1428,"x_min":188,"x_max":1400,"o":"m 713 -207 l 713 -207 q 444 -156 564 -207 q 256 -5 325 -106 q 188 243 188 96 l 188 243 q 229 464 188 358 q 344 658 271 569 q 513 810 417 746 q 717 911 608 875 q 939 947 826 947 l 939 947 q 1103 927 1022 947 q 1252 863 1185 907 q 1360 751 1319 819 q 1400 583 1400 682 l 1400 583 q 1368 406 1400 497 q 1276 236 1336 314 q 1130 110 1215 158 q 939 61 1044 61 l 939 61 q 888 72 915 61 q 840 111 860 83 q 819 189 819 139 l 819 189 q 824 231 819 208 q 835 279 828 253 l 835 279 q 793 213 818 251 q 736 138 768 175 q 667 77 704 101 q 589 53 629 53 l 589 53 q 516 93 543 53 q 489 201 489 133 l 489 201 q 524 361 489 271 q 638 546 558 451 l 638 546 q 763 644 689 607 q 907 682 836 682 l 907 682 q 983 669 947 682 q 1044 625 1018 656 l 1044 625 q 1057 597 1057 611 l 1057 597 q 1049 579 1057 586 q 1028 575 1042 572 l 1028 575 q 995 623 1018 607 q 944 639 972 639 l 944 639 q 876 619 911 639 l 876 619 q 754 517 817 586 q 642 367 692 449 l 642 367 q 615 317 633 353 q 583 240 597 282 q 568 164 568 199 l 568 164 q 581 117 568 132 q 613 103 593 103 l 613 103 q 676 128 643 103 q 742 195 710 154 q 804 281 775 236 q 856 365 833 326 q 889 426 878 404 l 889 426 q 941 510 917 481 q 1004 540 965 540 l 1004 540 q 1042 534 1022 540 q 1083 531 1063 528 l 1083 531 q 1045 481 1069 518 q 994 394 1021 443 q 948 294 968 344 q 919 203 928 243 l 919 203 q 915 164 915 181 l 915 164 q 936 109 915 125 q 988 93 957 93 l 988 93 q 1095 123 1043 93 q 1192 204 1147 153 q 1272 319 1238 256 q 1325 450 1306 382 q 1344 582 1344 518 l 1344 582 q 1310 738 1344 674 q 1219 842 1276 803 q 1090 900 1163 882 q 942 918 1018 918 l 942 918 q 733 882 833 918 q 549 781 633 846 q 402 630 465 717 q 304 442 339 543 q 269 232 269 340 l 269 232 q 327 6 269 97 q 488 -131 385 -85 q 724 -176 590 -176 l 724 -176 q 960 -137 842 -176 q 1169 -32 1079 -97 l 1169 -32 q 1183 -40 1179 -32 q 1186 -54 1186 -47 l 1186 -54 q 964 -165 1088 -124 q 713 -207 840 -207 z "},"A":{"ha":994,"x_min":25,"x_max":1200,"o":"m 757 -89 l 757 -89 q 671 -41 696 -89 q 646 71 646 7 l 646 71 q 662 183 646 128 q 700 268 678 239 l 700 268 q 607 167 663 224 q 485 57 551 110 q 347 -31 418 4 q 207 -65 276 -65 l 207 -65 q 70 -7 115 -65 q 25 153 25 51 l 25 153 q 52 323 25 232 q 132 508 79 414 l 132 508 q 188 599 157 554 q 256 685 219 644 l 256 685 q 172 731 213 706 q 107 793 132 757 q 82 879 82 829 l 82 879 q 94 927 82 906 q 119 949 106 949 l 119 949 q 132 933 132 949 l 132 933 q 126 913 132 924 l 126 913 q 119 879 119 894 l 119 879 q 146 809 119 842 q 210 753 172 776 q 279 715 247 729 l 279 715 q 474 895 368 813 q 703 1028 581 978 q 960 1078 825 1078 l 960 1078 q 1136 1028 1072 1078 q 1200 901 1200 979 l 1200 901 q 1160 783 1200 832 q 1057 701 1121 733 q 919 649 993 668 q 772 623 844 631 q 646 615 700 615 l 646 615 q 492 625 567 615 q 344 656 418 635 l 344 656 q 266 537 308 604 q 185 395 224 469 q 123 248 147 321 q 99 113 99 175 l 99 113 q 131 10 99 44 q 217 -24 163 -24 l 217 -24 q 355 16 282 -24 q 501 119 428 56 q 642 258 575 183 q 761 407 708 333 q 844 538 814 481 l 844 538 q 890 601 868 582 q 928 619 913 619 l 928 619 q 951 608 943 619 q 960 576 960 596 l 960 576 q 925 499 960 538 l 925 499 q 833 367 878 444 q 761 206 789 290 q 733 49 733 122 l 733 49 q 749 -25 733 -3 q 792 -47 765 -47 l 792 -47 q 873 -20 832 -47 q 951 53 914 7 q 1021 155 989 99 q 1076 268 1053 211 l 1076 268 q 1088 267 1083 268 q 1093 256 1093 265 l 1093 256 q 1037 135 1069 196 q 963 23 1004 74 q 869 -58 921 -28 q 757 -89 818 -89 z m 633 649 l 633 649 q 757 655 689 649 q 892 678 825 661 q 1017 725 960 694 q 1108 803 1074 756 q 1143 918 1143 850 l 1143 918 q 1092 1011 1143 979 q 964 1043 1042 1043 l 964 1043 q 728 992 835 1043 q 534 860 622 942 q 367 683 446 778 l 367 683 q 492 657 428 665 q 633 649 557 649 z "},"B":{"ha":1454,"x_min":15,"x_max":1518,"o":"m 247 -54 l 247 -54 q 177 -48 217 -54 q 101 -26 138 -42 q 40 17 64 -11 q 15 89 15 46 l 15 89 q 61 183 15 140 q 190 225 107 225 l 190 225 q 304 205 251 225 q 408 156 357 185 q 513 100 458 128 l 513 100 q 640 265 582 167 q 755 477 697 364 q 880 704 813 590 q 1036 918 947 818 l 1036 918 l 1117 1008 q 1010 1022 1065 1017 q 894 1026 954 1026 l 894 1026 q 716 1013 813 1026 q 524 969 619 999 q 351 896 429 940 q 225 790 272 851 q 178 650 178 729 l 178 650 q 202 564 178 596 q 263 517 226 532 q 338 503 300 503 l 338 503 q 443 531 400 503 q 508 597 486 560 q 529 664 529 635 l 529 664 q 543 674 529 674 l 543 674 q 557 651 557 674 l 557 651 q 522 553 557 594 q 435 489 488 511 q 331 467 383 467 l 331 467 q 231 490 282 467 q 147 561 181 514 q 114 678 114 608 l 114 678 q 161 826 114 761 q 288 936 208 890 q 464 1012 367 982 q 660 1056 561 1042 q 847 1069 760 1069 l 847 1069 q 1005 1062 928 1069 q 1150 1039 1082 1054 l 1150 1039 q 1190 1068 1169 1056 q 1226 1088 1210 1081 l 1226 1088 q 1251 1094 1242 1094 l 1251 1094 q 1263 1086 1263 1094 l 1263 1086 q 1247 1071 1263 1082 l 1247 1071 q 1216 1045 1229 1057 q 1200 1028 1203 1033 l 1200 1028 q 1430 928 1342 992 q 1518 779 1518 865 l 1518 779 q 1469 655 1518 708 q 1342 571 1421 601 q 1175 536 1264 540 l 1175 536 q 1374 432 1300 496 q 1449 269 1449 368 l 1449 269 q 1406 136 1449 196 q 1294 34 1364 76 q 1140 -31 1224 -8 q 975 -54 1057 -54 l 975 -54 q 747 -28 846 -54 q 540 47 647 -1 l 540 47 q 247 -54 406 -54 z m 956 -14 l 956 -14 q 1113 13 1042 -14 q 1235 82 1183 39 q 1316 178 1288 125 q 1344 282 1344 231 l 1344 282 q 1315 376 1344 331 q 1224 451 1286 421 l 1224 451 q 1082 508 1143 492 q 985 538 1021 524 l 985 538 q 967 547 971 544 q 963 553 963 550 l 963 553 q 976 575 963 567 q 1008 583 990 583 l 1008 583 q 1068 579 1036 583 q 1136 575 1100 575 l 1136 575 q 1292 611 1226 575 q 1392 701 1357 647 q 1428 808 1428 756 l 1428 808 q 1375 913 1428 868 q 1183 994 1322 958 l 1183 994 q 1044 780 1114 899 q 906 540 975 661 q 765 310 836 418 q 624 124 694 201 l 624 124 q 597 97 607 106 q 571 72 588 88 l 571 72 q 754 12 654 38 q 956 -14 854 -14 z m 219 -11 l 219 -11 q 362 8 297 -15 q 482 72 426 31 l 482 72 q 397 115 449 89 q 293 162 346 142 q 201 182 240 182 l 201 182 q 124 155 150 182 q 97 93 97 128 l 97 93 q 128 24 97 57 q 219 -11 158 -8 z "},"C":{"ha":992,"x_min":83,"x_max":1188,"o":"m 515 -149 l 515 -149 q 291 -98 389 -149 q 138 52 193 -47 q 83 296 83 151 l 83 296 q 106 468 83 382 q 166 633 128 554 q 251 779 204 713 l 251 779 q 231 960 231 863 l 231 960 q 247 1100 231 1033 l 247 1100 q 267 1119 253 1119 l 267 1119 q 276 1106 278 1119 l 276 1106 q 269 1047 272 1078 q 267 972 267 1015 l 267 972 q 282 819 267 892 l 282 819 q 310 853 296 838 l 310 853 q 444 970 367 915 q 617 1058 522 1025 q 819 1092 713 1092 l 819 1092 q 1003 1055 919 1092 q 1137 949 1086 1018 q 1188 783 1188 881 l 1188 783 q 1155 658 1188 722 q 1062 541 1122 594 q 916 454 1001 488 q 725 421 831 421 l 725 421 q 471 482 586 421 q 292 668 356 543 l 292 668 q 210 468 236 569 q 183 275 183 367 l 183 275 q 228 58 183 142 q 351 -65 272 -25 q 531 -104 429 -104 l 531 -104 q 848 -13 711 -104 q 1074 268 985 78 l 1074 268 q 1090 256 1090 268 l 1090 256 q 855 -49 1004 50 q 515 -149 706 -149 z m 351 761 l 351 761 q 317 710 333 736 l 317 710 q 465 526 365 596 q 717 457 565 457 l 717 457 q 888 486 813 457 q 1016 564 964 515 q 1096 672 1068 613 q 1124 790 1124 731 l 1124 790 q 1084 919 1124 864 q 976 1006 1044 975 q 822 1038 908 1038 l 822 1038 q 649 1001 736 1038 q 485 903 563 965 q 351 761 408 840 z "},"D":{"ha":1458,"x_min":47,"x_max":1474,"o":"m 272 -60 l 272 -60 q 164 -43 215 -60 q 80 7 113 -26 q 47 90 47 40 l 47 90 q 92 183 47 142 q 221 225 138 225 l 221 225 q 387 185 308 225 q 553 100 465 146 l 553 100 q 684 265 626 171 q 795 463 742 358 q 906 670 849 567 q 1033 863 963 774 l 1033 863 q 1058 894 1046 878 q 1085 925 1071 910 l 1085 925 q 924 994 1010 969 q 746 1018 838 1018 l 746 1018 q 535 989 632 1018 q 366 910 438 960 q 254 799 294 861 q 214 672 214 738 l 214 672 q 238 576 214 614 q 300 519 263 538 q 374 501 338 501 l 374 501 q 457 520 422 501 q 514 567 492 539 q 547 621 536 594 q 560 664 558 647 l 560 664 q 572 674 560 674 l 572 674 q 588 650 592 674 l 588 650 q 546 553 581 594 q 463 490 511 513 q 363 467 414 467 l 363 467 q 251 490 301 467 q 172 559 201 513 q 142 674 142 606 l 142 674 q 190 835 142 764 q 324 957 239 907 q 518 1033 408 1007 q 750 1060 628 1060 l 750 1060 q 940 1037 844 1060 q 1122 968 1036 1014 l 1122 968 q 1197 1040 1158 1008 q 1275 1088 1235 1071 l 1275 1088 q 1304 1094 1293 1094 l 1304 1094 q 1313 1090 1313 1094 l 1313 1090 q 1281 1056 1313 1083 l 1281 1056 q 1238 1005 1263 1039 q 1186 931 1213 971 l 1186 931 q 1334 799 1269 876 q 1436 624 1399 722 q 1474 407 1474 526 l 1474 407 q 1433 203 1474 290 q 1324 60 1393 117 q 1164 -26 1254 3 q 974 -54 1074 -54 l 974 -54 q 755 -22 856 -54 q 568 50 654 10 l 568 50 q 427 -32 500 -4 q 272 -60 354 -60 z m 1092 782 l 1092 782 q 1021 666 1063 736 q 928 514 979 596 q 821 350 876 432 q 709 197 765 268 q 600 76 653 125 l 600 76 q 763 14 674 40 q 964 -12 851 -12 l 964 -12 q 1186 41 1092 -12 q 1333 187 1281 94 q 1386 396 1386 279 l 1386 396 q 1322 672 1386 547 q 1151 879 1258 796 l 1151 879 q 1118 824 1133 850 q 1092 782 1103 799 z m 272 -17 l 272 -17 q 410 9 343 -21 q 522 74 478 39 l 522 74 q 369 147 439 114 q 239 181 299 181 l 239 181 q 164 152 190 181 q 138 89 138 124 l 138 89 q 173 15 138 44 q 272 -17 208 -14 z "},"E":{"ha":1138,"x_min":31,"x_max":1199,"o":"m 453 -82 l 453 -82 q 215 -42 308 -82 q 76 64 121 -1 q 31 203 31 129 l 31 203 q 74 354 31 286 q 187 472 117 422 q 342 551 257 522 q 508 585 426 581 l 508 585 q 391 658 436 611 q 346 760 346 704 l 346 760 q 381 869 346 817 q 476 965 417 921 q 612 1040 536 1008 q 769 1090 688 1072 q 928 1107 851 1107 l 928 1107 q 1125 1065 1051 1107 q 1199 958 1199 1024 l 1199 958 q 1134 840 1199 899 q 956 757 1069 782 l 956 757 q 926 753 933 753 l 926 753 q 911 765 911 753 l 911 765 q 916 772 911 769 q 938 779 921 774 l 938 779 q 1068 858 1019 807 q 1117 965 1117 908 l 1117 965 q 1070 1044 1117 1014 q 931 1074 1024 1074 l 931 1074 q 763 1050 847 1074 q 607 983 678 1026 q 493 885 536 940 q 450 764 450 829 l 450 764 q 478 688 450 717 q 549 641 506 658 q 638 613 592 624 q 724 590 685 603 l 724 590 q 742 579 738 586 q 746 565 746 572 l 746 565 q 726 535 746 547 q 669 522 706 522 l 669 522 q 620 523 647 522 q 563 524 593 524 l 563 524 q 472 519 519 524 q 367 497 424 515 l 367 497 q 241 428 294 475 q 158 324 188 381 q 129 211 129 267 l 129 211 q 163 81 129 139 q 268 -12 196 22 q 458 -46 340 -46 l 458 -46 q 668 -18 567 -46 q 856 53 769 10 q 1003 144 942 97 l 1003 144 q 1084 226 1053 185 q 1115 299 1115 268 l 1115 299 q 1061 346 1115 338 l 1061 346 q 1047 354 1047 347 l 1047 354 q 1067 365 1047 365 l 1067 365 q 1138 338 1107 365 q 1169 271 1169 311 l 1169 271 q 1057 104 1169 192 l 1057 104 q 891 8 989 50 q 680 -58 793 -33 q 453 -82 567 -82 z "},"F":{"ha":1463,"x_min":36,"x_max":1968,"o":"m 539 -140 l 539 -140 q 273 -93 386 -140 q 98 37 160 -46 q 36 225 36 119 l 36 225 q 67 382 36 311 q 148 500 97 453 q 260 563 199 547 l 260 563 q 269 556 269 564 l 269 556 q 263 544 269 549 l 263 544 q 152 421 190 501 q 114 242 114 340 l 114 242 q 169 58 114 135 q 322 -60 225 -19 q 539 -101 418 -101 l 539 -101 q 737 -65 643 -101 q 910 36 831 -28 q 1052 181 989 100 q 1158 351 1115 263 l 1158 351 q 1178 392 1168 372 q 1197 431 1188 411 l 1197 431 q 1137 433 1164 432 q 1100 435 1110 435 l 1100 435 q 1020 430 1063 435 q 941 411 978 425 q 881 368 904 397 l 881 368 q 869 353 871 358 q 863 347 867 347 l 863 347 q 853 356 857 347 q 854 376 849 365 l 854 376 q 944 473 886 447 q 1075 499 1003 499 l 1075 499 q 1133 494 1090 499 q 1222 483 1175 489 l 1222 483 q 1334 707 1283 607 q 1429 874 1385 807 l 1429 874 q 1217 933 1329 907 q 975 958 1104 958 l 975 958 q 801 932 879 958 q 669 861 724 906 q 585 763 614 817 q 556 654 556 708 l 556 654 q 579 557 556 593 q 641 505 603 521 q 719 489 679 489 l 719 489 q 822 518 779 489 q 889 584 864 547 q 919 644 914 621 l 919 644 q 936 667 925 667 l 936 667 q 950 647 953 667 l 950 647 q 907 542 942 586 q 822 474 872 497 q 717 451 772 451 l 717 451 q 607 479 660 451 q 521 560 554 507 q 488 688 488 613 l 488 688 q 515 809 488 749 q 597 920 542 869 q 736 1001 651 971 q 936 1032 821 1032 l 936 1032 q 1104 1013 1018 1032 q 1278 966 1190 994 q 1453 907 1367 938 l 1453 907 q 1508 965 1482 944 q 1561 985 1535 985 l 1561 985 q 1576 980 1572 985 q 1581 971 1581 975 l 1581 971 q 1576 958 1581 965 q 1561 951 1572 951 l 1561 951 q 1475 900 1515 951 l 1475 900 q 1667 841 1575 867 q 1839 815 1760 815 l 1839 815 q 1919 828 1900 815 q 1939 865 1939 842 l 1939 865 q 1949 881 1939 881 l 1949 881 q 1962 872 1956 881 q 1968 850 1968 863 l 1968 850 q 1931 796 1968 817 q 1829 775 1894 775 l 1829 775 q 1650 803 1743 775 q 1453 867 1557 832 l 1453 867 q 1379 703 1415 804 q 1294 476 1343 603 l 1294 476 q 1421 467 1354 471 q 1529 464 1488 464 l 1529 464 q 1543 456 1543 464 l 1543 456 q 1511 436 1543 444 l 1511 436 q 1441 428 1490 431 q 1339 425 1392 425 l 1339 425 q 1311 426 1328 425 q 1275 426 1294 426 l 1275 426 q 1249 362 1263 394 q 1221 294 1236 329 l 1221 294 q 1078 72 1163 157 q 899 -60 994 -14 q 710 -124 804 -107 q 539 -140 617 -140 z "},"G":{"ha":975,"x_min":-64,"x_max":1110,"o":"m 114 -522 l 114 -522 q -16 -492 32 -522 q -64 -414 -64 -461 l -64 -414 q -31 -331 -64 -369 q 56 -260 3 -292 q 173 -205 110 -229 q 297 -165 236 -181 q 403 -143 357 -149 l 403 -143 q 498 -132 446 -136 q 603 -124 550 -128 q 700 -121 657 -121 l 700 -121 q 784 44 751 -33 q 842 224 817 122 l 842 224 l 847 246 q 773 185 821 221 q 662 115 725 150 q 527 56 599 79 q 381 32 456 32 l 381 32 q 210 79 282 32 q 101 210 139 126 q 63 404 63 294 l 63 404 q 79 544 63 469 q 133 696 96 618 l 133 696 q 66 794 90 740 q 42 906 42 849 l 42 906 q 63 1005 42 956 q 128 1100 83 1054 l 128 1100 q 151 1114 140 1114 l 151 1114 q 157 1108 157 1114 l 157 1108 q 147 1089 157 1100 l 147 1089 q 100 1007 115 1050 q 85 921 85 964 l 85 921 q 103 825 85 872 q 157 738 122 778 l 157 738 q 256 886 193 814 q 404 1016 319 958 q 589 1108 489 1074 q 797 1142 689 1142 l 797 1142 q 1026 1079 942 1142 q 1110 890 1110 1017 l 1110 890 q 1077 771 1110 831 q 978 661 1044 711 q 815 581 913 611 q 588 547 717 550 l 588 547 q 388 573 486 546 q 221 644 289 600 l 221 644 q 170 501 186 571 q 154 369 154 431 l 154 369 q 223 156 154 229 q 407 82 292 82 l 407 82 q 533 101 469 82 q 650 150 596 119 q 742 215 704 181 q 793 278 781 249 l 793 278 q 856 378 825 350 q 913 407 888 407 l 913 407 q 948 388 933 407 q 958 338 963 369 l 958 338 q 895 114 944 222 q 768 -121 846 6 l 768 -121 q 938 -131 863 -122 q 1075 -156 1014 -140 l 1075 -156 q 1098 -166 1092 -160 q 1104 -176 1104 -172 l 1104 -176 q 1088 -186 1104 -186 l 1088 -186 q 1064 -182 1079 -186 l 1064 -182 q 979 -167 1032 -174 q 866 -158 926 -161 q 750 -156 806 -156 l 750 -156 q 612 -306 692 -239 q 442 -422 532 -374 q 267 -497 353 -471 q 114 -522 182 -522 z m 550 589 l 550 589 q 733 614 644 589 q 893 683 822 639 q 1006 787 964 728 q 1049 913 1049 846 l 1049 913 q 1015 1017 1049 974 q 928 1085 981 1061 q 815 1108 875 1108 l 815 1108 q 635 1072 721 1108 q 475 976 549 1036 q 341 839 401 915 q 239 682 281 763 l 239 682 q 377 614 296 639 q 550 589 458 589 z m 111 -486 l 111 -486 q 239 -465 165 -486 q 393 -401 313 -443 q 548 -299 474 -360 q 678 -158 622 -237 l 678 -158 q 547 -165 611 -160 q 418 -181 482 -169 l 418 -181 q 333 -201 383 -186 q 228 -240 282 -217 q 126 -293 174 -264 q 48 -356 78 -322 q 18 -424 18 -389 l 18 -424 q 40 -467 18 -449 q 111 -486 61 -486 z "},"H":{"ha":1938,"x_min":-11,"x_max":2144,"o":"m 428 -240 l 428 -240 q 269 -222 347 -240 q 127 -160 190 -203 q 26 -44 64 -117 q -11 138 -11 29 l -11 138 q 15 283 -11 215 q 85 394 42 351 q 176 436 128 436 l 176 436 q 193 428 193 436 l 193 428 q 175 414 193 419 l 175 414 q 108 372 140 406 q 54 282 75 338 q 33 150 33 226 l 33 150 q 67 0 33 58 q 156 -92 101 -58 q 270 -138 210 -125 q 385 -151 331 -151 l 385 -151 q 665 -103 538 -151 q 894 29 792 -56 q 1072 224 996 114 q 1197 461 1147 335 l 1197 461 q 1200 469 1199 465 l 1200 469 q 1163 465 1178 468 q 1133 457 1147 463 l 1133 457 q 1088 446 1103 446 l 1088 446 q 1079 457 1079 446 l 1079 457 q 1099 498 1079 476 q 1149 521 1119 519 l 1149 521 q 1180 522 1160 521 q 1222 522 1200 522 l 1222 522 q 1279 660 1249 589 q 1339 794 1310 731 q 1390 906 1368 858 q 1422 972 1413 953 l 1422 972 q 1264 958 1346 964 q 1103 938 1182 951 q 953 896 1024 925 l 953 896 q 763 753 822 842 q 704 557 704 665 l 704 557 q 742 444 704 489 q 840 400 779 400 l 840 400 q 938 434 896 400 q 1003 520 979 468 q 1028 624 1028 572 l 1028 624 q 1024 653 1028 640 q 1018 672 1021 667 l 1018 672 q 1026 682 1018 682 l 1026 682 q 1051 656 1044 682 q 1057 606 1057 631 l 1057 606 q 1027 496 1057 550 q 945 406 997 442 q 828 371 893 371 l 828 371 q 722 401 769 371 q 644 482 674 431 q 615 596 615 533 l 615 596 q 656 753 615 685 q 766 871 696 822 q 924 944 836 919 l 924 944 q 1099 979 1008 969 q 1278 994 1190 989 q 1440 1006 1367 999 l 1440 1006 q 1476 1057 1454 1031 q 1524 1102 1497 1083 q 1578 1121 1550 1121 l 1578 1121 q 1614 1110 1599 1121 q 1629 1078 1629 1100 l 1629 1078 q 1603 1023 1629 1044 q 1539 990 1578 1001 q 1463 974 1500 979 l 1463 974 q 1426 892 1447 944 q 1381 774 1406 839 q 1333 644 1357 710 q 1288 521 1308 578 l 1288 521 q 1398 515 1335 518 q 1528 508 1461 511 q 1655 501 1594 504 q 1754 499 1715 499 l 1754 499 q 1786 579 1769 538 l 1786 579 q 1944 910 1872 789 q 2060 1044 2017 1031 l 2060 1044 q 2136 1063 2115 1063 l 2136 1063 q 2144 1060 2144 1063 l 2144 1060 q 2125 1046 2144 1056 l 2125 1046 q 2085 997 2115 1040 q 2014 880 2056 954 q 1926 708 1972 806 q 1839 497 1881 611 l 1839 497 q 1887 499 1863 497 q 1924 501 1911 500 l 1924 501 q 1949 508 1939 504 q 1965 513 1960 513 l 1965 513 q 1972 506 1972 513 l 1972 506 q 1961 492 1972 501 l 1961 492 q 1904 463 1938 475 q 1821 447 1871 450 l 1821 447 q 1761 259 1789 356 q 1733 81 1733 163 l 1733 81 q 1744 22 1733 50 q 1786 -6 1756 -6 l 1786 -6 q 1865 34 1822 -6 q 1950 136 1908 74 q 2019 268 1992 199 l 2019 268 q 2036 256 2036 268 l 2036 256 q 1958 107 2003 179 q 1859 -12 1913 35 q 1747 -58 1806 -58 l 1747 -58 q 1673 -25 1701 -58 q 1644 74 1644 8 l 1644 74 q 1670 236 1644 138 q 1736 447 1696 335 l 1736 447 q 1633 451 1694 449 q 1504 458 1572 454 q 1374 464 1436 461 q 1269 468 1311 467 l 1269 468 q 1258 436 1264 451 q 1249 408 1253 421 l 1249 408 q 1133 171 1207 286 q 955 -37 1058 56 q 719 -185 851 -131 q 428 -240 586 -240 z m 1489 1008 l 1489 1008 q 1513 1014 1503 1011 q 1533 1019 1524 1017 l 1533 1019 q 1569 1039 1558 1028 q 1579 1058 1579 1050 l 1579 1058 q 1560 1075 1579 1075 l 1560 1075 q 1536 1067 1550 1075 q 1508 1039 1522 1058 l 1508 1039 q 1498 1023 1503 1031 q 1489 1008 1493 1015 z "},"I":{"ha":1274,"x_min":-26,"x_max":1669,"o":"m 467 -269 l 467 -269 q 279 -241 368 -269 q 122 -162 190 -212 q 13 -44 53 -111 q -26 99 -26 22 l -26 99 q -5 237 -26 178 q 47 335 17 296 q 107 394 78 374 l 107 394 q 167 427 140 418 q 199 436 193 436 l 199 436 q 207 429 207 436 l 207 429 q 200 418 207 422 l 200 418 q 90 297 128 375 q 51 131 51 218 l 51 131 q 76 1 51 64 q 151 -115 100 -62 q 286 -197 203 -167 q 488 -228 369 -228 l 488 -228 q 656 -191 575 -228 q 810 -94 738 -154 q 944 40 882 -33 q 1057 188 1007 114 q 1142 324 1107 261 l 1142 324 q 1256 558 1208 442 q 1349 786 1303 674 q 1461 1006 1396 899 l 1461 1006 q 1328 978 1397 994 q 1192 938 1258 963 q 1071 878 1125 914 q 985 791 1017 842 q 953 672 953 740 l 953 672 q 982 584 953 617 q 1063 551 1011 551 l 1063 551 q 1127 571 1094 551 q 1183 626 1160 590 q 1206 711 1206 661 l 1206 711 q 1201 744 1206 732 q 1194 761 1197 756 l 1194 761 q 1198 772 1194 767 q 1207 778 1201 778 l 1207 778 q 1226 753 1219 778 q 1232 714 1232 729 l 1232 714 q 1210 619 1232 664 q 1147 547 1189 575 q 1042 519 1104 519 l 1042 519 q 926 563 974 519 q 878 678 878 606 l 878 678 q 916 802 878 747 q 1019 898 954 857 q 1163 968 1083 939 q 1325 1015 1242 997 q 1483 1043 1408 1033 l 1483 1043 q 1541 1124 1504 1086 q 1625 1161 1578 1161 l 1625 1161 q 1657 1151 1644 1161 q 1669 1121 1669 1142 l 1669 1121 q 1651 1076 1669 1096 q 1606 1044 1633 1057 q 1551 1023 1578 1031 q 1504 1013 1524 1015 l 1504 1013 q 1408 799 1444 903 q 1341 594 1371 694 q 1269 393 1311 493 l 1269 393 q 1133 132 1210 253 q 958 -79 1056 11 q 738 -219 860 -169 q 467 -269 615 -269 z m 1528 1049 l 1528 1049 q 1601 1074 1582 1060 q 1619 1099 1619 1088 l 1619 1099 q 1604 1117 1619 1117 l 1604 1117 q 1565 1099 1586 1117 q 1528 1049 1543 1081 z "},"J":{"ha":1350,"x_min":-83,"x_max":1774,"o":"m 385 -531 l 385 -531 q 147 -486 253 -531 q -22 -357 40 -442 q -83 -153 -83 -272 l -83 -153 q -40 30 -83 -42 q 54 138 3 101 l 54 138 q 108 167 83 158 q 142 176 133 176 l 142 176 q 150 169 150 176 l 150 169 q 143 158 150 163 l 143 158 q 33 36 71 115 q -6 -137 -6 -43 l -6 -137 q 44 -326 -6 -246 q 183 -449 94 -406 q 389 -492 272 -492 l 389 -492 q 765 -336 586 -492 q 1111 97 944 -181 l 1111 97 q 1229 318 1174 204 q 1335 543 1285 432 l 1335 543 q 1430 738 1385 651 q 1509 885 1475 825 q 1558 968 1543 944 l 1558 968 q 1015 818 1207 921 q 822 554 822 715 l 822 554 q 865 430 822 471 q 964 389 908 389 l 964 389 q 1073 424 1018 389 q 1165 520 1128 458 q 1201 664 1201 582 l 1201 664 q 1176 729 1201 704 l 1176 729 q 1190 743 1176 743 l 1190 743 q 1220 718 1207 743 q 1233 656 1233 693 l 1233 656 q 1190 495 1233 563 q 1078 392 1146 428 q 940 356 1011 356 l 940 356 q 838 379 886 356 q 758 451 789 403 q 726 572 726 500 l 726 572 q 790 737 726 667 q 967 857 853 807 q 1238 943 1082 907 q 1582 1006 1394 979 l 1582 1006 q 1653 1090 1621 1060 q 1725 1121 1686 1121 l 1725 1121 q 1760 1110 1747 1121 q 1774 1076 1774 1099 l 1774 1076 q 1747 1024 1774 1044 q 1681 992 1721 1004 q 1600 974 1640 981 l 1600 974 q 1510 791 1549 885 q 1440 599 1472 697 q 1370 399 1407 501 q 1283 190 1333 297 l 1283 190 q 1043 -192 1179 -31 q 742 -442 907 -354 q 385 -531 576 -531 z m 1625 1008 l 1625 1008 q 1701 1033 1682 1018 q 1721 1060 1721 1047 l 1721 1060 q 1704 1076 1721 1076 l 1704 1076 q 1667 1053 1689 1076 q 1625 1008 1646 1031 z "},"K":{"ha":1671,"x_min":36,"x_max":2318,"o":"m 1708 -257 l 1708 -257 q 1520 -197 1611 -257 q 1365 4 1429 -136 l 1365 4 q 1320 131 1338 67 q 1294 250 1303 194 q 1286 342 1286 306 l 1286 342 q 1296 392 1286 386 l 1296 392 q 1384 414 1322 389 q 1531 488 1446 439 q 1716 605 1617 536 q 1916 760 1815 674 q 2110 946 2017 846 q 2274 1156 2203 1046 l 2274 1156 q 2289 1178 2283 1171 q 2300 1185 2294 1185 l 2300 1185 q 2313 1178 2307 1185 q 2318 1165 2318 1172 l 2318 1165 q 2308 1139 2318 1154 l 2308 1139 q 2151 922 2242 1028 q 1957 722 2060 815 q 1750 554 1854 629 q 1551 429 1646 479 q 1385 361 1457 379 l 1385 361 q 1381 347 1381 364 l 1381 347 q 1390 272 1381 324 q 1420 153 1400 219 q 1469 19 1440 88 l 1469 19 q 1594 -151 1522 -104 q 1742 -197 1665 -197 l 1742 -197 q 1842 -178 1790 -197 q 1936 -124 1893 -158 q 2003 -44 1979 -90 l 2003 -44 q 2015 -31 2011 -31 l 2015 -31 q 2025 -42 2025 -31 l 2025 -42 q 2023 -51 2025 -46 q 2014 -71 2021 -56 l 2014 -71 q 1949 -153 1994 -110 q 1842 -227 1904 -197 q 1708 -257 1781 -257 z m 529 -239 l 529 -239 q 347 -213 435 -239 q 188 -137 258 -187 q 77 -15 118 -87 q 36 149 36 57 l 36 149 q 56 267 36 215 q 106 354 76 319 q 166 407 136 389 q 215 425 196 425 l 215 425 q 229 417 229 425 l 229 417 q 222 406 229 410 l 222 406 q 157 357 190 389 q 101 274 124 325 q 79 146 79 222 l 79 146 q 115 3 79 63 q 208 -93 150 -56 q 332 -148 265 -131 q 460 -165 399 -165 l 460 -165 q 714 -112 596 -165 q 930 28 832 -60 q 1103 225 1028 117 q 1226 444 1178 333 l 1226 444 q 1269 541 1244 485 q 1324 661 1294 597 q 1381 786 1353 725 q 1431 897 1408 847 q 1468 972 1454 946 l 1468 972 q 1267 952 1375 961 q 1063 915 1160 943 l 1063 915 q 885 826 954 885 q 784 700 817 768 q 751 572 751 632 l 751 572 q 788 453 751 500 q 892 407 824 407 l 892 407 q 983 437 943 407 q 1047 515 1024 467 q 1071 617 1071 563 l 1071 617 q 1067 654 1071 639 q 1063 678 1063 669 l 1063 678 q 1069 688 1063 688 l 1069 688 q 1088 671 1079 688 l 1088 671 q 1101 608 1101 639 l 1101 608 q 1069 491 1101 543 q 988 408 1038 439 q 882 378 938 378 l 882 378 q 769 409 817 378 q 694 492 721 440 q 668 603 668 543 l 668 603 q 706 741 668 671 q 826 869 743 811 q 1046 957 910 926 l 1046 957 q 1278 990 1160 982 q 1486 1006 1396 997 l 1486 1006 q 1565 1101 1535 1081 q 1621 1121 1596 1121 l 1621 1121 q 1660 1107 1646 1121 q 1675 1074 1675 1093 l 1675 1074 q 1637 1015 1675 1046 q 1508 974 1599 983 l 1508 974 q 1426 791 1464 892 q 1351 581 1389 690 q 1269 363 1314 471 l 1269 363 q 1092 47 1194 182 q 850 -164 989 -89 q 529 -239 711 -239 z m 1535 1008 l 1535 1008 q 1601 1028 1569 1011 q 1633 1067 1633 1046 l 1633 1067 q 1619 1081 1633 1081 l 1619 1081 q 1585 1065 1607 1081 q 1535 1008 1563 1049 z "},"L":{"ha":994,"x_min":-4,"x_max":1285,"o":"m 1110 -432 l 1110 -432 q 1092 -427 1096 -432 q 1088 -417 1088 -422 l 1088 -417 q 1136 -380 1113 -412 q 1160 -304 1160 -347 l 1160 -304 q 1115 -173 1160 -236 q 990 -57 1071 -110 q 802 34 910 -4 q 567 90 694 72 l 567 90 q 460 -33 519 24 q 330 -123 401 -89 q 175 -157 258 -157 l 175 -157 q 42 -117 88 -157 q -4 -24 -4 -76 l -4 -24 q 35 74 -4 25 q 156 156 75 124 q 363 189 238 189 l 363 189 q 557 172 458 189 l 557 172 q 619 294 592 233 q 668 410 647 356 l 668 410 q 451 452 531 415 q 339 544 372 489 q 306 658 306 600 l 306 658 q 350 798 306 732 q 471 906 394 864 q 642 947 547 947 l 642 947 q 656 939 653 947 q 658 925 658 931 l 658 925 q 556 901 606 925 q 468 838 507 878 q 406 750 429 799 q 383 650 383 701 l 383 650 q 410 552 383 600 q 500 472 436 504 q 679 438 564 440 l 679 438 q 701 497 692 469 q 717 543 710 524 l 717 543 q 788 742 750 643 q 876 921 826 840 q 993 1050 925 1001 q 1156 1099 1061 1099 l 1156 1099 q 1251 1064 1217 1099 q 1285 968 1285 1029 l 1285 968 q 1257 837 1285 908 q 1179 694 1229 765 q 1061 563 1129 624 q 913 461 993 501 q 743 411 832 421 l 743 411 q 690 299 722 367 q 614 161 658 232 l 614 161 q 842 86 735 133 q 1033 -22 950 39 q 1163 -151 1115 -82 q 1210 -287 1210 -219 l 1210 -287 q 1179 -390 1210 -349 q 1110 -432 1149 -432 z m 1156 1028 l 1156 1028 q 1043 976 1096 1028 q 942 838 990 924 q 849 649 894 753 q 757 442 803 544 l 757 442 q 910 492 839 453 q 1039 587 981 531 q 1139 707 1097 643 q 1203 833 1181 771 q 1225 943 1225 894 l 1225 943 q 1208 1005 1225 982 q 1156 1028 1192 1028 z m 31 -43 l 31 -43 q 68 -103 31 -78 q 175 -129 106 -129 l 175 -129 q 361 -63 278 -129 q 510 97 444 3 l 510 97 q 363 104 436 104 l 363 104 q 175 81 249 104 q 66 24 101 58 q 31 -43 31 -10 z "},"M":{"ha":1856,"x_min":25,"x_max":2029,"o":"m 1896 -160 l 1896 -160 q 1839 -149 1875 -157 q 1765 -119 1803 -142 q 1701 -52 1728 -97 q 1675 68 1675 -7 l 1675 68 q 1710 258 1675 154 q 1797 474 1746 361 q 1896 696 1849 586 l 1896 696 q 1933 829 1933 783 l 1933 829 q 1899 875 1933 875 l 1899 875 q 1783 813 1860 875 q 1604 626 1706 751 l 1604 626 q 1536 534 1578 593 q 1447 403 1494 475 q 1355 259 1400 332 q 1276 125 1310 186 q 1226 28 1242 64 l 1226 28 q 1185 -31 1208 -15 q 1140 -47 1161 -47 l 1140 -47 q 1110 -37 1122 -47 l 1110 -37 q 1096 -14 1096 -28 l 1096 -14 q 1100 0 1096 -6 l 1100 0 q 1142 76 1108 17 q 1219 235 1175 136 q 1304 464 1264 333 l 1304 464 q 1330 557 1317 504 q 1354 666 1343 610 q 1373 772 1365 722 q 1381 851 1381 821 l 1381 851 q 1364 923 1381 900 q 1319 946 1347 946 l 1319 946 q 1250 919 1289 946 q 1171 843 1211 893 l 1171 843 q 1049 681 1101 756 q 952 533 996 607 q 866 376 908 460 q 776 190 824 293 q 668 -50 729 86 l 668 -50 q 635 -82 658 -72 q 593 -92 613 -92 l 593 -92 q 561 -83 574 -92 q 553 -60 549 -75 l 553 -60 q 621 62 583 -11 q 697 224 658 135 q 772 408 736 313 q 837 596 808 504 q 882 768 865 688 q 899 906 899 849 l 899 906 q 853 1058 899 1013 q 738 1104 808 1104 l 738 1104 q 600 1074 675 1104 q 449 990 525 1043 q 307 871 374 938 l 307 871 q 156 663 211 775 q 101 435 101 550 l 101 435 q 131 303 101 357 q 208 221 160 249 q 314 193 256 193 l 314 193 q 426 223 374 193 q 517 301 478 253 q 579 402 557 349 q 601 503 601 456 l 601 503 q 579 569 601 543 q 508 596 557 596 l 508 596 q 497 595 503 596 q 483 594 490 594 l 483 594 l 479 594 q 461 598 469 594 q 453 607 453 601 l 453 607 q 467 619 453 613 q 521 626 482 626 l 521 626 q 615 590 583 626 q 646 496 646 553 l 646 496 q 617 382 646 440 q 540 274 589 324 q 431 193 492 224 q 307 163 371 163 l 307 163 q 167 197 232 163 q 64 298 103 232 q 25 456 25 364 l 25 456 q 61 628 25 543 q 155 790 97 714 q 278 924 213 865 l 278 924 q 431 1035 350 989 q 591 1108 511 1082 q 740 1133 671 1133 l 740 1133 q 910 1072 843 1133 q 978 875 978 1011 l 978 875 q 963 748 978 819 q 926 605 947 676 q 886 478 906 533 l 886 478 l 889 478 q 978 633 939 568 q 1058 753 1018 697 q 1149 869 1099 808 l 1149 869 q 1247 951 1192 921 q 1354 982 1303 982 l 1354 982 q 1432 951 1400 982 q 1464 847 1464 921 l 1464 847 q 1464 833 1464 839 q 1463 817 1464 828 l 1463 817 q 1410 555 1450 683 q 1326 296 1369 426 l 1326 296 q 1443 465 1369 363 q 1604 678 1517 568 l 1604 678 q 1803 878 1711 811 q 1954 944 1894 944 l 1954 944 q 2029 853 2029 944 l 2029 853 q 2016 769 2029 818 q 1975 667 2003 721 l 1975 667 q 1908 526 1944 606 q 1838 358 1871 446 q 1783 187 1804 271 q 1761 32 1761 103 l 1761 32 q 1797 -91 1761 -44 q 1919 -137 1832 -137 l 1919 -137 l 1928 -137 q 1949 -146 1949 -137 l 1949 -146 q 1935 -157 1949 -151 q 1896 -160 1921 -162 z "},"N":{"ha":1450,"x_min":-4,"x_max":1658,"o":"m 1390 -204 l 1390 -204 q 1237 -149 1286 -200 q 1188 -12 1188 -99 l 1188 -12 q 1215 126 1188 44 q 1285 301 1242 207 q 1376 490 1328 394 q 1467 672 1424 585 q 1537 829 1510 760 q 1564 938 1564 899 l 1564 938 q 1539 984 1564 969 q 1486 999 1514 999 l 1486 999 q 1383 972 1439 999 q 1269 901 1326 944 q 1159 806 1211 857 q 1068 708 1107 756 l 1068 708 q 933 521 997 622 q 815 315 869 419 q 716 115 761 210 q 636 -50 671 21 l 636 -50 q 603 -80 626 -69 q 560 -90 581 -90 l 560 -90 q 529 -83 542 -90 q 521 -60 517 -75 l 521 -60 q 589 55 550 -17 q 669 215 628 126 q 749 401 710 304 q 820 590 789 497 q 870 760 851 682 q 889 890 889 838 l 889 890 q 843 1028 889 988 q 724 1069 797 1069 l 724 1069 q 563 1034 650 1069 q 390 935 475 999 q 235 788 306 872 q 122 606 164 704 q 79 406 79 508 l 79 406 q 123 256 79 315 q 253 196 167 196 l 253 196 q 388 226 326 196 q 495 306 450 257 q 565 407 540 354 q 590 504 590 460 l 590 504 q 569 571 590 544 q 503 597 547 597 l 503 597 q 481 596 489 597 q 465 594 472 594 l 465 594 q 456 604 456 594 l 456 604 q 461 613 456 610 q 469 617 467 615 l 469 617 q 503 624 488 622 q 532 625 518 625 l 532 625 q 616 594 589 625 q 643 517 643 564 l 643 517 q 615 406 643 467 q 534 292 586 346 q 410 204 482 239 q 250 169 338 169 l 250 169 q 125 202 183 169 q 31 296 67 235 q -4 443 -4 357 l -4 443 q 35 624 -4 532 q 144 803 74 717 q 309 957 215 889 q 513 1065 403 1025 q 740 1104 622 1104 l 740 1104 q 854 1083 803 1104 q 937 1013 906 1061 q 968 882 968 964 l 968 882 q 956 794 968 844 q 926 688 944 743 q 887 580 907 632 q 848 488 867 528 q 819 428 829 447 l 819 428 q 882 524 844 469 q 961 635 919 579 q 1040 738 1003 692 l 1040 738 q 1139 847 1085 790 q 1255 953 1193 904 q 1384 1033 1317 1003 q 1521 1064 1451 1064 l 1521 1064 q 1617 1035 1576 1064 q 1658 932 1658 1007 l 1658 932 q 1630 799 1658 872 q 1557 643 1601 726 q 1463 472 1513 560 q 1369 295 1414 385 q 1297 119 1325 206 q 1268 -46 1268 33 l 1268 -46 q 1290 -135 1268 -103 q 1354 -168 1313 -168 l 1354 -168 q 1422 -150 1385 -168 l 1422 -150 q 1445 -141 1435 -143 q 1461 -139 1456 -139 l 1461 -139 q 1482 -154 1482 -139 l 1482 -154 q 1457 -187 1482 -169 q 1390 -204 1432 -206 z "},"O":{"ha":1014,"x_min":69,"x_max":1267,"o":"m 439 -85 l 439 -85 q 217 3 297 -85 q 138 251 138 90 l 138 251 q 179 461 138 353 l 179 461 q 95 552 121 501 q 69 675 69 603 l 69 675 q 113 846 69 771 q 231 974 157 921 q 396 1056 304 1028 q 582 1083 488 1083 l 582 1083 q 763 1055 675 1083 q 919 967 850 1026 q 1026 818 988 908 q 1058 603 1064 728 l 1058 603 q 1172 691 1124 643 q 1242 779 1219 739 l 1242 779 q 1256 792 1249 792 l 1256 792 q 1265 781 1263 792 q 1257 754 1267 769 l 1257 754 q 1172 647 1222 700 q 1053 553 1121 594 l 1053 553 q 1044 484 1051 522 q 1022 404 1036 446 l 1022 404 q 938 233 996 319 q 801 75 881 147 q 629 -41 722 3 q 439 -85 536 -85 z m 485 431 l 485 431 q 731 465 601 431 q 975 558 861 499 l 975 558 q 978 594 978 576 q 978 628 978 611 l 978 628 q 928 864 978 769 q 792 1006 879 958 q 588 1053 704 1053 l 588 1053 q 417 1025 497 1053 q 276 947 338 997 q 179 829 214 897 q 144 679 144 761 l 144 679 q 155 598 144 642 q 204 519 165 554 l 204 519 q 257 613 224 561 q 334 719 290 665 q 428 817 378 772 q 534 888 479 861 q 644 915 589 915 l 644 915 q 692 910 668 915 q 739 890 717 904 l 739 890 q 750 878 750 883 l 750 878 q 744 871 750 874 q 728 871 738 868 l 728 871 q 688 876 710 876 l 688 876 q 586 847 638 876 q 486 769 535 817 q 396 666 438 721 q 323 559 354 611 q 275 471 292 507 l 275 471 q 485 431 360 431 z m 450 -51 l 450 -51 q 602 -12 528 -51 q 742 93 676 26 q 860 242 808 160 q 942 410 911 324 l 942 410 q 957 459 950 433 q 965 508 964 485 l 965 508 q 725 417 853 449 q 481 385 597 385 l 481 385 q 256 422 351 385 l 256 422 q 213 207 213 313 l 213 207 q 280 13 213 78 q 450 -51 347 -51 z "},"P":{"ha":1285,"x_min":6,"x_max":1535,"o":"m 235 -54 l 235 -54 q 175 -50 204 -54 l 175 -50 q 47 1 88 -39 q 6 89 6 42 l 6 89 q 52 182 6 140 q 183 224 99 224 l 183 224 q 240 219 210 224 q 303 203 269 214 l 303 203 q 319 188 319 197 l 319 188 q 311 182 319 182 l 311 182 q 297 185 303 182 l 297 185 q 255 197 275 193 q 217 200 235 200 l 217 200 q 126 166 157 200 q 94 92 94 132 l 94 92 q 126 21 94 53 q 228 -11 158 -11 l 228 -11 q 390 29 315 -11 q 531 135 464 69 l 531 135 q 660 302 601 204 q 776 512 718 400 q 901 738 833 624 q 1058 951 969 851 l 1058 951 q 1095 992 1076 971 q 1132 1029 1114 1014 l 1132 1029 q 1035 1040 1085 1036 q 936 1043 985 1043 l 936 1043 q 799 1037 864 1043 q 671 1019 735 1031 l 671 1019 q 525 981 606 1007 q 369 912 444 954 q 240 810 293 869 q 174 672 186 750 l 174 672 q 172 658 172 665 q 171 643 171 650 l 171 643 q 215 538 171 579 q 317 496 258 496 l 317 496 q 400 519 360 496 q 472 580 440 542 q 519 664 504 618 l 519 664 q 531 678 521 678 l 531 678 q 539 663 539 678 l 539 663 q 503 557 538 601 q 418 490 469 513 q 314 467 367 467 l 314 467 q 211 490 260 467 q 132 558 163 513 q 101 669 101 603 l 101 669 q 140 807 101 747 q 242 912 178 867 q 381 988 306 957 q 531 1038 456 1019 q 667 1067 606 1057 l 667 1067 q 797 1082 729 1076 q 933 1088 864 1088 l 933 1088 q 1053 1082 993 1088 q 1169 1065 1113 1076 l 1169 1065 q 1218 1097 1193 1083 q 1274 1122 1243 1111 l 1274 1122 q 1303 1131 1293 1131 l 1303 1131 q 1311 1125 1311 1131 l 1311 1125 q 1289 1101 1311 1115 l 1289 1101 q 1261 1082 1278 1096 q 1225 1050 1244 1068 l 1225 1050 q 1388 983 1315 1028 l 1388 983 q 1501 883 1467 936 q 1535 775 1535 831 l 1535 775 q 1496 648 1535 711 q 1394 531 1457 585 q 1257 437 1332 476 q 1108 379 1182 397 l 1108 379 q 965 353 1038 361 q 836 344 893 344 l 836 344 q 816 344 826 344 q 796 346 806 344 l 796 346 q 699 216 749 279 q 586 93 649 153 l 586 93 q 419 -17 510 21 q 235 -54 329 -54 z m 815 376 l 815 376 q 933 385 868 375 q 1064 414 999 394 l 1064 414 q 1259 510 1172 447 q 1397 649 1346 572 q 1447 799 1447 725 l 1447 799 q 1426 883 1447 843 q 1356 956 1404 924 l 1356 956 q 1283 992 1324 976 q 1199 1017 1243 1007 l 1199 1017 q 1066 808 1128 917 q 944 590 1004 700 q 815 376 883 481 z "},"Q":{"ha":1050,"x_min":40,"x_max":1171,"o":"m 439 -87 l 439 -87 q 278 -45 353 -87 q 165 94 204 -3 l 165 94 q 141 178 149 135 q 133 265 133 222 l 133 265 q 163 452 133 358 q 245 629 193 546 q 362 777 297 713 q 498 879 426 842 q 638 917 569 917 l 638 917 q 739 890 692 917 l 739 890 q 750 878 750 883 l 750 878 q 743 871 750 874 q 728 871 736 868 l 728 871 q 686 876 711 876 l 686 876 q 561 836 626 876 q 434 727 496 796 q 322 572 372 658 q 242 394 272 486 q 213 214 213 301 l 213 214 q 225 113 213 161 l 225 113 q 308 -19 251 21 q 436 -60 364 -60 l 436 -60 q 568 -32 499 -60 q 701 44 638 -4 l 701 44 q 869 213 803 121 q 967 405 935 306 q 1000 600 1000 504 l 1000 600 q 970 774 1000 692 q 881 921 940 857 q 735 1022 822 985 q 536 1058 649 1058 l 536 1058 q 490 1056 514 1058 q 442 1051 467 1054 l 442 1051 q 238 950 307 1033 q 168 743 168 867 l 168 743 q 172 688 168 717 q 182 631 175 660 l 182 631 q 183 618 183 626 l 183 618 q 172 601 183 601 l 172 601 q 149 624 161 601 l 149 624 q 124 690 132 657 q 117 756 117 724 l 117 756 q 158 905 117 836 q 272 1021 200 974 q 436 1083 344 1068 l 436 1083 q 522 1094 481 1090 q 600 1099 563 1099 l 600 1099 q 870 1038 765 1099 q 1025 876 975 978 q 1075 654 1075 775 l 1075 654 q 1030 411 1075 535 q 902 180 985 288 q 707 -3 819 72 l 707 -3 q 575 -65 646 -43 q 439 -87 504 -87 z m 929 -515 l 929 -515 q 716 -487 807 -515 q 558 -415 625 -460 q 438 -322 490 -371 q 340 -228 386 -272 q 248 -156 294 -183 q 144 -128 201 -128 l 144 -128 q 112 -135 131 -128 q 78 -156 93 -142 q 64 -193 64 -169 l 64 -193 q 60 -206 64 -203 q 53 -210 56 -210 l 53 -210 q 40 -189 40 -210 l 40 -189 q 74 -116 40 -146 q 154 -86 107 -86 l 154 -86 q 291 -118 229 -86 q 413 -199 353 -150 q 546 -301 474 -249 l 546 -301 q 688 -390 611 -349 q 845 -456 765 -431 q 996 -481 925 -481 l 996 -481 q 1061 -472 1031 -481 q 1112 -442 1092 -464 q 1132 -381 1132 -419 l 1132 -381 q 1105 -298 1132 -340 q 1026 -223 1078 -256 q 903 -179 975 -190 l 903 -179 q 886 -171 892 -176 q 881 -160 881 -165 l 881 -160 q 899 -150 881 -149 l 899 -150 q 1047 -199 986 -164 q 1139 -280 1107 -235 q 1171 -369 1171 -325 l 1171 -369 q 1113 -472 1171 -428 q 929 -515 1054 -515 z "},"R":{"ha":1428,"x_min":26,"x_max":1551,"o":"m 1242 -58 l 1242 -58 q 1165 -40 1203 -58 q 1093 13 1126 -22 l 1093 13 q 1009 133 1044 63 q 949 277 974 203 q 910 413 924 351 q 890 508 896 475 l 890 508 q 784 313 839 410 q 644 124 729 217 l 644 124 q 468 -9 564 36 q 269 -54 372 -54 l 269 -54 q 204 -50 238 -54 l 204 -50 q 69 3 113 -39 q 26 92 26 44 l 26 92 q 72 185 26 143 q 203 226 118 226 l 203 226 q 263 221 231 226 q 329 203 294 215 l 329 203 q 344 190 344 197 l 344 190 q 333 185 344 185 l 333 185 q 322 186 326 185 l 322 186 q 240 203 276 203 l 240 203 q 151 169 182 203 q 121 94 121 135 l 121 94 q 154 22 121 56 q 257 -11 188 -11 l 257 -11 q 418 30 344 -11 q 556 142 492 71 q 678 305 619 214 q 792 494 736 396 l 792 494 q 960 795 885 660 q 1121 1025 1036 931 l 1121 1025 q 1044 1031 1083 1029 q 965 1032 1006 1032 l 965 1032 q 784 1023 878 1032 q 603 994 690 1014 l 603 994 q 400 920 485 969 q 266 810 315 871 q 204 689 217 750 l 204 689 q 200 646 200 667 l 200 646 q 247 536 200 575 q 356 497 294 497 l 356 497 q 434 513 394 497 q 506 564 474 529 l 506 564 q 544 616 532 592 q 558 653 557 640 l 558 653 q 567 672 560 672 l 567 672 q 574 665 571 672 q 576 651 578 658 l 576 651 q 557 589 571 619 q 524 538 543 558 l 524 538 q 435 478 485 497 q 339 458 385 458 l 339 458 q 237 482 285 458 q 160 551 189 506 q 131 663 131 596 l 131 663 q 185 822 131 740 q 348 965 239 903 q 619 1051 457 1028 l 619 1051 q 778 1069 701 1063 q 928 1075 856 1075 l 928 1075 q 1042 1071 986 1075 q 1151 1060 1097 1067 l 1151 1060 q 1200 1097 1188 1097 l 1200 1097 q 1210 1082 1210 1097 l 1210 1082 q 1208 1068 1210 1076 q 1204 1051 1207 1060 l 1204 1051 q 1277 1040 1242 1046 q 1340 1025 1313 1033 l 1340 1025 q 1501 945 1450 994 q 1551 839 1551 896 l 1551 839 q 1497 717 1551 778 q 1342 608 1442 656 q 1110 539 1243 561 l 1110 539 q 1034 529 1067 532 q 978 525 1001 526 l 978 525 q 990 467 981 511 q 1018 362 1000 422 q 1065 235 1036 301 q 1133 108 1093 168 l 1133 108 q 1199 31 1165 61 q 1269 0 1232 0 l 1269 0 q 1319 13 1293 0 q 1372 53 1344 25 l 1372 53 q 1433 128 1406 86 q 1481 208 1461 169 q 1510 268 1500 246 l 1510 268 q 1522 267 1518 268 q 1526 256 1526 265 l 1526 256 q 1507 212 1521 242 q 1474 145 1493 182 q 1433 72 1456 108 q 1389 11 1411 36 l 1389 11 q 1317 -41 1357 -24 q 1242 -58 1278 -58 z m 919 563 l 919 563 q 1006 572 960 569 q 1096 581 1051 575 l 1096 581 q 1232 619 1168 590 q 1345 688 1296 647 q 1422 773 1394 728 q 1450 860 1450 818 l 1450 860 q 1324 990 1450 954 l 1324 990 q 1259 1004 1299 997 q 1188 1017 1219 1011 l 1188 1017 q 1051 793 1121 903 q 919 563 981 683 z "},"S":{"ha":1286,"x_min":63,"x_max":1376,"o":"m 574 -128 l 574 -128 q 324 -87 438 -128 q 142 31 211 -47 q 65 225 72 110 l 65 225 q 81 329 63 272 q 131 442 99 386 q 209 544 164 499 q 306 613 254 589 l 306 613 q 319 617 310 615 q 332 618 328 618 l 332 618 q 340 614 340 618 l 340 614 q 319 592 340 607 l 319 592 q 224 486 261 546 l 224 486 q 165 358 185 426 q 146 221 146 290 l 146 221 q 181 80 146 139 q 276 -17 217 21 q 413 -74 336 -56 q 572 -92 489 -92 l 572 -92 q 756 -71 665 -92 q 922 -11 847 -50 l 922 -11 q 1105 140 1038 50 q 1172 319 1172 231 l 1172 319 q 1152 410 1172 367 q 1088 488 1132 453 l 1088 488 q 1006 538 1054 514 q 905 583 958 561 q 800 628 851 606 q 710 678 749 651 l 710 678 q 628 758 654 715 q 603 844 603 801 l 603 844 q 633 944 603 896 q 715 1033 663 993 q 832 1094 767 1072 l 832 1094 q 956 1125 889 1114 q 1089 1136 1024 1136 l 1089 1136 q 1192 1128 1143 1136 q 1279 1101 1242 1121 l 1279 1101 q 1351 1042 1326 1079 q 1376 965 1376 1006 l 1376 965 q 1326 868 1376 910 l 1326 868 q 1286 842 1308 854 q 1233 822 1264 831 l 1233 822 q 1221 821 1228 821 l 1221 821 q 1204 831 1204 821 l 1204 831 q 1213 842 1204 836 q 1240 850 1222 849 l 1240 850 q 1303 882 1282 856 q 1325 943 1325 908 l 1325 943 q 1301 1015 1325 979 q 1226 1074 1276 1050 q 1099 1099 1176 1099 l 1099 1099 q 1001 1089 1054 1099 q 885 1057 947 1079 l 885 1057 q 758 979 808 1031 q 707 869 707 928 l 707 869 q 731 797 707 833 q 810 726 756 760 l 810 726 q 914 672 856 699 q 1032 617 972 644 q 1140 560 1092 590 l 1140 560 q 1250 458 1217 513 q 1283 347 1283 404 l 1283 347 q 1244 213 1283 281 q 1140 87 1204 146 q 1000 -18 1076 28 l 1000 -18 q 799 -99 911 -71 q 574 -128 688 -128 z "},"T":{"ha":1296,"x_min":36,"x_max":1968,"o":"m 539 -97 l 539 -97 q 790 -38 676 -97 q 997 123 904 21 q 1158 351 1089 225 l 1158 351 q 1242 515 1203 432 q 1314 673 1281 599 q 1374 801 1347 747 q 1418 879 1400 856 l 1418 879 q 1242 928 1342 907 q 994 958 1143 950 l 994 958 q 809 935 890 964 q 672 856 728 906 q 585 749 615 807 q 556 636 556 690 l 556 636 q 579 552 556 585 q 641 504 603 519 q 719 489 679 489 l 719 489 q 807 510 769 489 q 870 560 844 531 q 909 617 896 590 q 922 657 922 644 l 922 657 l 922 658 q 936 667 929 667 l 936 667 q 950 647 950 667 l 950 647 q 908 543 943 588 q 822 475 872 499 q 717 451 772 451 l 717 451 q 607 479 660 451 q 521 560 554 507 q 488 688 488 613 l 488 688 q 515 809 488 749 q 597 920 542 869 q 736 1001 651 971 q 936 1032 821 1032 l 936 1032 q 1123 1013 1039 1032 q 1284 965 1207 993 q 1440 908 1361 936 l 1440 908 q 1492 960 1463 936 q 1553 985 1522 985 l 1553 985 q 1581 968 1581 985 l 1581 968 q 1561 951 1581 951 l 1561 951 q 1518 934 1540 951 q 1479 896 1496 917 l 1479 896 q 1667 841 1578 864 q 1822 818 1757 818 l 1822 818 q 1912 828 1885 818 q 1939 860 1939 838 l 1939 860 q 1942 874 1939 868 q 1956 881 1946 881 l 1956 881 q 1965 869 1963 881 q 1968 850 1968 857 l 1968 850 q 1933 796 1968 817 q 1844 775 1897 775 l 1844 775 q 1734 788 1799 775 q 1597 820 1669 800 q 1457 865 1525 840 l 1457 865 q 1370 695 1406 782 q 1305 521 1335 608 q 1242 349 1275 433 l 1242 349 q 1076 73 1174 179 q 847 -83 979 -33 q 539 -132 714 -132 l 539 -132 q 267 -85 379 -132 q 95 44 154 -37 q 36 225 36 125 l 36 225 q 65 382 36 311 q 144 500 93 453 q 260 563 194 547 l 260 563 q 269 556 269 563 l 269 556 q 263 544 269 549 l 263 544 q 152 423 190 501 q 114 258 114 344 l 114 258 q 172 65 114 144 q 326 -56 229 -14 q 539 -97 422 -97 z "},"U":{"ha":1315,"x_min":-6,"x_max":1403,"o":"m 1253 -110 l 1253 -110 q 1192 -74 1214 -103 q 1160 -3 1169 -46 q 1151 85 1151 39 l 1151 85 q 1158 178 1151 132 q 1171 258 1164 224 l 1171 258 q 1131 198 1150 225 q 1085 135 1113 171 l 1085 135 q 937 -8 1010 39 q 803 -54 864 -54 l 803 -54 q 708 -12 746 -54 q 671 111 671 31 l 671 111 q 692 241 671 169 q 744 390 713 313 q 810 545 775 468 q 875 693 846 622 q 919 822 904 764 l 919 822 q 937 906 931 865 q 943 986 943 947 l 943 986 q 931 1070 943 1035 q 890 1122 918 1106 l 890 1122 q 822 1150 860 1142 q 744 1158 785 1158 l 744 1158 q 585 1132 668 1158 q 424 1060 503 1106 l 424 1060 q 211 889 293 983 q 91 697 129 794 q 53 511 53 599 l 53 511 q 81 371 53 433 q 160 272 108 308 q 281 236 211 236 l 281 236 q 390 258 333 236 l 390 258 q 474 311 435 275 q 542 393 513 347 q 590 488 572 439 q 607 578 607 536 l 607 578 q 585 649 607 621 q 511 676 563 676 l 511 676 q 488 675 500 676 q 461 671 475 674 l 461 671 q 444 667 451 669 q 432 665 436 665 l 432 665 q 425 669 425 665 l 425 669 q 438 684 425 675 q 456 694 450 693 l 456 694 q 502 710 481 706 q 542 714 524 714 l 542 714 q 622 678 596 714 q 647 586 647 642 l 647 586 q 618 456 647 526 q 531 325 589 386 q 389 228 474 264 l 389 228 q 257 199 321 199 l 257 199 q 119 240 179 199 q 27 351 60 281 q -6 510 -6 422 l -6 510 q 40 715 -6 608 q 180 922 85 821 q 426 1106 275 1022 l 426 1106 q 588 1174 510 1151 q 736 1196 667 1196 l 736 1196 q 812 1189 774 1196 q 883 1167 850 1182 l 883 1167 q 987 1075 957 1136 q 1017 940 1017 1014 l 1017 940 q 1001 815 1017 883 l 1001 815 q 958 679 988 751 q 892 531 928 607 q 824 378 857 454 q 771 231 792 301 q 750 99 750 160 l 750 99 q 772 12 750 42 q 828 -18 793 -18 l 828 -18 q 934 29 872 -18 q 1064 174 996 76 l 1064 174 q 1153 322 1111 242 q 1233 478 1196 403 q 1299 608 1269 554 l 1299 608 q 1341 665 1322 649 q 1378 682 1360 682 l 1378 682 q 1397 668 1392 682 q 1403 640 1403 654 l 1403 640 q 1390 589 1403 618 q 1358 528 1376 560 q 1326 465 1340 497 l 1326 465 q 1288 374 1313 436 q 1243 240 1263 313 l 1243 240 q 1219 128 1229 185 q 1208 25 1208 71 l 1208 25 q 1220 -49 1208 -21 q 1258 -78 1232 -78 l 1258 -78 l 1274 -78 q 1300 -89 1300 -78 l 1300 -89 q 1286 -105 1300 -97 q 1253 -110 1272 -112 z "},"V":{"ha":1361,"x_min":-6,"x_max":1467,"o":"m 1038 915 l 1038 915 q 1017 785 1038 863 q 965 617 997 708 q 896 432 932 526 q 827 249 860 338 q 774 90 794 161 q 754 -25 754 18 l 754 -25 q 797 -90 754 -90 l 797 -90 q 899 -52 839 -90 q 1026 51 958 -14 q 1158 198 1093 115 q 1277 369 1224 281 q 1363 545 1331 458 q 1394 704 1394 632 l 1394 704 q 1381 792 1394 753 q 1326 831 1368 831 l 1326 831 q 1298 838 1308 831 q 1288 853 1288 846 l 1288 853 q 1311 867 1288 867 l 1311 867 q 1353 855 1328 867 q 1405 819 1379 843 q 1449 757 1431 794 q 1467 668 1467 719 l 1467 668 q 1433 520 1467 604 q 1341 347 1399 436 q 1210 172 1283 257 q 1058 17 1138 86 q 903 -92 979 -51 q 764 -133 828 -133 l 764 -133 q 692 -100 710 -133 q 674 -12 674 -67 l 674 -12 q 702 172 674 72 q 773 380 731 272 q 858 594 815 488 q 928 800 900 701 q 957 982 957 899 l 957 982 q 903 1110 957 1076 q 764 1143 850 1143 l 764 1143 q 584 1111 679 1143 q 398 1021 489 1079 q 233 881 307 963 q 116 701 160 800 q 72 488 72 601 l 72 488 q 95 363 72 421 q 169 270 118 306 q 304 235 221 235 l 304 235 q 424 261 367 235 q 526 333 482 288 q 597 433 571 378 q 624 547 624 489 l 624 547 q 604 630 624 594 q 539 665 585 665 l 539 665 q 501 660 521 665 q 475 654 482 654 l 475 654 q 468 663 468 654 l 468 663 q 471 669 468 665 q 481 678 474 674 l 481 678 q 518 691 496 686 q 557 696 540 696 l 557 696 q 651 653 618 696 q 685 549 685 610 l 685 549 q 650 419 685 482 q 558 307 615 357 q 428 228 500 257 q 282 199 357 199 l 282 199 q 124 244 189 199 q 27 365 60 290 q -6 524 -6 439 l -6 524 q 38 733 -6 633 q 158 913 82 832 q 332 1054 235 994 q 537 1147 429 1114 q 751 1179 644 1179 l 751 1179 q 897 1153 832 1179 q 999 1069 961 1126 q 1038 915 1038 1011 z "},"W":{"ha":1876,"x_min":-24,"x_max":1928,"o":"m 719 -174 l 719 -174 q 651 -143 678 -174 q 629 -28 624 -112 l 629 -28 q 683 197 635 60 q 810 521 732 335 l 810 521 q 860 654 835 581 q 904 802 886 728 q 922 936 922 876 l 922 936 q 912 1009 922 978 q 875 1056 901 1040 l 875 1056 q 810 1083 844 1075 q 736 1092 775 1092 l 736 1092 q 552 1051 649 1092 q 366 941 456 1011 q 206 782 276 871 q 100 597 136 693 l 100 597 q 69 490 79 540 q 60 400 60 440 l 60 400 q 88 273 60 324 q 163 198 117 222 q 264 174 210 174 l 264 174 q 361 192 315 174 l 361 192 q 468 267 421 214 q 543 384 515 319 q 571 503 571 449 l 571 503 q 547 582 571 550 q 467 614 522 614 l 467 614 q 451 614 458 614 q 433 611 443 614 l 433 611 q 424 610 428 610 q 417 610 419 610 l 417 610 q 404 615 404 610 l 404 615 q 431 633 404 624 l 431 633 q 511 647 474 647 l 511 647 q 608 609 576 647 q 640 513 640 571 l 640 513 q 608 387 640 454 q 515 258 576 319 q 360 158 453 197 l 360 158 q 257 138 310 138 l 257 138 q 121 175 185 138 q 17 282 57 213 q -24 446 -24 351 l -24 446 q -12 542 -24 492 q 22 647 -1 592 l 22 647 q 147 842 68 754 q 324 995 226 931 q 525 1094 422 1060 q 721 1129 628 1129 l 721 1129 q 869 1100 803 1129 l 869 1100 q 973 1009 943 1068 q 1003 876 1003 950 l 1003 876 q 976 705 1003 796 q 910 526 949 614 l 910 526 q 825 321 867 428 q 753 118 783 214 q 710 -42 722 22 l 710 -42 q 706 -69 707 -57 q 704 -89 704 -81 l 704 -89 q 736 -137 704 -137 l 736 -137 q 782 -121 756 -137 l 782 -121 q 886 -29 833 -90 q 991 110 939 32 q 1092 272 1043 189 q 1185 428 1140 354 q 1265 553 1229 501 l 1265 553 q 1307 598 1288 583 q 1340 613 1326 613 l 1340 613 q 1369 568 1369 613 l 1369 568 q 1357 504 1369 542 l 1357 504 q 1308 384 1339 451 q 1251 248 1278 317 q 1217 119 1225 179 l 1217 119 q 1215 92 1215 104 q 1214 68 1214 81 l 1214 68 q 1243 -35 1214 -4 q 1319 -67 1272 -67 l 1319 -67 q 1442 -32 1374 -67 q 1581 60 1511 3 q 1706 188 1650 118 q 1792 326 1763 257 l 1792 326 q 1840 475 1824 403 q 1857 607 1857 547 l 1857 607 q 1815 763 1857 703 q 1685 824 1774 824 l 1685 824 q 1669 823 1678 824 q 1651 821 1661 822 l 1651 821 q 1603 813 1618 813 l 1603 813 q 1585 821 1585 813 l 1585 821 q 1613 846 1585 832 q 1671 854 1640 860 l 1671 854 q 1797 824 1738 860 q 1892 719 1856 789 q 1928 549 1928 649 l 1928 549 q 1917 438 1928 497 q 1879 313 1906 378 l 1879 313 q 1782 150 1844 225 q 1642 18 1719 75 q 1485 -70 1565 -39 q 1336 -101 1406 -101 l 1336 -101 q 1203 -52 1257 -101 q 1150 107 1150 -3 l 1150 107 q 1158 200 1150 153 q 1178 283 1167 247 l 1178 283 q 1115 187 1154 244 q 1027 67 1076 129 q 925 -51 978 4 q 819 -140 872 -106 q 719 -174 767 -174 z "},"X":{"ha":1099,"x_min":-169,"x_max":1561,"o":"m -153 -314 l -153 -314 q -169 -296 -169 -314 l -169 -296 q -143 -236 -169 -272 l -143 -236 q 103 56 -33 -83 q 391 319 240 194 q 694 551 542 443 l 694 551 l 694 618 q 690 788 694 721 q 674 901 685 856 l 674 901 q 621 993 660 967 q 531 1019 582 1019 l 531 1019 q 461 1010 497 1019 q 389 983 425 1000 l 389 983 q 276 903 331 957 q 174 800 222 849 l 174 800 q 167 799 172 799 l 167 799 q 150 803 160 799 q 140 819 140 808 l 140 819 q 151 844 140 829 l 151 844 q 185 878 156 851 q 263 940 215 906 q 368 1008 310 975 q 488 1064 426 1042 q 606 1086 549 1086 l 606 1086 q 674 1075 642 1086 q 733 1039 707 1064 l 733 1039 q 771 956 757 1018 q 790 808 785 894 q 794 624 796 721 l 794 624 q 1053 801 933 722 q 1268 947 1172 879 q 1429 1079 1364 1015 l 1429 1079 q 1503 1138 1469 1118 q 1550 1157 1536 1157 l 1550 1157 q 1561 1147 1561 1157 l 1561 1147 q 1548 1120 1561 1139 q 1506 1072 1535 1101 l 1506 1072 q 1349 949 1454 1022 q 1103 782 1244 876 q 797 569 961 688 l 797 569 q 795 473 796 522 q 794 376 794 424 l 794 376 q 799 205 794 283 q 814 83 803 126 l 814 83 q 860 -8 831 21 q 924 -36 889 -36 l 924 -36 q 1058 45 989 -36 q 1181 268 1128 126 l 1181 268 q 1197 256 1197 268 l 1197 256 q 1086 39 1147 124 q 962 -85 1025 -46 q 844 -125 899 -125 l 844 -125 q 755 -87 793 -125 q 701 21 717 -50 l 701 21 q 693 92 696 47 q 690 206 690 138 l 690 206 q 692 344 690 269 q 696 497 694 418 l 696 497 q 408 275 549 392 q 147 31 268 158 q -65 -236 25 -96 l -65 -236 q -115 -297 -93 -279 q -153 -314 -137 -314 z "},"Y":{"ha":1338,"x_min":28,"x_max":1567,"o":"m 517 -556 l 517 -556 q 359 -519 419 -556 q 299 -432 299 -483 l 299 -432 q 338 -350 299 -394 q 467 -269 378 -306 l 467 -269 q 756 -197 603 -212 q 1071 -181 908 -181 l 1071 -181 q 1148 -21 1114 -111 q 1210 168 1182 69 q 1260 360 1238 267 l 1260 360 q 1193 231 1235 303 q 1097 91 1151 158 q 978 -21 1043 24 l 978 -21 q 811 -75 897 -75 l 811 -75 q 701 -37 747 -75 q 656 81 656 0 l 656 81 q 656 99 656 89 q 658 118 657 108 l 658 118 q 703 268 669 188 q 781 427 738 349 q 863 568 825 506 l 863 568 q 940 715 907 640 q 992 860 974 790 q 1010 982 1010 929 l 1010 982 q 998 1053 1010 1022 q 960 1101 986 1085 l 960 1101 q 815 1140 899 1140 l 815 1140 q 628 1100 726 1140 q 435 991 529 1060 q 268 835 342 922 q 154 653 194 747 l 154 653 q 117 542 129 593 q 106 447 106 490 l 106 447 q 135 323 106 372 q 211 249 164 274 q 313 224 258 224 l 313 224 q 401 239 357 224 l 401 239 q 492 294 450 256 q 567 382 535 333 q 618 481 600 431 q 636 571 636 531 l 636 571 q 616 637 636 611 q 550 663 596 663 l 550 663 q 514 658 533 663 l 514 658 q 504 657 508 657 q 497 657 500 657 l 497 657 q 485 663 485 657 l 485 663 q 493 672 485 665 q 511 679 501 678 l 511 679 q 579 689 551 689 l 579 689 q 663 657 636 689 q 689 575 689 625 l 689 575 q 653 445 689 517 q 553 309 618 374 q 396 207 488 244 l 396 207 q 293 186 346 186 l 293 186 q 163 222 224 186 q 65 322 103 257 q 28 476 28 388 l 28 476 q 42 583 28 531 q 82 690 56 635 l 82 690 q 218 885 133 797 q 405 1039 303 974 q 613 1140 507 1104 q 811 1175 718 1175 l 811 1175 q 888 1169 851 1175 q 954 1147 924 1163 l 954 1147 q 1058 1058 1028 1115 q 1089 929 1089 1000 l 1089 929 q 1057 760 1089 850 q 975 586 1025 671 l 975 586 q 883 421 928 507 q 804 254 838 335 q 757 110 771 174 l 757 110 q 753 82 754 96 q 751 57 751 68 l 751 57 q 775 -14 751 8 q 835 -36 799 -36 l 835 -36 q 958 10 893 -36 l 958 10 q 1058 106 1010 46 q 1147 237 1106 165 q 1222 381 1189 308 q 1279 518 1256 454 q 1315 625 1303 582 l 1315 625 q 1336 654 1318 638 q 1371 671 1354 671 l 1371 671 q 1391 660 1382 671 q 1400 621 1400 649 l 1400 621 q 1388 536 1400 593 l 1388 536 q 1342 360 1369 456 q 1282 165 1315 264 q 1212 -24 1249 65 q 1138 -179 1175 -112 l 1138 -179 q 1230 -178 1176 -179 q 1339 -169 1283 -176 q 1442 -147 1394 -162 q 1518 -106 1489 -132 q 1547 -39 1547 -79 l 1547 -39 l 1547 -31 q 1551 -18 1547 -18 l 1551 -18 q 1564 -40 1557 -18 l 1564 -40 q 1566 -49 1565 -44 q 1567 -58 1567 -53 l 1567 -58 q 1542 -124 1567 -87 q 1461 -185 1518 -161 l 1461 -185 q 1316 -210 1410 -206 q 1115 -215 1222 -214 l 1115 -215 q 941 -397 1046 -321 q 729 -514 836 -474 l 729 -514 q 617 -546 671 -536 q 517 -556 564 -556 z m 526 -517 l 526 -517 q 614 -508 567 -517 q 707 -483 661 -500 l 707 -483 q 895 -383 801 -449 q 1053 -215 989 -317 l 1053 -215 q 861 -224 958 -215 q 671 -258 764 -233 q 494 -331 578 -282 l 494 -331 q 405 -396 432 -365 q 378 -450 378 -426 l 378 -450 q 420 -499 378 -481 q 526 -517 463 -517 z "},"Z":{"ha":946,"x_min":15,"x_max":1503,"o":"m 167 -56 l 167 -56 q 99 -42 135 -56 q 40 2 64 -28 q 15 76 15 32 l 15 76 q 52 163 15 131 q 149 194 89 194 l 149 194 q 273 163 206 194 q 415 83 340 132 l 415 83 q 504 181 457 125 q 600 297 551 236 q 694 415 649 357 q 778 519 739 472 l 778 519 q 1003 770 901 669 q 1183 935 1106 871 l 1183 935 q 989 976 1099 958 q 739 993 879 993 l 739 993 q 573 967 643 993 q 465 900 503 940 q 426 817 426 860 l 426 817 q 451 757 426 778 q 493 724 475 736 l 493 724 q 510 707 510 714 l 510 707 q 493 697 510 697 l 493 697 q 438 719 464 697 q 396 776 413 742 q 379 846 379 810 l 379 846 q 426 967 379 917 q 550 1042 474 1017 q 714 1068 626 1068 l 714 1068 q 889 1049 801 1068 q 1058 1003 976 1029 q 1210 956 1140 978 l 1210 956 q 1265 998 1233 974 q 1337 1041 1297 1022 q 1421 1060 1376 1060 l 1421 1060 q 1481 1041 1458 1060 q 1503 994 1503 1022 l 1503 994 q 1466 925 1503 951 q 1379 899 1429 899 l 1379 899 q 1312 905 1349 899 q 1233 921 1275 911 l 1233 921 q 1151 834 1196 888 q 1058 717 1106 781 q 963 592 1010 654 q 876 481 917 531 l 876 481 q 719 305 799 385 q 569 164 640 225 q 447 61 499 103 l 447 61 q 584 -19 507 28 q 746 -110 661 -65 q 915 -185 831 -156 q 1071 -215 999 -215 l 1071 -215 q 1202 -203 1139 -215 q 1309 -160 1265 -192 q 1361 -72 1353 -129 l 1361 -72 q 1379 -40 1365 -40 l 1379 -40 q 1392 -51 1386 -40 q 1394 -92 1397 -61 l 1394 -92 q 1379 -146 1393 -112 q 1331 -213 1365 -179 q 1236 -271 1297 -247 q 1078 -294 1175 -294 l 1078 -294 q 913 -267 993 -294 q 760 -198 833 -240 q 622 -110 686 -156 q 507 -24 558 -64 q 419 36 456 15 l 419 36 q 280 -36 346 -17 q 167 -56 214 -56 z m 1382 919 l 1382 919 q 1438 935 1414 919 q 1463 985 1463 950 l 1463 985 q 1447 1017 1463 1004 q 1410 1029 1432 1029 l 1410 1029 q 1341 1006 1379 1029 q 1254 943 1303 983 l 1254 943 q 1324 926 1292 933 q 1382 919 1356 919 z m 201 -11 l 201 -11 q 302 13 250 -11 q 385 64 354 38 l 385 64 q 371 74 385 64 q 346 89 357 83 l 346 89 q 253 134 294 121 q 183 147 211 147 l 183 147 q 106 124 132 147 q 79 72 79 100 l 79 72 q 110 15 79 42 q 201 -11 140 -11 z "},"[":{"ha":571,"x_min":110,"x_max":603,"o":"m 324 -185 l 315 -185 q 133 -133 178 -185 l 133 -133 q 115 -95 119 -118 q 110 -44 110 -72 l 110 -44 q 124 53 110 1 q 152 150 138 106 q 171 217 167 194 l 171 217 q 180 263 172 225 q 199 355 188 301 q 222 465 210 408 q 242 567 233 521 q 256 633 251 613 l 256 633 q 271 715 263 668 q 292 809 279 761 q 326 899 306 857 q 381 965 347 940 l 381 965 q 465 1001 413 989 q 582 1013 518 1013 l 582 1013 l 588 1013 q 603 1004 603 1013 l 603 1004 q 594 989 603 997 q 581 981 586 981 l 581 981 q 438 943 479 981 l 438 943 q 419 926 429 936 q 397 888 408 915 l 397 888 q 356 758 378 836 q 313 591 335 681 q 271 410 290 501 q 235 240 251 319 q 206 103 218 160 q 190 25 194 46 l 190 25 q 182 -50 182 -17 l 182 -50 q 201 -117 182 -94 l 201 -117 q 326 -153 232 -153 l 326 -153 l 328 -153 q 336 -164 336 -153 l 336 -164 q 333 -178 336 -171 q 324 -185 329 -185 l 324 -185 z "},"\\":{"ha":1154,"x_min":14,"x_max":1044,"o":"m 1003 -44 l 1003 -44 q 908 39 967 -21 q 774 183 849 99 q 617 368 700 268 q 451 572 535 468 q 287 776 367 676 q 139 959 207 875 q 22 1100 71 1043 l 22 1100 q 14 1117 14 1111 l 14 1117 q 24 1132 14 1126 q 46 1138 33 1138 l 46 1138 q 71 1133 58 1138 q 93 1115 83 1128 l 93 1115 q 326 821 210 968 q 550 538 442 674 q 751 288 658 401 q 916 94 844 175 q 1029 -24 988 13 l 1029 -24 q 1044 -47 1044 -36 l 1044 -47 q 1033 -57 1044 -57 l 1033 -57 q 1022 -54 1029 -57 q 1003 -44 1014 -51 z "},"]":{"ha":626,"x_min":99,"x_max":592,"o":"m 378 1013 l 386 1013 q 568 961 524 1013 l 568 961 q 587 924 582 947 q 592 872 592 900 l 592 872 q 578 774 592 826 q 550 678 565 722 q 531 611 535 635 l 531 611 q 522 565 529 603 q 503 473 514 526 q 480 363 492 419 q 459 261 468 307 q 446 194 450 215 l 446 194 q 431 113 439 160 q 409 19 422 67 q 375 -71 396 -29 q 321 -137 354 -112 l 321 -137 q 238 -173 290 -161 q 119 -185 185 -185 l 119 -185 l 114 -185 q 99 -176 99 -185 l 99 -176 q 107 -161 99 -169 q 121 -153 115 -153 l 121 -153 q 264 -115 222 -153 l 264 -115 q 283 -97 272 -108 q 304 -60 294 -86 l 304 -60 q 345 69 324 -8 q 389 237 367 147 q 431 417 411 326 q 467 588 450 508 q 495 725 483 668 q 511 803 507 782 l 511 803 q 519 878 519 844 l 519 878 q 500 944 519 922 l 500 944 q 375 981 469 981 l 375 981 l 374 981 q 365 992 365 981 l 365 992 q 369 1006 365 999 q 378 1013 372 1013 l 378 1013 z "},"^":{"ha":446,"x_min":75,"x_max":415,"o":"m 399 431 l 399 431 q 349 499 376 456 q 297 588 321 543 q 260 661 274 633 l 260 661 q 201 587 235 632 q 137 500 168 542 q 83 435 106 458 l 83 435 l 75 444 q 101 483 81 453 q 147 552 121 513 q 201 631 174 592 q 251 696 229 669 q 283 724 274 722 l 283 724 l 299 715 q 333 629 314 681 q 373 529 353 578 q 410 456 393 481 l 410 456 l 415 444 q 409 432 415 438 q 399 431 403 426 z "},"_":{"ha":1013,"x_min":-46,"x_max":1054,"o":"m 1046 -181 l -33 -181 q -42 -172 -39 -181 q -46 -153 -46 -162 l -46 -153 q -37 -137 -46 -143 q -18 -132 -28 -132 l -18 -132 l 1015 -132 q 1042 -144 1031 -132 q 1054 -171 1053 -157 l 1054 -171 l 1046 -181 z "},"`":{"ha":254,"x_min":43,"x_max":200,"o":"m 179 549 l 179 549 q 151 578 171 557 q 109 626 132 600 q 68 677 86 653 q 43 714 50 701 l 43 714 q 63 755 51 747 q 85 760 75 763 l 85 760 l 200 553 q 179 549 199 543 z "},"a":{"ha":497,"x_min":42,"x_max":596,"o":"m 383 -4 l 383 -4 q 327 14 351 -4 q 303 88 303 32 l 303 88 q 306 132 303 111 q 315 176 310 153 l 315 176 q 281 125 303 156 q 231 65 258 94 q 176 17 204 36 q 122 -3 147 -3 l 122 -3 q 64 30 86 -3 q 42 115 42 63 l 42 115 q 68 238 42 172 q 140 363 94 303 q 246 460 186 422 q 371 497 306 497 l 371 497 q 432 487 403 497 q 483 453 461 476 l 483 453 q 493 431 493 443 l 493 431 q 486 417 493 422 q 468 414 479 411 l 468 414 q 403 463 453 463 l 403 463 q 349 447 379 463 l 349 447 q 269 385 311 428 q 190 290 226 343 q 129 182 153 236 q 106 83 106 128 l 106 83 q 140 38 106 38 l 140 38 q 203 67 171 38 q 266 140 236 96 q 321 226 296 183 q 360 296 346 269 l 360 296 q 399 358 381 333 q 450 383 417 383 l 450 383 q 481 379 465 383 q 513 378 496 375 l 513 378 q 440 279 471 336 q 392 167 408 222 q 375 75 375 113 l 375 75 q 403 33 375 33 l 403 33 q 451 58 425 33 q 501 122 476 83 q 546 199 525 160 q 579 268 567 239 l 579 268 q 591 267 586 268 q 596 256 596 265 l 596 256 q 591 244 594 250 q 581 222 588 238 l 581 222 q 550 163 569 200 q 504 87 531 125 q 447 22 478 49 q 383 -4 417 -4 z "},"b":{"ha":454,"x_min":63,"x_max":538,"o":"m 167 -7 l 167 -7 q 86 28 110 -7 q 63 113 63 63 l 63 113 q 70 178 63 147 q 93 247 78 208 l 93 247 l 90 247 q 79 258 79 247 l 79 258 q 91 290 79 264 q 122 354 103 317 q 160 431 140 392 q 197 500 181 469 l 197 500 q 258 606 225 551 q 324 711 292 661 q 379 793 357 761 l 379 793 q 472 863 429 863 l 472 863 l 479 863 q 508 858 492 863 q 538 857 524 854 l 538 857 q 474 777 517 835 q 382 646 432 719 l 382 646 q 330 564 361 615 q 264 449 299 513 q 199 319 229 385 q 150 191 169 253 q 131 81 131 129 l 131 81 q 142 36 131 49 q 169 24 153 24 l 169 24 q 219 48 190 24 q 277 112 247 72 q 332 199 307 151 q 373 297 357 247 q 389 388 389 346 l 389 388 q 374 446 389 428 q 336 464 360 464 l 336 464 q 317 459 326 464 q 300 454 307 454 l 300 454 q 293 461 293 454 l 293 461 q 308 476 293 468 q 351 485 322 485 l 351 485 q 405 471 378 485 q 450 426 432 457 q 468 344 468 394 l 468 344 q 440 223 468 285 q 368 109 413 161 q 270 25 324 57 q 167 -7 217 -7 z "},"c":{"ha":365,"x_min":51,"x_max":464,"o":"m 201 -6 l 201 -6 q 88 35 125 -6 q 51 143 51 75 l 51 143 q 64 217 51 175 q 97 301 76 258 q 143 378 118 344 l 143 378 q 232 462 183 432 q 331 492 281 492 l 331 492 q 406 469 383 492 q 429 415 429 446 l 429 415 q 415 363 429 386 q 384 326 401 340 q 354 313 367 313 l 354 313 q 335 321 343 313 l 335 321 q 358 354 346 335 q 376 392 371 374 l 376 392 q 382 425 382 408 l 382 425 q 349 461 382 461 l 349 461 q 270 428 308 461 q 201 342 232 394 q 151 233 169 290 q 132 126 132 175 l 132 126 q 151 53 132 82 q 213 24 169 24 l 213 24 q 313 60 269 24 q 389 153 356 97 q 447 268 422 210 l 447 268 q 458 266 453 268 q 464 256 464 264 l 464 256 q 399 126 436 186 q 313 31 361 67 q 201 -6 265 -6 z "},"d":{"ha":517,"x_min":40,"x_max":775,"o":"m 400 0 l 400 0 q 331 32 353 0 q 308 107 308 64 l 308 107 q 310 133 308 119 q 315 160 311 146 l 315 160 q 270 92 296 129 q 212 28 244 56 q 139 1 179 1 l 139 1 q 98 10 121 1 q 58 42 75 18 q 40 111 40 65 l 40 111 q 67 238 40 171 q 139 363 93 304 q 243 459 185 422 q 364 496 301 496 l 364 496 q 458 469 414 496 l 458 469 q 503 556 479 508 q 550 651 526 604 q 592 738 574 699 q 619 799 610 778 l 619 799 q 659 860 640 847 q 704 874 678 874 l 704 874 q 738 870 719 874 q 775 868 757 867 l 775 868 q 743 822 768 861 q 682 722 718 783 q 605 586 646 660 q 524 435 564 513 q 451 288 485 358 q 399 163 418 217 q 379 81 379 108 l 379 81 q 388 49 379 63 q 415 36 396 36 l 415 36 q 469 63 442 36 q 523 128 497 89 q 569 206 549 168 q 599 268 589 244 l 599 268 q 615 256 615 268 l 615 256 q 582 183 603 226 q 533 99 561 140 q 472 28 506 57 q 400 0 438 0 z m 149 42 l 149 42 q 197 63 168 42 q 260 132 226 85 l 260 132 q 349 271 299 188 q 447 447 399 354 l 447 447 q 426 460 438 456 q 396 464 415 464 l 396 464 q 326 437 364 464 q 249 367 288 410 q 180 274 211 324 q 130 177 149 224 q 111 97 111 131 l 111 97 q 149 42 111 42 z "},"e":{"ha":356,"x_min":49,"x_max":454,"o":"m 182 -6 l 182 -6 q 90 28 131 -6 q 49 129 49 61 l 49 129 q 74 250 49 186 q 142 370 100 314 q 237 462 185 426 q 342 497 289 497 l 342 497 q 393 482 368 497 q 418 429 418 467 l 418 429 q 392 353 418 394 q 317 275 365 311 l 317 275 q 264 246 296 260 q 200 223 232 232 q 147 214 168 214 l 147 214 q 134 169 140 197 q 128 113 128 142 l 128 113 q 142 50 128 78 q 193 22 156 22 l 193 22 q 278 49 239 22 q 349 115 318 75 q 403 197 381 156 q 438 268 425 239 l 438 268 q 454 256 454 268 l 454 256 q 413 171 436 217 q 359 85 390 125 q 284 20 328 46 q 182 -6 240 -6 z m 157 239 l 157 239 q 222 253 176 239 q 306 300 268 268 l 306 300 q 361 370 342 332 q 381 435 381 408 l 381 435 q 358 465 381 465 l 358 465 q 313 443 342 465 q 240 368 283 421 l 240 368 q 190 296 214 335 q 157 239 167 257 z "},"f":{"ha":269,"x_min":-167,"x_max":503,"o":"m -90 -487 l -90 -487 q -144 -472 -121 -487 q -167 -412 -167 -457 l -167 -412 q -125 -224 -167 -343 q -24 39 -83 -104 l -24 39 q -40 97 -40 67 l -40 97 q -12 164 -40 146 l -12 164 q 38 179 11 183 l 38 179 q 139 401 88 292 q 238 607 190 510 q 325 778 286 704 l 325 778 q 374 849 349 824 q 442 874 400 874 l 442 874 q 472 869 454 874 q 503 865 489 864 l 503 865 q 423 763 471 835 q 319 593 375 692 q 206 380 264 494 q 96 147 149 265 l 96 147 q 126 92 118 119 q 144 25 135 64 l 144 25 q 224 60 186 22 q 295 154 263 97 q 351 268 328 211 l 351 268 q 368 256 368 268 l 368 256 q 312 138 344 197 q 238 37 279 78 q 147 -7 197 -4 l 147 -7 l 147 -43 q 130 -193 147 -115 q 81 -337 113 -271 q 6 -446 49 -404 q -90 -487 -37 -487 z m 107 19 l 107 19 l 114 19 q 103 74 113 47 q 81 115 93 101 l 81 115 l 51 44 q 107 19 64 19 z m -69 -450 l -69 -450 q -36 -434 -56 -450 q 1 -393 -17 -418 l 1 -393 q 63 -281 36 -347 q 104 -142 89 -214 q 118 -8 119 -69 l 118 -8 q 70 -1 92 -8 q 36 15 49 6 l 36 15 q -31 -169 0 -78 q -79 -329 -62 -260 l -79 -329 q -87 -375 -85 -356 q -90 -408 -90 -394 l -90 -408 q -69 -450 -90 -450 z "},"g":{"ha":550,"x_min":-146,"x_max":649,"o":"m -14 -443 l -14 -443 q -146 -335 -146 -443 l -146 -335 q -110 -243 -146 -283 q -24 -174 -74 -203 l -24 -174 q 113 -107 46 -132 q 240 -63 179 -82 q 354 -22 301 -44 l 354 -22 q 375 58 367 14 q 388 143 383 101 l 388 143 q 392 215 392 185 l 392 215 q 388 257 392 247 l 388 257 q 347 185 372 228 q 287 99 321 142 q 215 29 253 57 q 139 1 178 1 l 139 1 q 113 6 125 1 l 113 6 q 56 53 74 22 q 39 122 39 83 l 39 122 q 75 257 39 185 q 161 389 111 329 l 161 389 q 256 467 201 438 q 365 496 310 496 l 365 496 q 485 453 429 496 l 485 453 q 506 417 506 436 l 506 417 q 489 396 506 396 l 489 396 q 469 414 475 396 l 469 414 q 407 465 450 465 l 407 465 q 328 435 372 465 q 244 361 283 406 l 244 361 q 180 275 211 324 q 128 179 149 226 q 108 97 108 132 l 108 97 q 119 57 108 74 q 154 40 131 40 l 154 40 q 222 71 186 40 q 290 146 257 101 q 347 236 322 190 q 381 313 371 282 l 381 313 q 407 352 390 344 q 440 360 424 360 q 468 368 457 360 l 468 368 q 476 306 474 338 q 478 243 478 275 l 478 243 q 470 126 478 179 q 444 14 463 74 l 444 14 q 531 91 494 44 q 592 185 568 138 q 632 268 617 233 l 632 268 q 649 256 649 268 l 649 256 q 603 164 631 218 q 535 59 576 110 q 433 -19 494 8 l 433 -19 q 366 -160 410 -86 q 263 -298 322 -233 q 132 -403 203 -362 q -14 -443 61 -443 z m -47 -415 l -47 -415 q 17 -402 -17 -415 q 82 -371 51 -389 q 129 -340 113 -353 l 129 -340 q 194 -278 161 -315 q 253 -206 228 -240 l 253 -206 q 301 -135 276 -172 q 342 -62 326 -99 l 342 -62 l 285 -81 q 184 -115 239 -94 q 75 -160 129 -135 q -24 -214 21 -185 l -24 -214 q -88 -283 -62 -240 q -114 -358 -114 -326 l -114 -358 q -98 -399 -114 -382 q -47 -415 -82 -415 z "},"h":{"ha":467,"x_min":-53,"x_max":565,"o":"m -53 -11 l -53 -11 q 69 240 6 108 q 199 504 132 371 q 331 758 265 638 l 331 758 q 374 824 354 800 q 428 847 394 847 l 428 847 q 457 843 440 847 q 489 842 474 839 l 489 842 q 440 774 471 822 q 370 657 408 725 q 290 510 332 589 q 206 352 247 432 q 131 203 165 272 l 131 203 q 188 271 158 239 q 244 326 217 303 l 244 326 q 322 385 275 354 q 415 438 368 415 q 489 460 461 460 l 489 460 q 503 458 499 460 l 503 458 q 488 431 503 458 q 449 360 472 403 q 402 267 426 317 q 360 172 378 217 q 336 97 342 126 l 336 97 q 332 60 332 75 l 332 60 q 340 30 332 38 q 358 22 349 22 l 358 22 q 409 47 382 22 q 463 108 436 71 q 512 188 489 146 q 549 268 535 231 l 549 268 q 565 256 565 268 l 565 256 q 527 173 550 218 q 475 88 504 128 q 411 21 446 47 q 338 -6 376 -6 l 338 -6 q 281 14 310 -6 q 251 85 251 33 l 251 85 q 254 117 251 100 q 264 157 257 135 l 264 157 q 292 219 272 185 q 342 304 311 253 l 342 304 q 356 342 356 328 l 356 342 q 339 358 356 358 l 339 358 q 301 344 325 358 q 242 296 278 331 l 242 296 q 156 199 207 263 q 46 19 104 135 l 46 19 q 24 1 36 1 q -7 -1 13 0 l -7 -1 q -32 -3 -19 -3 q -53 -11 -44 -4 z "},"i":{"ha":244,"x_min":28,"x_max":343,"o":"m 121 0 l 121 0 q 49 30 69 0 q 28 99 28 60 l 28 99 q 33 141 28 119 q 44 181 38 163 l 44 181 l 138 418 q 142 438 142 429 l 142 438 q 135 462 142 451 q 125 476 128 472 l 125 476 l 201 479 q 231 474 222 481 q 240 460 240 468 l 240 460 q 231 429 240 451 l 231 429 q 193 346 217 396 q 147 243 169 296 q 108 144 124 190 q 92 74 92 99 l 92 74 q 101 43 92 56 q 132 31 110 31 l 132 31 q 190 53 161 31 q 243 113 218 76 q 290 190 268 149 q 326 268 311 232 l 326 268 q 343 256 343 268 l 343 256 q 307 176 329 221 q 256 92 285 132 q 194 26 228 53 q 121 0 160 0 z m 244 565 l 244 565 q 213 579 226 565 q 200 613 200 593 l 200 613 q 219 655 200 636 q 263 674 239 674 l 263 674 q 296 661 282 674 q 310 629 310 649 l 310 629 q 290 585 310 604 q 244 565 271 565 z "},"j":{"ha":247,"x_min":-551,"x_max":346,"o":"m -419 -443 l -419 -443 q -522 -415 -492 -443 q -551 -347 -551 -386 l -551 -347 q -531 -272 -551 -310 l -531 -272 q -476 -203 -511 -232 q -400 -156 -442 -175 l -400 -156 q -237 -101 -329 -122 q -60 -56 -144 -81 l -60 -56 q -37 -15 -49 -36 q -15 25 -25 6 l -15 25 q 36 135 13 81 q 94 254 60 190 l 94 254 q 82 268 82 254 l 82 268 l 143 408 q 146 416 144 411 q 147 426 147 421 l 147 426 q 140 452 147 442 q 131 467 133 463 l 131 467 l 207 469 l 214 469 q 244 450 244 469 l 244 450 q 236 419 244 440 l 236 419 l 125 158 q 83 67 106 113 q 38 -26 61 21 l 38 -26 q 192 66 135 11 q 281 176 250 121 q 329 268 313 231 l 329 268 q 346 256 346 268 l 346 256 q 310 183 332 225 q 251 94 288 140 q 158 4 215 47 q 15 -71 101 -39 l 15 -71 q -61 -195 -18 -131 q -158 -316 -104 -260 q -277 -408 -212 -372 q -419 -443 -342 -443 z m -453 -415 l -453 -415 q -358 -387 -407 -415 q -262 -317 -308 -360 q -178 -231 -217 -275 q -117 -153 -140 -186 l -117 -153 q -101 -128 -108 -142 q -87 -100 -94 -114 l -87 -100 q -235 -140 -154 -118 q -376 -187 -315 -161 l -376 -187 q -481 -266 -443 -215 q -518 -357 -518 -317 l -518 -357 q -502 -399 -518 -383 q -453 -415 -486 -415 z m 247 556 l 247 556 q 216 569 229 556 q 203 603 203 583 l 203 603 q 222 645 203 626 q 265 664 242 664 l 265 664 q 299 651 285 664 q 313 619 313 639 l 313 619 q 293 575 313 594 q 247 556 274 556 z "},"k":{"ha":500,"x_min":1,"x_max":599,"o":"m 324 -10 l 324 -10 q 260 20 285 -6 q 224 81 235 46 q 213 144 213 115 l 213 144 q 238 234 213 200 q 283 269 263 268 l 283 269 q 338 280 306 268 q 393 313 369 292 l 393 313 q 433 378 433 344 l 433 378 q 393 413 433 413 l 393 413 q 337 397 371 413 q 258 344 303 382 l 258 344 q 143 218 203 297 l 143 218 q 124 165 135 200 q 105 92 113 129 q 97 28 97 54 l 97 28 q 104 0 97 7 l 104 0 l 17 0 q 1 13 1 0 l 1 13 q 3 19 1 17 q 6 31 4 22 l 6 31 q 52 158 25 103 q 97 256 79 214 l 97 256 q 83 258 85 251 q 82 268 82 264 l 82 268 q 115 340 92 290 q 169 453 138 389 q 236 589 200 518 q 308 725 272 660 l 308 725 q 367 819 344 792 q 424 847 390 847 l 424 847 q 453 843 436 847 q 485 842 471 839 l 485 842 q 408 745 454 815 q 311 582 363 675 q 213 392 260 489 l 213 392 q 186 333 199 364 q 163 272 174 303 l 163 272 q 229 347 192 308 q 308 419 267 386 q 389 467 349 451 l 389 467 q 465 483 435 483 l 465 483 q 512 468 497 483 q 526 429 526 453 l 526 429 q 506 366 526 403 q 449 303 485 329 l 449 303 q 385 267 418 282 q 306 247 351 251 l 306 247 q 294 208 297 228 q 290 168 290 188 l 290 168 q 315 73 290 114 q 381 32 340 32 l 381 32 q 423 43 400 32 q 471 81 446 54 l 471 81 q 526 158 499 108 q 582 268 554 207 l 582 268 q 599 256 599 268 l 599 256 q 501 76 549 135 q 410 2 454 18 q 324 -10 367 -14 z "},"l":{"ha":296,"x_min":47,"x_max":476,"o":"m 147 -4 l 147 -4 q 72 27 96 -4 q 47 101 47 58 l 47 101 q 60 193 47 146 q 82 272 72 240 l 82 272 q 138 438 104 350 q 213 612 172 526 q 294 765 254 697 l 294 765 q 363 847 326 819 q 428 874 400 874 l 428 874 q 463 858 450 874 q 476 810 476 842 l 476 810 q 469 757 476 788 q 443 688 461 726 l 443 688 q 327 471 394 579 q 157 268 260 363 l 157 268 q 129 185 140 229 q 118 113 118 140 l 118 113 q 176 26 118 26 l 176 26 q 275 91 221 26 q 378 268 329 156 l 378 268 q 389 266 383 268 q 394 256 394 264 l 394 256 q 356 173 379 218 q 303 88 333 128 q 235 22 274 47 q 147 -4 196 -4 z m 168 313 l 168 313 q 265 431 218 364 q 353 572 313 499 q 422 710 394 644 l 422 710 q 438 756 432 731 q 444 797 444 781 l 444 797 q 435 817 444 817 l 435 817 q 418 806 429 817 q 389 771 407 796 l 389 771 q 331 676 363 736 q 268 549 300 617 q 210 417 236 481 q 168 313 183 354 z "},"m":{"ha":707,"x_min":-53,"x_max":806,"o":"m -53 -7 l -53 -7 q 44 191 -1 92 q 138 379 90 290 l 138 379 q 184 449 165 429 q 235 469 203 469 l 235 469 q 258 466 246 469 q 283 463 271 463 l 283 463 q 296 464 292 463 l 296 464 q 246 409 276 453 q 183 308 215 365 q 126 201 151 251 l 126 201 q 181 265 153 233 q 244 326 210 297 l 244 326 q 309 384 275 353 q 376 438 343 415 q 435 460 410 460 l 435 460 q 447 458 444 460 l 447 458 q 474 422 474 447 l 474 422 q 467 397 474 414 l 467 397 q 420 301 449 350 q 367 201 392 251 l 367 201 q 419 263 388 226 q 482 326 450 299 l 482 326 q 560 385 513 354 q 653 438 607 415 q 726 460 699 460 l 726 460 q 740 458 736 460 l 740 458 q 725 431 740 458 q 687 360 710 404 q 640 267 664 317 q 598 173 617 218 q 574 97 579 128 l 574 97 q 569 64 569 79 l 569 64 q 578 35 569 42 q 596 28 586 28 l 596 28 q 651 51 624 28 q 704 112 678 75 q 752 190 731 149 q 789 268 774 232 l 789 268 q 806 256 806 268 l 806 256 q 767 173 790 218 q 715 88 744 128 q 651 21 686 47 q 576 -6 617 -6 l 576 -6 q 522 14 547 -6 q 496 86 496 33 l 496 86 q 523 200 496 143 q 579 304 550 257 l 579 304 q 593 342 593 328 l 593 342 q 576 358 593 358 l 576 358 q 538 344 563 358 q 478 296 514 331 l 478 296 q 426 238 456 275 q 365 158 396 201 q 313 74 335 115 q 283 0 290 32 l 283 0 q 250 17 263 0 q 238 58 238 35 l 238 58 q 238 67 238 63 q 239 76 238 71 l 239 76 q 261 149 246 119 q 296 219 276 179 l 296 219 q 318 262 306 238 q 340 309 331 286 q 350 347 350 332 l 350 347 q 339 361 350 361 l 339 361 q 306 349 326 361 q 268 320 286 336 q 240 296 250 304 l 240 296 q 156 200 206 263 q 49 22 107 138 l 49 22 q 29 3 40 7 q -6 0 18 0 l -6 0 q -31 -1 -21 0 q -53 -7 -42 -1 z "},"n":{"ha":469,"x_min":-51,"x_max":568,"o":"m -51 -11 l -51 -11 q 44 190 -1 90 q 139 379 90 289 l 139 379 q 186 449 167 429 q 238 469 206 469 l 238 469 q 261 466 249 469 q 286 463 274 463 l 286 463 q 299 464 294 463 l 299 464 q 248 409 279 453 q 185 308 217 365 q 128 201 153 251 l 128 201 q 183 265 154 233 q 247 326 213 297 l 247 326 q 327 387 281 356 q 418 439 374 418 q 489 460 463 460 l 489 460 q 503 458 499 460 l 503 458 q 488 431 503 458 q 449 360 472 404 q 403 267 426 317 q 360 173 379 218 q 336 97 342 128 l 336 97 q 332 64 332 79 l 332 64 q 340 35 332 42 q 358 28 349 28 l 358 28 q 413 51 385 28 q 466 112 440 75 q 514 190 492 149 q 551 268 536 232 l 551 268 q 568 256 568 268 l 568 256 q 530 173 553 218 q 478 88 507 128 q 415 21 450 47 q 340 -6 381 -6 l 340 -6 q 283 14 313 -6 q 253 86 253 33 l 253 86 q 256 119 253 101 q 265 157 258 136 l 265 157 q 292 217 276 185 q 342 304 307 249 l 342 304 q 353 328 351 319 q 356 342 356 336 l 356 342 q 340 358 356 358 l 340 358 q 303 344 328 358 q 243 296 279 331 l 243 296 q 160 201 208 263 q 50 21 113 140 l 50 21 q 28 1 40 3 q -4 -1 17 0 l -4 -1 q -31 -3 -18 -3 q -51 -11 -43 -4 z "},"o":{"ha":469,"x_min":54,"x_max":568,"o":"m 165 0 l 165 0 q 81 41 108 0 q 54 140 54 82 l 54 140 q 75 253 54 194 l 75 253 q 137 369 97 317 q 224 455 176 422 q 319 488 272 488 l 319 488 q 403 449 376 488 q 431 350 431 410 l 431 350 q 417 263 431 308 q 379 172 403 217 l 379 172 q 431 154 397 154 l 431 154 q 497 179 469 154 q 551 268 525 204 l 551 268 q 568 256 568 268 l 568 256 q 508 162 542 192 q 421 133 474 132 l 421 133 q 368 151 389 133 l 368 151 q 276 44 329 88 q 165 0 222 0 z m 185 31 l 185 31 q 249 58 217 31 q 307 119 281 85 q 344 179 333 154 l 344 179 q 319 240 322 219 q 315 269 315 260 l 315 269 q 329 310 315 296 q 357 324 343 324 l 357 324 q 390 307 376 324 l 390 307 q 394 335 393 322 q 396 361 396 349 l 396 361 q 383 420 396 397 q 342 443 369 443 l 342 443 q 281 418 313 443 q 220 351 249 393 q 171 258 192 310 l 171 258 q 143 177 153 215 q 133 107 133 139 l 133 107 q 146 51 133 72 q 185 31 158 31 z "},"p":{"ha":467,"x_min":-206,"x_max":496,"o":"m -136 -379 l -136 -379 q -170 -374 -153 -379 q -206 -372 -187 -369 l -206 -372 q -174 -324 -197 -364 q -118 -226 -150 -285 q -52 -98 -86 -167 q 14 38 -18 -29 q 69 163 46 106 q 99 256 92 221 l 99 256 q 86 258 92 256 q 82 268 81 261 l 82 268 q 90 293 82 268 q 107 353 99 318 q 115 418 115 389 l 115 418 q 111 451 115 438 q 96 467 107 465 l 96 467 l 165 478 q 181 480 174 479 q 193 481 188 481 l 193 481 q 210 472 206 481 q 215 435 215 463 l 215 435 q 203 347 215 400 q 176 253 192 293 l 176 253 q 216 317 192 278 q 272 396 240 356 q 339 463 304 436 q 407 490 374 490 l 407 490 q 425 488 414 490 l 425 488 q 480 449 464 478 q 496 382 496 421 l 496 382 q 480 290 496 340 q 438 192 464 240 q 379 106 411 144 l 379 106 q 286 28 340 57 q 175 -1 232 -1 l 175 -1 q 79 25 124 -1 l 79 25 l -53 -307 q -90 -364 -72 -349 q -136 -379 -108 -379 z m 131 28 l 131 28 q 218 64 169 28 q 312 156 267 100 q 388 269 357 213 l 388 269 q 418 341 408 308 q 428 397 428 374 l 428 397 q 389 451 428 451 l 389 451 q 342 432 371 451 q 276 361 314 413 l 276 361 q 188 222 236 306 q 90 44 140 138 l 90 44 q 131 28 107 28 z "},"q":{"ha":482,"x_min":40,"x_max":517,"o":"m 186 -401 l 186 -401 q 168 -379 181 -389 q 147 -360 156 -369 l 147 -360 q 128 -312 128 -339 l 128 -312 q 135 -274 128 -296 q 156 -226 143 -253 l 156 -226 q 230 -62 200 -126 q 282 48 260 3 q 324 132 304 93 q 365 219 343 171 l 365 219 q 349 194 363 214 q 319 149 336 174 q 287 103 301 124 q 268 78 272 83 l 268 78 q 210 25 243 49 q 142 1 178 1 l 142 1 q 114 6 129 1 l 114 6 q 58 53 75 22 q 40 122 40 83 l 40 122 q 76 257 40 185 q 163 389 113 329 l 163 389 q 257 467 203 438 q 367 496 311 496 l 367 496 q 428 485 397 496 q 485 453 458 475 l 485 453 q 502 434 497 443 q 507 417 507 425 l 507 417 q 490 396 507 396 l 490 396 q 471 414 476 396 l 471 414 q 408 465 451 465 l 408 465 q 335 438 375 465 q 256 368 296 411 q 183 275 217 325 q 130 178 150 225 q 110 96 110 131 l 110 96 q 138 44 110 57 l 138 44 q 146 42 142 43 q 153 42 150 42 l 153 42 q 216 73 182 42 q 281 148 250 104 q 337 231 313 192 q 371 289 361 271 l 371 289 q 415 347 399 335 q 457 357 431 360 l 457 357 q 483 353 464 356 q 517 351 501 350 l 517 351 q 456 246 490 311 q 386 103 422 181 q 316 -53 350 26 q 253 -204 282 -133 q 208 -327 225 -275 q 186 -401 190 -379 z "},"r":{"ha":360,"x_min":76,"x_max":458,"o":"m 83 272 l 83 272 q 113 348 94 296 q 150 464 131 400 q 179 585 169 528 l 179 585 q 194 617 183 607 q 218 628 206 628 l 218 628 q 251 610 236 628 q 267 561 267 593 l 267 561 q 244 494 267 522 q 188 442 221 467 l 188 442 q 217 440 201 440 q 250 439 232 439 l 250 439 q 379 447 315 439 l 379 447 q 382 435 382 439 l 382 435 q 372 389 382 417 q 350 339 361 361 l 350 339 q 328 294 344 326 q 292 220 311 261 q 259 140 272 179 q 246 72 246 100 l 246 72 q 274 36 246 36 l 274 36 q 347 98 300 36 q 442 268 394 160 l 442 268 q 458 256 458 268 l 458 256 q 420 174 443 218 q 369 90 397 129 q 310 24 342 50 q 243 -1 278 -1 l 243 -1 q 190 20 217 -1 q 164 90 164 42 l 164 90 q 181 174 164 133 q 218 251 197 215 q 256 315 239 288 q 272 360 272 343 l 272 360 q 241 396 272 385 q 160 408 210 407 l 160 408 q 122 314 135 344 q 99 256 110 283 l 99 256 q 83 272 76 256 z "},"s":{"ha":371,"x_min":-17,"x_max":468,"o":"m 111 -6 l 111 -6 q 19 30 54 -6 q -17 104 -17 65 l -17 104 q -1 163 -17 136 q 42 190 15 190 l 42 190 l 43 193 q 102 306 74 249 q 165 429 131 364 l 165 429 q 228 518 194 483 q 308 553 263 553 l 308 553 q 339 548 319 553 q 358 528 358 543 l 358 528 q 346 517 358 517 l 346 517 q 324 522 336 517 q 306 528 313 528 l 306 528 q 261 497 279 528 q 243 432 243 467 l 243 432 q 256 365 243 394 q 285 307 268 335 q 314 251 301 279 q 326 189 326 222 l 326 189 q 301 81 326 122 q 233 19 275 40 l 233 19 l 235 19 q 356 88 308 19 q 451 268 404 157 l 451 268 q 468 256 468 268 l 468 256 q 410 133 442 193 q 335 35 378 74 q 229 -4 292 -4 l 229 -4 q 181 1 203 -4 l 181 1 q 111 -6 149 -6 z m 90 142 l 90 142 q 106 78 90 108 q 161 32 121 47 l 161 32 q 217 97 197 53 q 238 188 238 140 l 238 188 q 229 267 238 226 q 212 346 221 307 q 203 415 203 385 l 203 415 q 203 433 203 425 q 206 447 204 440 l 206 447 q 155 360 181 410 q 106 264 129 310 q 63 189 82 218 l 63 189 q 90 142 90 185 z m 44 72 l 44 72 q 60 33 44 50 q 106 17 75 17 l 106 17 q 132 19 119 17 l 132 19 q 85 65 103 38 q 68 129 68 93 l 68 129 q 50 101 56 115 q 44 72 44 86 z "},"t":{"ha":279,"x_min":47,"x_max":388,"o":"m 369 733 l 369 733 q 329 667 351 707 q 288 589 307 626 q 260 532 269 551 l 260 532 l 388 532 q 383 514 388 526 q 364 496 378 501 l 364 496 l 243 496 q 205 406 226 458 q 163 296 183 353 q 130 190 143 239 q 117 110 117 140 l 117 110 q 128 48 117 68 q 168 28 139 28 l 168 28 q 240 65 206 28 q 306 157 275 101 q 361 268 338 213 l 361 268 q 378 256 378 268 l 378 256 q 340 174 363 218 q 290 88 318 129 q 226 22 261 47 q 147 -4 190 -4 l 147 -4 q 68 28 89 -4 q 47 113 47 61 l 47 113 q 61 203 47 150 q 95 314 75 257 q 135 420 115 371 q 165 496 154 469 l 165 496 l 76 496 q 86 519 76 507 q 107 532 96 532 l 107 532 l 181 532 q 206 588 192 554 q 246 661 221 621 l 246 661 q 299 714 267 694 q 369 733 332 733 z "},"u":{"ha":494,"x_min":32,"x_max":593,"o":"m 122 0 l 122 0 q 85 7 107 0 q 48 33 64 14 q 32 89 32 51 l 32 89 q 56 172 32 125 q 97 256 79 219 l 97 256 q 82 268 82 256 l 82 268 q 94 294 83 272 q 121 347 106 317 q 151 406 136 378 q 174 450 165 435 l 174 450 q 226 481 190 481 l 226 481 l 313 481 q 270 441 289 463 q 224 363 251 419 l 224 363 q 214 343 224 363 q 190 294 204 324 q 160 233 175 264 q 136 182 146 203 l 136 182 q 113 120 118 143 q 107 78 107 97 l 107 78 q 138 32 107 32 l 138 32 q 218 86 171 32 l 218 86 q 294 196 257 132 q 366 328 332 260 q 426 450 400 396 l 426 450 q 481 481 442 481 l 481 481 l 557 481 q 495 406 526 456 q 426 278 464 356 l 426 278 q 401 225 417 257 q 374 157 386 193 q 363 85 363 121 l 363 85 q 397 36 363 36 l 397 36 q 489 101 444 36 q 576 268 533 167 l 576 268 q 590 267 588 268 q 593 256 592 265 l 593 256 q 556 174 578 218 q 508 90 535 131 q 448 25 481 50 q 376 0 415 0 l 376 0 q 319 26 342 0 q 297 99 297 51 l 297 99 q 311 179 297 136 l 311 179 q 257 96 288 138 q 192 27 226 54 q 122 0 157 0 z "},"v":{"ha":429,"x_min":51,"x_max":528,"o":"m 128 -10 l 128 -10 q 68 13 85 -10 q 51 69 51 35 l 51 69 q 64 151 51 106 q 97 254 76 197 l 97 254 q 82 268 82 254 l 82 268 q 106 331 93 296 q 119 411 119 367 l 119 411 q 114 449 119 433 q 97 467 108 464 l 97 467 q 112 469 97 467 q 143 475 126 472 q 165 478 160 478 l 165 478 q 181 480 174 479 q 193 481 188 481 l 193 481 q 212 469 207 481 q 215 421 217 458 l 215 421 q 201 337 214 386 q 175 251 189 288 l 175 251 q 142 156 157 204 q 126 75 126 107 l 126 75 q 142 39 126 47 l 142 39 q 161 35 153 35 l 161 35 q 224 65 193 35 q 281 140 254 96 q 326 224 308 183 l 326 224 q 318 300 318 256 l 318 300 q 329 396 318 347 q 364 477 340 444 q 425 510 388 510 l 425 510 q 451 486 451 510 l 451 486 q 438 439 451 481 q 404 340 425 397 q 360 231 383 283 l 360 231 q 350 208 354 219 l 350 208 q 371 170 356 185 q 408 156 386 156 l 408 156 q 460 181 436 156 q 511 268 485 207 l 511 268 q 528 256 528 268 l 528 256 q 474 167 506 200 q 404 133 443 133 l 404 133 q 336 182 357 133 l 336 182 q 281 90 313 133 q 210 18 249 46 q 128 -10 172 -10 z "},"w":{"ha":688,"x_min":33,"x_max":786,"o":"m 388 -3 l 388 -3 q 373 -2 379 -3 q 357 0 367 -1 l 357 0 q 309 38 322 7 q 296 106 296 69 l 296 106 q 299 149 296 128 q 308 188 303 171 l 308 188 q 276 134 296 165 q 232 72 257 103 q 179 21 207 42 q 122 0 151 0 l 122 0 q 68 17 93 0 q 36 64 43 33 l 36 64 q 34 77 35 71 q 33 89 33 83 l 33 89 q 53 163 33 125 q 99 256 72 200 l 99 256 q 87 257 92 256 q 82 268 82 258 l 82 268 q 137 385 114 340 q 171 450 160 431 l 171 450 q 228 481 189 481 l 228 481 l 314 481 q 272 441 290 463 q 225 363 253 419 l 225 363 q 215 343 225 363 q 191 294 206 324 q 162 235 176 265 q 138 182 147 204 l 138 182 q 117 125 124 151 q 110 79 110 99 l 110 79 q 142 31 110 31 l 142 31 q 192 58 164 31 l 192 58 q 258 144 224 89 q 324 260 292 199 q 381 373 356 321 q 418 450 406 425 l 418 450 q 437 473 425 465 q 471 481 449 481 l 471 481 l 556 481 q 531 463 547 472 q 500 428 515 453 l 500 428 q 465 366 481 394 q 424 281 450 338 l 424 281 q 402 232 418 268 q 372 153 386 196 q 358 75 358 110 l 358 75 q 368 39 358 53 q 400 25 378 25 l 400 25 q 474 57 439 25 q 538 135 510 89 q 585 224 567 181 l 585 224 q 581 256 583 235 q 579 293 579 278 l 579 293 q 608 447 579 383 q 683 510 636 510 l 683 510 q 710 486 710 510 l 710 486 q 701 453 710 482 q 677 383 692 425 q 644 296 663 342 q 608 210 626 250 l 608 210 q 628 171 613 186 q 667 156 643 156 l 667 156 q 719 181 694 156 q 769 268 743 207 l 769 268 q 786 256 786 268 l 786 256 q 733 167 764 200 q 663 133 701 133 l 663 133 q 594 182 615 133 l 594 182 q 505 52 557 107 q 388 -3 453 -3 z "},"x":{"ha":464,"x_min":-10,"x_max":563,"o":"m 15 -47 l 15 -47 q -6 -37 -3 -47 q -10 -19 -10 -26 l -10 -19 q 71 10 32 -19 q 142 86 110 39 q 199 188 175 133 q 238 294 224 243 q 251 382 251 346 l 251 382 q 222 431 251 431 l 222 431 q 182 408 204 431 q 140 347 160 386 l 140 347 q 113 289 125 318 q 99 256 100 260 l 99 256 l 99 256 q 99 256 99 256 q 99 256 99 256 l 99 256 q 87 257 92 256 q 82 268 82 258 l 82 268 q 103 317 90 288 q 129 372 115 346 l 129 372 q 175 439 149 411 q 244 467 201 467 l 244 467 q 309 438 293 467 q 325 368 325 408 l 325 368 q 317 290 325 331 l 317 290 q 376 388 343 340 q 439 464 408 436 l 439 464 q 468 488 454 479 q 499 496 482 496 l 499 496 q 527 488 515 496 q 539 461 539 479 l 539 461 q 521 424 539 440 q 482 408 503 408 l 482 408 q 447 433 451 408 l 447 433 q 390 365 419 407 q 336 277 361 324 q 296 186 311 231 l 296 186 q 292 135 292 160 l 292 135 q 302 65 292 99 q 349 32 313 32 l 349 32 q 453 96 407 32 q 546 268 499 160 l 546 268 q 563 256 563 268 l 563 256 q 526 174 547 218 q 478 90 506 131 q 414 25 450 50 q 331 0 378 0 l 331 0 q 268 20 293 0 q 231 70 243 40 q 218 129 218 100 l 218 129 l 218 164 q 144 41 186 96 q 61 -33 101 -14 l 61 -33 q 39 -43 49 -39 q 15 -47 29 -47 z "},"y":{"ha":529,"x_min":-243,"x_max":628,"o":"m -110 -443 l -110 -443 q -212 -415 -182 -443 q -243 -347 -243 -386 l -243 -347 q -199 -237 -243 -287 q -92 -156 -156 -186 l -92 -156 q 73 -101 -19 -122 q 250 -56 165 -81 l 250 -56 q 299 49 276 -10 q 339 165 321 108 q 368 257 357 221 l 368 257 q 326 183 351 226 q 268 97 300 139 q 199 28 236 56 q 122 0 163 0 l 122 0 q 85 7 107 0 q 48 33 64 14 q 32 89 32 51 l 32 89 q 54 169 32 125 q 99 256 76 213 l 99 256 q 87 257 92 256 q 82 268 82 258 l 82 268 q 99 304 86 276 q 127 365 111 332 q 156 424 143 399 l 156 424 q 190 468 171 456 q 226 481 208 481 l 226 481 l 313 481 q 288 462 303 472 q 261 431 274 451 l 261 431 q 196 308 224 367 q 136 182 168 249 l 136 182 q 114 124 121 150 q 107 78 107 97 l 107 78 q 138 32 107 32 l 138 32 q 218 86 171 32 l 218 86 q 297 195 257 132 q 373 326 336 258 q 438 450 410 393 l 438 450 q 492 481 453 481 l 492 481 l 568 481 q 506 408 528 453 q 458 294 485 364 l 458 294 q 403 136 429 218 q 344 -32 376 54 l 344 -32 q 458 29 413 -8 q 540 126 504 67 q 611 268 575 185 l 611 268 q 628 256 628 268 l 628 256 q 572 143 597 192 q 517 58 547 94 q 440 -10 486 21 q 322 -71 394 -42 l 322 -71 q 247 -195 289 -131 q 151 -316 204 -260 q 33 -408 97 -372 q -110 -443 -32 -443 z m -143 -415 l -143 -415 q -49 -387 -97 -415 q 46 -317 0 -360 q 130 -231 92 -275 q 192 -154 168 -187 l 192 -154 q 207 -129 199 -144 q 224 -100 215 -114 l 224 -100 q 74 -140 156 -118 q -67 -187 -7 -161 l -67 -187 q -172 -267 -133 -215 q -210 -358 -210 -318 l -210 -358 q -194 -399 -210 -383 q -143 -415 -178 -415 z "},"z":{"ha":476,"x_min":28,"x_max":575,"o":"m 82 268 l 82 268 q 103 315 92 290 q 135 376 114 339 l 135 376 q 188 442 160 421 q 242 471 215 464 q 285 478 268 478 l 285 478 q 346 468 319 478 q 394 448 372 458 q 436 438 415 438 l 436 438 q 475 451 463 438 q 497 465 488 465 l 497 465 q 514 457 507 465 q 521 436 521 449 l 521 436 q 506 410 521 418 q 454 382 490 401 l 454 382 q 385 322 415 361 q 326 239 354 283 q 264 152 297 194 q 186 81 231 110 l 186 81 q 283 63 239 72 q 361 53 328 53 l 361 53 q 376 53 369 53 q 389 56 382 54 l 389 56 q 462 101 431 67 q 517 179 493 135 q 558 268 540 224 l 558 268 q 575 256 575 268 l 575 256 q 515 132 550 193 q 438 31 481 71 q 343 -10 394 -10 l 343 -10 q 235 1 282 -10 q 156 13 188 13 l 156 13 q 105 -2 129 13 q 53 -17 81 -17 l 53 -17 q 28 4 28 -17 l 28 4 q 35 28 28 18 l 35 28 q 64 47 39 36 q 116 67 89 57 q 153 83 143 78 l 153 83 q 208 131 178 96 q 269 212 238 167 q 332 300 301 257 q 390 372 363 343 l 390 372 q 333 385 365 378 q 274 392 301 392 l 274 392 q 204 384 233 392 q 151 347 175 376 q 99 256 126 318 l 99 256 q 82 268 82 256 z "},"{":{"ha":763,"x_min":219,"x_max":811,"o":"m 532 -185 l 524 -185 q 342 -133 386 -185 l 342 -133 q 323 -95 328 -118 q 318 -44 318 -72 l 318 -44 q 332 53 318 1 q 360 150 346 106 q 379 217 375 194 l 379 217 q 388 289 388 258 l 388 289 q 383 331 388 317 q 368 357 378 346 l 368 357 q 346 379 356 372 q 319 393 336 386 l 319 393 q 279 403 301 401 q 229 406 257 406 l 229 406 q 219 413 219 406 l 219 413 q 228 432 219 421 q 238 443 238 443 l 238 443 q 337 462 297 450 q 399 492 376 474 l 399 492 q 464 633 443 526 l 464 633 q 479 715 471 668 q 501 809 488 761 q 535 899 514 857 q 589 965 556 940 l 589 965 q 674 1001 621 989 q 790 1013 726 1013 l 790 1013 l 796 1013 q 811 1004 811 1013 l 811 1004 q 803 989 811 997 q 789 981 794 981 l 789 981 q 646 943 688 981 l 646 943 q 593 857 611 913 q 564 738 575 801 q 537 614 553 674 q 489 515 521 554 l 489 515 q 301 425 432 446 l 301 425 q 394 394 358 414 q 446 350 431 375 l 446 350 q 460 282 460 326 l 460 282 q 447 190 460 240 q 419 96 433 140 q 399 25 404 51 l 399 25 q 390 -50 390 -17 l 390 -50 q 410 -117 390 -94 l 410 -117 q 535 -153 440 -153 l 535 -153 l 536 -153 q 544 -164 544 -153 l 544 -164 q 541 -178 544 -171 q 532 -185 538 -185 l 532 -185 z "},"|":{"ha":643,"x_min":0,"x_max":643,"o":"m 61 -324 l 0 -324 l 582 1044 l 643 1044 l 61 -324 z "},"}":{"ha":706,"x_min":71,"x_max":675,"o":"m 85 -185 l 79 -185 q 71 -174 71 -185 l 71 -174 q 76 -160 71 -167 q 90 -153 81 -153 l 90 -153 q 238 -115 189 -153 l 238 -115 q 281 -51 267 -93 q 303 41 294 -10 q 322 145 311 92 q 352 246 332 199 q 410 328 372 293 l 410 328 q 485 374 440 354 q 590 404 531 393 l 590 404 q 456 481 486 422 l 456 481 q 446 532 446 500 l 446 532 q 458 626 446 575 q 486 725 471 678 q 510 799 501 772 l 510 799 q 528 894 528 854 l 528 894 q 518 938 528 922 l 518 938 q 390 975 492 975 l 390 975 q 381 981 381 975 l 381 981 q 390 997 381 988 q 400 1007 400 1007 l 400 1007 l 406 1007 q 522 995 476 1007 q 586 958 568 983 l 586 958 q 606 890 606 933 l 606 890 q 592 801 606 850 q 562 702 579 753 q 531 604 544 651 q 518 521 518 557 l 518 521 q 532 469 518 488 l 532 469 q 667 425 564 433 l 667 425 q 675 418 675 425 l 675 418 q 664 397 675 410 q 653 385 653 385 l 653 385 q 561 374 603 385 q 488 338 519 363 l 488 338 q 438 265 454 311 q 411 163 421 219 q 390 49 401 107 q 357 -57 379 -8 q 290 -136 335 -106 l 290 -136 q 203 -172 256 -160 q 85 -185 150 -185 l 85 -185 z "},"~":{"ha":518,"x_min":74,"x_max":489,"o":"m 358 308 l 358 308 q 295 322 326 308 q 234 348 264 335 q 172 361 204 361 l 172 361 q 133 348 150 361 q 107 317 117 335 l 107 317 q 93 311 106 311 l 93 311 q 80 314 86 311 q 75 319 74 317 l 75 319 q 127 389 94 354 q 203 424 160 424 l 203 424 q 267 411 236 424 q 327 385 297 399 q 388 372 357 372 l 388 372 q 429 386 413 372 q 457 424 446 400 l 457 424 q 457 424 457 424 l 457 424 l 457 424 q 460 425 457 424 q 467 426 464 426 l 467 426 q 481 424 474 426 q 488 419 489 422 l 488 419 q 436 345 469 382 q 358 308 403 308 z "},"":{"ha":238,"x_min":null,"x_max":null,"o":""},"":{"ha":540,"x_min":-15,"x_max":488,"o":"m 424 354 l 424 354 q 388 367 403 354 q 371 401 374 381 l 371 401 q 386 449 368 429 q 431 469 404 469 l 431 469 q 468 456 453 469 q 485 421 483 442 l 485 421 q 468 374 488 394 q 424 354 449 354 z m -7 -415 l -7 -415 l -14 -412 l -15 -404 q 6 -357 -14 -396 q 58 -260 26 -318 q 129 -134 90 -203 q 208 3 168 -65 q 282 134 247 72 q 342 240 317 196 q 376 300 368 283 l 376 300 l 392 299 l 392 289 l 108 -387 q 42 -417 96 -417 l 42 -417 q 17 -416 29 -417 q -7 -415 4 -415 z "},"":{"ha":450,"x_min":56,"x_max":482,"o":"m 111 -256 l 111 -256 q 72 -223 83 -246 q 60 -169 60 -200 l 60 -169 q 74 -81 60 -129 q 108 14 88 -33 q 145 100 128 61 q 168 158 163 139 l 168 158 q 81 203 106 164 q 56 294 56 242 l 56 294 q 70 390 56 340 q 107 484 85 440 q 151 553 129 528 l 151 553 q 201 599 171 575 q 268 639 232 622 q 338 656 304 656 l 338 656 l 347 656 l 442 892 q 465 915 453 915 l 465 915 q 478 905 474 915 q 478 883 482 894 l 478 883 l 381 649 q 434 611 414 639 q 453 543 454 583 l 453 543 q 431 482 451 507 q 379 457 411 457 l 379 457 q 333 476 353 457 q 314 521 314 494 l 314 521 q 332 568 314 549 q 379 588 350 588 l 379 588 q 408 578 393 588 q 425 561 422 569 l 425 561 q 417 601 429 585 q 396 621 406 618 l 396 621 q 383 622 392 622 l 383 622 q 328 605 358 622 q 268 560 297 588 q 218 506 239 533 l 218 506 q 156 390 178 451 q 135 275 133 328 l 135 275 q 162 202 138 222 q 213 182 186 182 l 213 182 q 296 214 256 182 q 368 286 336 246 l 368 286 q 378 293 375 293 l 378 293 q 387 284 385 293 q 385 268 389 275 l 385 268 q 308 191 351 221 q 206 158 264 161 l 206 158 q 183 105 201 144 q 145 13 165 65 q 110 -90 125 -39 q 94 -179 94 -142 l 94 -179 q 124 -231 94 -225 l 124 -231 q 138 -242 138 -232 l 138 -242 q 130 -253 138 -249 q 111 -256 122 -258 z "},"":{"ha":1046,"x_min":33,"x_max":1143,"o":"m 728 -137 l 728 -137 q 634 -128 688 -137 q 522 -103 581 -119 q 410 -63 464 -86 q 317 -11 357 -40 l 317 -11 q 260 -31 289 -24 q 199 -39 231 -39 l 199 -39 q 132 -28 171 -39 q 63 4 93 -18 q 33 61 33 26 l 33 61 q 69 125 33 104 q 142 146 106 146 l 142 146 q 258 111 206 146 q 357 39 310 76 l 357 39 q 450 144 401 76 q 551 303 499 213 l 551 303 l 407 303 q 403 306 403 303 l 403 306 q 412 322 403 313 q 426 332 421 332 l 426 332 l 569 332 q 607 400 588 364 l 607 400 q 666 500 632 444 q 742 611 700 556 q 831 714 783 667 q 932 790 879 761 q 1042 819 985 819 l 1042 819 q 1110 800 1078 819 q 1143 740 1143 781 l 1143 740 q 1115 651 1143 697 q 1047 565 1086 604 q 975 503 1007 525 l 975 503 q 958 496 968 496 l 958 496 q 951 501 951 496 l 951 501 q 958 513 951 506 l 958 513 q 1026 574 988 536 q 1094 658 1065 613 q 1122 743 1122 703 l 1122 743 q 1108 778 1122 768 q 1071 788 1093 788 l 1071 788 q 979 765 1021 788 q 908 711 938 742 q 861 656 878 681 l 861 656 q 761 491 810 579 q 676 332 713 403 l 676 332 l 815 332 q 819 328 819 332 l 819 328 q 810 313 819 322 q 793 303 800 303 l 793 303 l 661 303 q 553 145 618 218 q 389 15 489 72 l 389 15 q 444 -15 401 6 q 542 -59 488 -36 q 650 -98 597 -82 q 735 -114 703 -114 l 735 -114 q 809 -103 772 -114 q 870 -65 846 -92 q 894 4 894 -39 l 894 4 q 902 8 894 6 q 913 11 910 11 l 913 11 q 918 0 918 11 l 918 0 l 918 -1 q 888 -81 918 -50 q 813 -124 857 -111 q 728 -137 769 -137 z m 178 -18 l 200 -19 q 294 7 249 -19 l 294 7 q 238 47 274 22 q 167 92 203 72 q 107 113 132 113 l 107 113 q 81 103 93 113 q 68 74 68 93 l 68 74 q 86 28 68 49 q 130 -3 104 8 q 178 -18 156 -15 l 178 -18 z "},"":{"ha":936,"x_min":85,"x_max":831,"o":"m 303 240 l 85 100 l 253 296 q 236 364 236 325 l 236 364 q 253 446 236 408 q 300 514 269 483 l 300 514 l 196 697 l 368 565 q 431 590 397 581 q 497 600 465 600 l 497 600 q 556 592 526 600 q 608 565 585 585 l 608 565 l 831 693 l 657 508 q 674 467 672 488 q 675 428 676 446 l 675 428 q 656 356 674 390 q 613 294 638 321 l 613 294 l 733 103 l 543 242 q 417 208 483 208 l 417 208 q 359 216 388 208 q 303 240 331 224 l 303 240 z m 450 258 l 450 258 q 522 278 488 258 q 576 331 556 297 q 597 410 597 365 l 597 410 q 555 508 597 469 q 460 547 513 547 l 460 547 q 392 528 424 547 q 339 478 360 510 q 317 406 318 446 l 317 406 q 353 300 314 342 q 450 258 393 258 z "},"":{"ha":869,"x_min":-3,"x_max":958,"o":"m 461 199 l 585 199 q 589 194 589 199 l 589 194 q 579 179 589 189 q 563 169 569 169 l 563 169 l 439 169 q 283 20 369 78 q 88 -37 197 -37 l 88 -37 q 0 35 -3 -37 l 0 35 q 25 90 4 68 l 25 90 q 76 115 49 115 l 76 115 q 110 99 97 115 l 110 99 q 119 63 124 81 l 119 63 q 64 11 114 11 l 64 11 q 28 32 38 11 l 28 32 q 88 -7 28 -7 l 88 -7 q 101 -6 94 -7 q 114 -4 107 -6 l 114 -4 q 242 53 183 7 q 354 169 301 100 l 354 169 l 221 169 q 217 172 217 169 l 217 172 q 226 189 217 179 q 240 199 235 199 l 240 199 l 375 199 q 428 281 401 235 l 428 281 l 274 281 q 269 283 269 281 l 269 283 q 278 300 269 290 q 293 310 288 310 l 293 310 l 432 310 q 424 446 433 378 q 399 569 414 514 q 367 657 385 625 l 367 657 q 246 751 317 751 l 246 751 q 175 722 201 751 q 142 646 149 692 q 150 551 136 600 l 150 551 q 142 530 157 533 q 119 551 128 526 l 119 551 q 107 667 101 606 q 146 769 113 729 l 146 769 q 244 818 185 818 l 244 818 q 406 686 343 818 l 406 686 q 476 367 463 561 l 476 367 q 490 392 483 379 l 490 392 q 623 635 564 531 q 747 797 682 739 q 897 856 811 856 l 897 856 q 954 843 929 856 l 954 843 q 958 835 958 842 l 958 835 q 949 825 956 821 l 949 825 q 907 835 933 835 l 907 835 q 806 793 850 835 q 726 687 763 751 q 656 551 689 622 l 656 551 q 596 429 626 490 q 532 310 565 368 l 532 310 l 682 310 q 686 306 686 310 l 686 306 q 676 290 686 300 q 660 281 667 281 l 660 281 l 514 281 q 461 199 488 236 l 461 199 z "},"":{"ha":647,"x_min":0,"x_max":647,"o":"m 647 1044 l 392 449 l 332 456 l 585 1044 l 647 1044 z m 63 -324 l 0 -324 l 269 307 l 329 301 l 63 -324 z "},"":{"ha":732,"x_min":-74,"x_max":808,"o":"m 451 -79 l 451 -79 q 417 -192 450 -143 q 333 -275 385 -242 q 225 -325 282 -308 q 117 -342 168 -342 l 117 -342 q 28 -328 74 -342 q -45 -280 -17 -314 q -68 -187 -74 -246 l -68 -187 q -53 -142 -65 -165 q -21 -100 -42 -118 l -21 -100 q 50 -60 7 -74 l 50 -60 l 60 -60 q 69 -67 69 -60 l 69 -67 q 42 -85 67 -81 l 42 -85 q -6 -112 13 -89 q -28 -168 -24 -136 l -28 -168 q -19 -233 -32 -200 q 27 -287 -6 -265 q 114 -308 60 -308 l 114 -308 q 194 -294 150 -308 q 278 -254 238 -281 q 347 -189 319 -228 q 375 -101 374 -150 l 375 -101 q 351 -1 376 -50 q 288 90 325 47 q 214 169 250 133 q 157 232 178 206 l 157 232 q 107 315 118 282 q 97 390 96 347 l 97 390 q 120 478 99 429 q 191 574 142 528 q 328 647 240 619 l 328 647 q 292 720 306 682 q 281 800 279 758 l 281 800 q 315 913 282 864 q 398 996 347 963 q 506 1046 449 1029 q 614 1063 563 1063 l 614 1063 q 704 1049 658 1063 q 779 1001 750 1035 q 800 908 808 968 l 800 908 q 785 863 797 886 q 754 821 774 840 l 754 821 q 682 781 724 794 l 682 781 l 672 781 q 663 788 663 781 l 663 788 q 690 806 665 801 l 690 806 q 739 833 721 810 q 763 889 757 857 l 763 889 q 751 953 765 921 q 705 1008 738 986 q 618 1029 672 1029 l 618 1029 q 538 1015 582 1029 q 453 975 493 1001 q 386 910 413 949 q 358 822 360 871 l 358 822 q 382 722 357 771 q 444 631 407 674 q 518 551 482 588 q 575 489 554 515 l 575 489 q 626 406 615 439 q 636 331 638 374 l 636 331 q 615 243 636 292 q 543 149 593 194 q 406 74 493 103 l 406 74 q 440 1 426 39 q 451 -79 453 -37 z m 215 285 l 215 285 q 262 235 232 263 q 326 172 292 207 q 390 96 361 138 l 390 96 q 499 160 463 121 q 549 239 536 199 q 561 310 561 279 l 561 310 q 518 436 563 375 l 518 436 q 472 486 501 458 q 407 549 442 514 q 343 625 372 583 l 343 625 q 235 560 271 599 q 185 482 199 522 q 172 411 172 442 l 172 411 q 215 285 171 346 z "},"":{"ha":314,"x_min":10,"x_max":268,"o":"m 207 560 l 207 560 q 177 573 189 560 q 165 604 165 586 l 165 604 q 183 644 165 628 q 224 661 201 661 l 224 661 q 256 649 243 661 q 268 619 268 638 l 268 619 q 250 578 268 597 q 207 560 232 560 z m 51 560 l 51 560 q 22 573 33 560 q 10 604 10 586 l 10 604 q 28 644 10 628 q 68 661 46 661 l 68 661 q 100 649 88 661 q 113 619 113 638 l 113 619 q 94 578 113 597 q 51 560 76 560 z "},"":{"ha":1001,"x_min":35,"x_max":972,"o":"m 440 -22 l 440 -22 q 232 24 324 -22 q 88 149 140 69 q 35 326 35 228 l 35 326 q 35 348 35 338 q 38 368 36 358 l 38 368 q 92 529 46 454 q 210 663 138 604 q 374 753 283 721 q 561 786 464 786 l 561 786 q 772 740 679 786 q 919 614 865 693 q 972 435 972 535 l 972 435 q 972 415 972 425 q 969 393 971 404 l 969 393 q 913 233 960 308 q 794 100 867 157 q 630 10 721 43 q 440 -22 539 -22 z m 444 -4 l 444 -4 q 608 27 529 -4 q 751 113 688 58 q 856 239 815 167 q 907 392 897 311 l 907 392 q 909 413 908 403 q 910 432 910 422 l 910 432 q 864 601 910 526 q 738 721 818 676 q 557 765 658 765 l 557 765 q 383 730 467 765 q 235 633 300 694 q 133 493 171 572 q 96 326 96 414 l 96 326 q 141 158 96 233 q 265 40 186 83 q 444 -4 343 -4 z m 433 174 l 433 174 q 338 207 365 174 q 310 288 310 240 l 310 288 q 335 401 310 340 q 394 507 360 461 l 394 507 q 469 577 428 551 q 554 603 511 603 l 554 603 q 622 579 601 603 q 639 519 643 556 l 639 519 q 615 471 636 494 q 575 447 594 447 l 575 447 q 557 454 564 447 l 557 454 q 580 483 568 465 q 596 515 592 501 l 596 515 q 600 542 600 531 l 600 542 q 571 575 600 575 l 571 575 q 502 541 538 575 q 442 471 467 507 l 442 471 q 416 426 432 457 q 388 359 400 396 q 376 286 376 322 l 376 286 q 392 222 376 251 q 447 193 408 193 l 447 193 q 532 224 496 193 q 596 294 568 254 l 596 294 q 613 307 604 307 l 613 307 q 621 296 621 307 l 621 296 q 617 283 621 290 l 617 283 q 544 204 586 235 q 433 174 501 174 z "},"":{"ha":594,"x_min":139,"x_max":425,"o":"m 182 585 l 182 585 q 151 603 163 585 q 139 647 139 621 l 139 647 q 153 711 139 675 q 199 786 167 747 l 199 786 q 249 826 218 810 q 308 842 279 842 l 308 842 q 365 818 346 842 l 365 818 q 372 804 372 811 l 372 804 q 366 794 372 799 q 351 794 360 790 l 351 794 q 322 817 347 817 l 322 817 q 266 786 299 817 q 207 711 233 756 l 207 711 q 190 679 203 706 q 178 632 178 653 l 178 632 q 192 613 178 613 l 192 613 q 236 642 211 613 l 236 642 q 269 689 256 664 q 297 739 283 714 l 297 739 q 318 772 308 758 q 346 786 328 786 l 346 786 q 365 783 357 786 q 382 781 372 781 l 382 781 l 381 775 q 356 738 371 767 q 328 676 340 708 q 315 622 315 643 l 315 622 q 321 611 315 611 l 321 611 q 353 634 333 611 q 391 685 372 657 q 417 728 410 713 l 417 728 q 425 717 425 728 l 425 717 q 394 661 413 692 q 356 609 376 631 q 315 585 336 588 l 315 585 q 285 594 301 583 q 268 638 268 606 l 268 638 q 269 653 268 644 l 269 653 q 232 610 253 629 l 232 610 q 206 590 219 596 q 182 585 193 585 z "},"":{"ha":856,"x_min":183,"x_max":792,"o":"m 638 -3 l 638 -3 q 590 65 624 22 q 476 193 557 108 l 476 193 q 468 199 469 194 q 467 207 467 203 l 467 207 q 500 253 471 218 q 589 351 529 288 l 589 351 q 680 444 649 414 q 735 499 711 475 l 735 499 q 774 518 754 518 l 774 518 q 785 504 792 518 l 785 504 q 724 429 783 490 q 556 236 664 368 l 556 236 q 622 117 588 172 q 679 14 656 63 l 679 14 q 671 -1 676 6 q 656 -7 665 -7 l 656 -7 q 638 -3 649 -7 z m 356 -3 l 356 -3 q 306 65 340 22 q 192 193 272 108 l 192 193 q 185 199 186 194 q 183 207 183 203 l 183 207 q 216 254 186 218 q 304 351 246 290 l 304 351 q 340 390 331 379 q 353 403 350 400 q 363 413 357 407 q 389 438 369 419 q 450 497 408 457 l 450 497 q 474 515 465 511 q 489 518 482 518 l 489 518 q 500 504 507 518 l 500 504 q 440 429 499 490 q 274 236 381 368 l 274 236 q 338 117 304 172 q 394 14 371 63 l 394 14 q 372 -7 389 -7 l 372 -7 q 356 -3 367 -7 z "},"":{"ha":1128,"x_min":99,"x_max":935,"o":"m 825 19 l 825 19 q 806 30 813 19 q 800 50 799 40 l 800 50 l 856 318 q 735 319 796 319 q 613 319 674 319 l 613 319 q 370 319 492 319 q 126 318 249 318 l 126 318 q 108 323 118 318 q 99 338 99 328 l 99 338 q 115 367 99 349 q 142 385 131 385 l 142 385 l 935 385 l 864 50 q 825 19 857 19 z "},"":{"ha":1001,"x_min":35,"x_max":972,"o":"m 440 -22 l 440 -22 q 232 24 324 -22 q 88 149 140 69 q 35 326 35 228 l 35 326 q 35 348 35 338 q 38 368 36 358 l 38 368 q 92 529 46 454 q 210 663 138 604 q 374 753 283 721 q 561 786 464 786 l 561 786 q 772 740 679 786 q 919 614 865 693 q 972 435 972 535 l 972 435 q 972 415 972 425 q 969 393 971 404 l 969 393 q 913 233 960 308 q 794 100 867 157 q 630 10 721 43 q 440 -22 539 -22 z m 444 -4 l 444 -4 q 608 27 529 -4 q 751 113 688 58 q 856 239 815 167 q 907 392 897 311 l 907 392 q 909 413 908 403 q 910 432 910 422 l 910 432 q 864 601 910 526 q 738 721 818 676 q 557 765 658 765 l 557 765 q 383 730 467 765 q 235 633 300 694 q 133 493 171 572 q 96 326 96 414 l 96 326 q 141 158 96 233 q 265 40 186 83 q 444 -4 343 -4 z m 276 175 l 276 175 q 196 194 221 175 q 171 236 171 213 l 171 236 q 191 276 171 258 q 246 293 211 293 l 246 293 q 297 283 269 293 l 297 283 q 302 278 303 282 q 294 275 301 274 l 294 275 q 276 281 285 279 q 260 282 268 282 l 260 282 q 223 268 236 282 q 210 238 210 254 l 210 238 q 224 207 210 221 q 268 193 239 193 l 268 193 q 355 224 317 193 q 426 302 393 254 q 489 403 460 350 l 489 403 q 558 525 525 465 q 628 625 592 585 l 628 625 q 598 627 614 626 q 567 628 582 628 l 567 628 q 411 611 493 628 l 411 611 q 285 551 328 594 q 243 469 243 508 l 243 469 q 263 422 243 439 q 310 406 283 406 l 310 406 q 371 432 344 406 l 371 432 q 393 469 393 457 l 393 469 q 397 474 393 481 q 400 469 400 468 l 400 469 q 378 422 393 438 l 378 422 q 300 389 344 389 l 300 389 q 241 410 267 389 q 215 475 215 432 l 215 475 q 238 540 215 507 q 304 600 260 574 q 417 636 349 626 l 417 636 q 542 644 483 644 l 542 644 q 593 643 568 644 q 640 639 618 642 l 640 639 q 660 654 654 654 l 660 654 q 664 649 664 654 l 664 649 q 663 644 664 647 q 661 636 663 640 l 661 636 q 691 630 676 632 q 718 625 706 628 l 718 625 q 790 588 767 611 q 813 540 813 565 l 813 540 q 769 472 813 506 q 646 425 726 439 l 646 425 q 599 419 621 421 q 568 417 578 417 l 568 417 q 576 380 569 408 q 596 315 582 351 q 631 244 610 278 l 631 244 q 660 210 646 222 q 689 197 674 197 l 689 197 q 732 219 710 197 l 732 219 q 766 267 753 240 q 786 308 779 294 l 786 308 q 796 316 790 317 q 797 307 801 315 l 797 307 q 784 278 793 299 q 763 238 775 258 q 738 203 750 217 l 738 203 q 672 175 713 175 l 672 175 q 599 207 628 175 l 599 207 q 560 273 572 235 q 542 347 547 311 q 535 400 538 382 l 535 400 q 487 313 508 349 q 431 240 465 278 l 431 240 q 359 190 399 206 q 276 175 319 175 z m 564 436 l 564 436 q 595 438 578 436 q 631 442 613 440 l 631 442 q 697 465 667 447 q 746 508 728 483 q 764 554 764 532 l 764 554 q 715 608 764 593 l 715 608 q 692 613 706 611 q 664 618 679 615 l 664 618 q 613 528 639 572 q 564 436 588 485 z "},"":{"ha":307,"x_min":28,"x_max":279,"o":"m 246 599 l 28 599 q 38 626 28 611 q 75 647 49 642 l 75 647 l 279 650 q 273 624 279 643 q 246 599 267 606 l 246 599 z "},"":{"ha":450,"x_min":118,"x_max":336,"o":"m 203 688 l 203 688 q 140 711 161 688 q 118 769 118 735 l 118 769 q 139 838 118 808 q 191 883 160 867 q 250 900 222 900 l 250 900 q 313 876 290 900 q 336 815 336 851 l 336 815 q 319 756 336 785 q 271 707 301 726 q 203 688 240 688 z m 210 714 l 210 714 q 251 731 233 714 q 278 774 268 749 q 288 822 288 799 l 288 822 q 278 858 288 843 q 247 872 268 872 l 247 872 q 206 855 225 872 q 176 813 188 838 q 165 765 165 789 l 165 765 q 176 729 165 744 q 210 714 186 714 z "},"":{"ha":501,"x_min":75,"x_max":471,"o":"m 224 165 l 224 165 l 272 317 l 129 317 q 124 321 124 317 l 124 321 q 131 343 124 331 q 160 356 138 356 l 160 356 l 286 356 l 325 476 q 345 501 333 497 q 369 500 357 506 l 369 500 q 374 490 376 500 l 374 490 l 328 356 l 464 356 q 471 350 471 356 l 471 350 q 463 326 471 336 q 433 317 454 317 l 433 317 l 315 317 l 268 181 q 247 156 261 156 q 225 157 233 156 l 225 157 q 224 165 221 161 z m 385 17 l 81 17 q 75 21 75 17 l 75 21 q 82 43 75 31 q 111 56 89 56 l 111 56 l 415 56 q 422 50 422 56 l 422 50 q 414 26 422 36 q 385 17 406 17 l 385 17 z "},"":{"ha":399,"x_min":133,"x_max":531,"o":"m 143 572 l 143 572 q 133 581 133 572 l 133 581 q 139 592 133 586 l 139 592 q 207 645 167 614 q 269 697 247 676 l 269 697 q 328 756 296 722 q 390 825 361 789 q 439 897 419 861 q 458 963 458 932 l 458 963 q 426 999 458 999 l 426 999 q 358 963 386 999 q 310 888 329 928 l 310 888 q 302 878 307 881 q 294 876 297 876 l 294 876 q 285 890 281 876 l 285 890 q 321 959 297 926 q 378 1013 344 992 q 453 1035 411 1035 l 453 1035 q 508 1017 486 1035 q 531 965 531 999 l 531 965 q 502 896 531 935 q 431 817 474 857 q 347 740 389 776 q 276 679 304 704 l 276 679 l 267 671 q 303 645 278 657 q 351 633 329 633 l 351 633 q 399 649 375 633 q 436 681 424 665 l 436 681 q 454 696 450 696 l 454 696 q 463 689 463 696 l 463 689 q 453 671 463 682 l 453 671 q 421 633 440 654 q 379 597 401 613 q 335 581 357 582 l 335 581 q 263 592 297 579 q 210 617 229 604 l 210 617 l 160 579 q 153 575 157 578 q 143 572 149 572 z "},"":{"ha":358,"x_min":139,"x_max":511,"o":"m 225 579 l 225 579 q 172 590 192 579 q 143 621 153 601 l 143 621 q 140 631 140 628 q 139 636 139 635 l 139 636 q 144 642 139 642 l 144 642 q 156 632 151 642 l 156 632 q 178 608 163 618 q 218 599 193 599 l 218 599 q 298 628 261 599 q 358 699 335 657 q 382 776 382 740 l 382 776 q 372 809 382 796 q 344 822 363 822 l 344 822 q 313 814 332 822 q 278 806 294 806 l 278 806 q 267 813 267 806 l 267 813 q 274 821 267 818 l 274 821 q 342 849 304 828 q 409 902 381 871 q 438 967 438 933 l 438 967 q 407 994 438 994 l 407 994 q 356 976 381 994 q 313 938 331 957 l 313 938 q 300 931 306 931 l 300 931 q 293 938 293 931 l 293 938 q 303 953 293 942 l 303 953 q 361 1006 325 979 q 443 1033 397 1033 l 443 1033 q 491 1021 471 1033 q 511 981 511 1008 l 511 981 q 488 920 511 947 q 433 874 465 893 q 369 842 400 854 l 369 842 q 423 822 399 839 q 447 771 447 806 l 447 771 q 413 679 447 724 q 326 607 378 635 q 225 579 275 579 z "},"":{"ha":254,"x_min":28,"x_max":226,"o":"m 51 551 l 51 551 q 35 554 42 551 q 28 564 28 557 l 28 564 q 113 647 71 604 q 194 732 154 689 l 194 732 q 216 720 206 732 q 226 674 226 708 l 226 674 q 190 645 214 663 q 140 608 167 628 q 88 574 113 589 q 51 551 64 558 z "},"":{"ha":453,"x_min":-182,"x_max":576,"o":"m -126 -368 l -126 -368 q -151 -366 -136 -368 q -175 -360 -165 -364 l -175 -360 q -179 -356 -176 -357 q -181 -351 -182 -354 l -181 -351 l 89 176 q 158 315 125 246 q 235 449 192 385 l 235 449 l 239 449 q 261 442 249 442 l 261 442 q 296 451 276 442 q 328 471 315 461 l 328 471 l 329 469 q 292 417 308 446 q 261 361 276 389 l 261 361 q 238 319 251 343 q 197 250 224 294 l 197 250 q 164 188 183 226 q 130 111 144 150 q 115 44 115 72 l 115 44 q 123 17 115 28 q 149 6 131 6 l 149 6 q 212 35 179 6 q 275 106 244 64 q 330 188 306 147 q 367 251 354 229 l 367 251 q 425 357 399 307 q 472 458 451 407 l 472 458 l 476 458 q 493 451 483 454 q 513 447 503 447 l 513 447 q 537 455 525 447 q 554 475 549 463 l 554 475 l 558 475 l 449 263 q 423 213 439 244 q 391 148 407 182 q 365 83 375 114 q 354 31 354 51 l 354 31 q 359 10 354 19 q 378 1 364 1 l 378 1 q 436 28 407 1 q 492 93 465 54 q 538 169 518 132 q 565 228 557 207 l 565 228 l 574 228 l 576 224 q 545 158 565 197 q 498 80 525 118 q 440 15 471 42 q 374 -11 408 -11 l 374 -11 q 320 12 339 -11 q 301 69 301 35 l 301 69 q 317 143 301 106 l 317 143 q 272 81 300 117 q 208 17 243 44 q 138 -10 174 -10 l 138 -10 q 72 31 94 -10 l 72 31 l -108 -362 q -116 -367 -110 -367 q -126 -368 -122 -368 z "},"":{"ha":563,"x_min":203,"x_max":843,"o":"m 278 0 l 226 0 l 393 456 q 276 481 318 456 q 219 546 235 507 q 203 622 203 585 l 203 622 q 219 704 203 658 l 219 704 q 291 817 243 767 q 407 893 339 867 l 407 893 q 489 910 443 907 q 603 913 535 913 l 603 913 l 843 913 l 819 843 l 792 843 l 482 0 l 431 0 l 747 868 l 597 868 l 278 0 z "},"":{"ha":353,"x_min":214,"x_max":319,"o":"m 257 272 l 257 272 q 226 284 239 272 q 214 314 214 296 l 214 314 q 233 356 214 339 q 275 374 253 374 l 275 374 q 307 363 294 374 q 319 332 319 351 l 319 332 q 301 289 319 306 q 257 272 282 272 z "},"":{"ha":279,"x_min":0,"x_max":292,"o":"m 114 -304 l 114 -304 q 30 -281 60 -304 q 0 -239 0 -257 l 0 -239 q 8 -224 0 -224 l 8 -224 q 42 -256 22 -237 q 104 -274 63 -274 l 104 -274 q 183 -244 144 -274 q 221 -162 221 -214 l 221 -162 q 204 -122 221 -135 q 167 -108 188 -108 l 167 -108 q 120 -123 135 -108 q 99 -144 106 -137 l 99 -144 q 78 -136 92 -144 q 65 -121 65 -128 l 65 -121 q 94 -86 76 -107 q 130 -44 111 -65 q 162 -8 149 -22 q 178 7 175 7 l 178 7 q 188 3 182 7 q 194 -3 194 0 l 194 -3 q 181 -22 192 -6 q 159 -56 171 -37 q 138 -87 147 -74 l 138 -87 q 196 -76 156 -76 l 196 -76 q 260 -97 229 -76 q 292 -161 292 -118 l 292 -161 q 267 -228 292 -196 q 201 -283 242 -261 q 114 -304 161 -304 z "},"":{"ha":331,"x_min":201,"x_max":485,"o":"m 201 588 l 201 588 l 388 933 q 342 903 369 919 q 294 874 315 886 q 268 863 272 863 l 268 863 q 263 868 263 863 l 263 868 q 269 878 263 872 l 269 878 q 347 938 317 910 q 403 996 376 967 l 403 996 q 435 1026 422 1018 q 454 1036 447 1035 l 454 1036 q 466 1038 461 1038 q 474 1038 471 1038 l 474 1038 q 485 1029 485 1038 l 485 1029 q 481 1017 485 1025 l 481 1017 q 374 807 425 915 q 267 596 324 699 l 267 596 q 248 584 263 588 q 222 581 233 581 l 222 581 q 201 588 201 581 z "},"":{"ha":439,"x_min":139,"x_max":406,"o":"m 276 843 l 276 843 q 322 822 307 843 q 336 771 336 801 l 336 771 q 311 682 336 729 l 311 682 q 332 676 319 676 l 332 676 q 363 689 350 676 q 390 733 376 701 l 390 733 q 406 722 406 735 l 406 722 q 326 658 379 657 l 326 658 q 301 665 313 658 l 301 665 q 255 613 282 635 q 199 592 228 592 l 199 592 q 153 613 168 592 q 139 665 139 635 l 139 665 q 150 724 139 693 l 150 724 q 203 808 167 772 q 276 843 240 843 z m 308 757 l 308 757 q 310 767 310 763 q 310 776 310 772 l 310 776 q 288 813 310 813 l 288 813 q 243 786 265 813 q 206 724 221 760 l 206 724 q 188 650 188 679 l 188 650 q 208 615 188 615 l 208 615 q 253 641 231 615 q 285 685 275 667 l 285 685 q 272 715 274 704 q 269 731 269 725 l 269 731 q 277 753 269 746 q 294 761 285 761 l 294 761 q 308 757 303 761 z "},"":{"ha":838,"x_min":143,"x_max":749,"o":"m 442 -12 l 442 -12 q 431 3 425 -12 l 431 3 q 493 77 433 15 q 660 269 553 139 l 660 269 q 596 389 629 333 q 536 492 563 444 l 536 492 q 545 506 539 500 q 561 513 551 513 l 561 513 q 569 512 565 513 q 578 510 574 511 l 578 510 q 606 468 589 493 q 655 406 622 443 q 742 314 688 369 l 742 314 q 748 308 747 313 q 749 297 749 303 l 749 297 q 720 259 744 289 q 626 156 696 229 l 626 156 q 539 65 576 101 q 481 7 501 28 l 481 7 q 442 -12 461 -12 z m 158 -12 l 158 -12 q 148 -9 153 -12 q 147 3 143 -6 l 147 3 q 210 77 150 15 q 375 269 269 139 l 375 269 q 311 389 344 333 q 254 492 278 444 l 254 492 q 263 506 257 500 q 278 513 268 513 l 278 513 q 286 512 282 513 q 294 510 290 511 l 294 510 q 321 468 304 493 q 370 406 338 443 q 457 314 403 369 l 457 314 q 463 308 463 313 q 464 297 464 303 l 464 297 q 428 248 461 286 q 343 156 394 210 l 343 156 q 254 62 288 97 q 199 7 221 26 l 199 7 q 178 -6 190 0 q 158 -12 165 -12 z "},"":{"ha":726,"x_min":60,"x_max":797,"o":"m 146 440 l 146 440 l 332 786 q 287 756 314 772 q 238 727 260 739 q 213 715 217 715 l 213 715 q 207 721 207 715 l 207 721 q 214 731 207 725 l 214 731 q 291 791 261 763 q 347 849 321 819 l 347 849 q 379 879 367 871 q 399 889 392 888 l 399 889 q 410 890 406 890 q 418 890 415 890 l 418 890 q 429 882 429 890 l 429 882 q 425 869 429 878 l 425 869 q 319 660 369 768 q 211 449 268 551 l 211 449 q 192 437 207 440 q 167 433 178 433 l 167 433 q 146 440 146 433 z m 93 6 l 93 6 q 68 -8 79 -8 l 68 -8 q 60 -4 60 -8 l 60 -4 q 68 11 60 1 l 68 11 q 185 147 121 69 q 319 312 250 225 q 456 484 389 399 q 581 643 524 569 q 678 770 638 717 q 733 844 718 824 l 733 844 q 751 858 740 854 q 774 861 763 861 l 774 861 q 790 858 783 861 q 797 849 797 856 l 797 849 q 788 832 797 842 l 788 832 q 706 731 757 794 q 590 586 654 667 q 457 421 526 506 q 319 256 388 336 q 193 110 251 175 q 93 6 135 44 z m 546 -4 l 546 -4 q 588 83 567 40 q 618 146 608 125 l 618 146 l 443 142 l 449 165 q 508 238 476 206 q 565 300 539 269 l 565 300 q 619 364 593 332 q 667 431 644 396 l 667 431 q 697 453 678 447 q 735 460 717 460 l 735 460 q 768 453 758 460 l 768 453 q 743 419 767 446 q 683 358 719 393 q 610 289 647 324 q 544 229 572 254 l 544 229 q 519 208 531 217 q 493 175 508 199 l 493 175 l 638 179 q 657 221 649 203 q 682 274 665 239 l 682 274 q 707 292 689 285 q 738 299 725 299 l 738 299 q 753 282 760 299 l 753 282 q 742 258 751 278 q 723 217 733 239 q 706 182 713 196 l 706 182 l 726 182 q 736 172 736 182 l 736 172 q 730 158 736 167 q 708 149 724 150 l 708 149 l 689 149 l 619 4 q 600 -3 618 1 q 564 -7 582 -7 l 564 -7 q 546 -4 554 -7 z "},"":{"ha":738,"x_min":60,"x_max":811,"o":"m 146 440 l 146 440 l 332 786 q 287 756 314 772 q 238 727 260 739 q 213 715 217 715 l 213 715 q 207 721 207 715 l 207 721 q 214 731 207 725 l 214 731 q 291 791 261 763 q 347 849 321 819 l 347 849 q 379 879 367 871 q 399 889 392 888 l 399 889 q 410 890 406 890 q 418 890 415 890 l 418 890 q 429 882 429 890 l 429 882 q 425 869 429 878 l 425 869 q 319 660 369 768 q 211 449 268 551 l 211 449 q 192 437 207 440 q 167 433 178 433 l 167 433 q 146 440 146 433 z m 93 6 l 93 6 q 68 -8 79 -8 l 68 -8 q 60 -4 60 -8 l 60 -4 q 68 11 60 1 l 68 11 q 185 147 121 69 q 319 312 250 225 q 456 484 389 399 q 581 643 524 569 q 678 770 638 717 q 733 844 718 824 l 733 844 q 751 858 740 854 q 774 861 763 861 l 774 861 q 790 858 783 861 q 797 849 797 856 l 797 849 q 788 832 797 842 l 788 832 q 706 731 757 794 q 590 586 654 667 q 457 421 526 506 q 319 256 388 336 q 193 110 251 175 q 93 6 135 44 z m 424 -6 l 424 -6 q 414 3 414 -6 l 414 3 q 419 14 414 8 l 419 14 q 488 67 447 36 q 550 119 528 99 l 550 119 q 609 178 576 144 q 671 247 642 211 q 719 319 700 283 q 739 385 739 354 l 739 385 q 707 421 739 421 l 707 421 q 638 385 667 421 q 590 310 610 350 l 590 310 q 583 301 588 303 q 575 299 578 299 l 575 299 q 565 313 561 299 l 565 313 q 601 381 578 349 q 658 435 625 414 q 733 457 692 457 l 733 457 q 789 439 767 457 q 811 388 811 421 l 811 388 q 783 318 811 357 q 712 239 754 279 q 627 163 669 199 q 557 101 585 126 l 557 101 l 547 93 q 584 67 558 79 q 632 56 610 56 l 632 56 q 680 72 656 56 q 717 103 704 88 l 717 103 q 735 118 731 118 l 735 118 q 743 111 743 118 l 743 111 q 733 93 743 104 l 733 93 q 701 56 721 76 q 660 19 682 35 q 615 3 638 4 l 615 3 q 544 14 578 1 q 490 39 510 26 l 490 39 l 440 1 q 433 -3 438 0 q 424 -6 429 -6 z "},"":{"ha":754,"x_min":76,"x_max":825,"o":"m 163 435 l 163 435 q 110 446 129 435 q 81 476 90 457 l 81 476 q 77 487 78 483 q 76 492 76 490 l 76 492 q 82 497 76 497 l 82 497 q 93 488 89 497 l 93 488 q 115 464 100 474 q 156 454 131 454 l 156 454 q 235 483 199 454 q 296 554 272 513 q 319 632 319 596 l 319 632 q 310 665 319 651 q 282 678 300 678 l 282 678 q 251 669 269 678 q 215 661 232 661 l 215 661 q 204 668 204 661 l 204 668 q 211 676 204 674 l 211 676 q 280 705 242 683 q 347 758 318 726 q 375 822 375 789 l 375 822 q 344 850 375 850 l 344 850 q 293 831 318 850 q 250 793 268 813 l 250 793 q 238 786 243 786 l 238 786 q 231 793 231 786 l 231 793 q 240 808 231 797 l 240 808 q 299 862 263 835 q 381 889 335 889 l 381 889 q 428 876 408 889 q 449 836 449 864 l 449 836 q 426 776 449 803 q 370 729 403 749 q 307 697 338 710 l 307 697 q 360 678 336 694 q 385 626 385 661 l 385 626 q 350 535 385 579 q 264 463 315 490 q 163 435 213 435 z m 121 6 l 121 6 q 96 -8 107 -8 l 96 -8 q 88 -4 88 -8 l 88 -4 q 96 11 88 1 l 96 11 q 213 147 149 69 q 347 312 278 225 q 484 484 417 399 q 608 643 551 569 q 706 770 665 717 q 761 844 746 824 l 761 844 q 779 858 768 854 q 801 861 790 861 l 801 861 q 818 858 811 861 q 825 849 825 856 l 825 849 q 815 832 825 842 l 815 832 q 733 731 785 794 q 618 586 682 667 q 485 421 554 506 q 347 256 415 336 q 221 110 279 175 q 121 6 163 44 z m 574 -4 l 574 -4 q 615 83 594 40 q 646 146 636 125 l 646 146 l 471 142 l 476 165 q 535 238 504 206 q 593 300 567 269 l 593 300 q 647 364 621 332 q 694 431 672 396 l 694 431 q 725 453 706 447 q 763 460 744 460 l 763 460 q 796 453 786 460 l 796 453 q 771 419 794 446 q 711 358 747 393 q 638 289 675 324 q 572 229 600 254 l 572 229 q 547 208 558 217 q 521 175 536 199 l 521 175 l 665 179 q 685 221 676 203 q 710 274 693 239 l 710 274 q 735 292 717 285 q 765 299 753 299 l 765 299 q 781 282 788 299 l 781 282 q 770 258 779 278 q 751 217 761 239 q 733 182 740 196 l 733 182 l 754 182 q 764 172 764 182 l 764 172 q 758 158 764 167 q 736 149 751 150 l 736 149 l 717 149 l 647 4 q 628 -3 646 1 q 592 -7 610 -7 l 592 -7 q 574 -4 582 -7 z "},"":{"ha":575,"x_min":10,"x_max":526,"o":"m 458 354 l 458 354 q 424 367 438 354 q 410 401 410 381 l 410 401 q 431 449 410 429 q 478 469 451 469 l 478 469 q 513 456 500 469 q 526 421 526 442 l 526 421 q 505 374 526 394 q 458 354 483 354 z m 292 -412 l 292 -412 q 215 -445 253 -435 q 142 -456 176 -456 l 142 -456 q 48 -428 86 -456 q 10 -350 10 -401 l 10 -350 q 31 -270 10 -315 q 100 -171 53 -225 l 100 -171 q 190 -77 146 -119 q 276 8 235 -35 q 351 103 317 51 q 413 225 386 154 l 413 225 q 426 235 417 235 l 426 235 q 438 230 433 235 q 439 217 442 225 l 439 217 q 375 74 422 147 q 269 -70 328 1 q 160 -207 211 -142 l 160 -207 q 122 -267 133 -239 q 111 -318 111 -294 l 111 -318 q 138 -374 111 -354 q 206 -394 165 -394 l 206 -394 q 251 -389 228 -394 q 300 -371 275 -383 l 300 -371 q 357 -327 332 -356 q 378 -274 382 -299 l 378 -274 q 360 -303 374 -290 q 329 -324 346 -315 l 329 -324 q 289 -335 308 -335 l 289 -335 q 254 -319 267 -335 q 242 -283 242 -304 l 242 -283 q 249 -252 242 -268 q 274 -224 257 -236 l 274 -224 q 335 -200 303 -200 l 335 -200 q 384 -220 364 -200 q 404 -274 404 -240 l 404 -274 q 394 -319 404 -296 l 394 -319 q 350 -373 381 -350 q 292 -412 319 -396 z "},"":{"ha":994,"x_min":25,"x_max":1200,"o":"m 757 -89 l 757 -89 q 671 -41 696 -89 q 646 71 646 7 l 646 71 q 662 183 646 128 q 700 268 678 239 l 700 268 q 607 167 663 224 q 485 57 551 110 q 347 -31 418 4 q 207 -65 276 -65 l 207 -65 q 70 -7 115 -65 q 25 153 25 51 l 25 153 q 52 323 25 232 q 132 508 79 414 l 132 508 q 188 599 157 554 q 256 685 219 644 l 256 685 q 172 731 213 706 q 107 793 132 757 q 82 879 82 829 l 82 879 q 94 927 82 906 q 119 949 106 949 l 119 949 q 132 933 132 949 l 132 933 q 126 913 132 924 l 126 913 q 119 879 119 894 l 119 879 q 146 809 119 842 q 210 753 172 776 q 279 715 247 729 l 279 715 q 474 895 368 813 q 703 1028 581 978 q 960 1078 825 1078 l 960 1078 q 1136 1028 1072 1078 q 1200 901 1200 979 l 1200 901 q 1160 783 1200 832 q 1057 701 1121 733 q 919 649 993 668 q 772 623 844 631 q 646 615 700 615 l 646 615 q 492 625 567 615 q 344 656 418 635 l 344 656 q 266 537 308 604 q 185 395 224 469 q 123 248 147 321 q 99 113 99 175 l 99 113 q 131 10 99 44 q 217 -24 163 -24 l 217 -24 q 355 16 282 -24 q 501 119 428 56 q 642 258 575 183 q 761 407 708 333 q 844 538 814 481 l 844 538 q 890 601 868 582 q 928 619 913 619 l 928 619 q 951 608 943 619 q 960 576 960 596 l 960 576 q 925 499 960 538 l 925 499 q 833 367 878 444 q 761 206 789 290 q 733 49 733 122 l 733 49 q 749 -25 733 -3 q 792 -47 765 -47 l 792 -47 q 873 -20 832 -47 q 951 53 914 7 q 1021 155 989 99 q 1076 268 1053 211 l 1076 268 q 1088 267 1083 268 q 1093 256 1093 265 l 1093 256 q 1037 135 1069 196 q 963 23 1004 74 q 869 -58 921 -28 q 757 -89 818 -89 z m 633 649 l 633 649 q 757 655 689 649 q 892 678 825 661 q 1017 725 960 694 q 1108 803 1074 756 q 1143 918 1143 850 l 1143 918 q 1092 1011 1143 979 q 964 1043 1042 1043 l 964 1043 q 728 992 835 1043 q 534 860 622 942 q 367 683 446 778 l 367 683 q 492 657 428 665 q 633 649 557 649 z m 1086 1126 l 1086 1126 q 1044 1173 1072 1142 q 992 1236 1017 1204 q 958 1286 967 1268 l 958 1286 q 982 1324 969 1318 q 1004 1326 994 1331 l 1004 1326 l 1110 1129 q 1101 1124 1108 1124 q 1086 1126 1094 1125 z "},"":{"ha":994,"x_min":25,"x_max":1258,"o":"m 757 -89 l 757 -89 q 671 -41 696 -89 q 646 71 646 7 l 646 71 q 662 183 646 128 q 700 268 678 239 l 700 268 q 607 167 663 224 q 485 57 551 110 q 347 -31 418 4 q 207 -65 276 -65 l 207 -65 q 70 -7 115 -65 q 25 153 25 51 l 25 153 q 52 323 25 232 q 132 508 79 414 l 132 508 q 188 599 157 554 q 256 685 219 644 l 256 685 q 172 731 213 706 q 107 793 132 757 q 82 879 82 829 l 82 879 q 94 927 82 906 q 119 949 106 949 l 119 949 q 132 933 132 949 l 132 933 q 126 913 132 924 l 126 913 q 119 879 119 894 l 119 879 q 146 809 119 842 q 210 753 172 776 q 279 715 247 729 l 279 715 q 474 895 368 813 q 703 1028 581 978 q 960 1078 825 1078 l 960 1078 q 1136 1028 1072 1078 q 1200 901 1200 979 l 1200 901 q 1160 783 1200 832 q 1057 701 1121 733 q 919 649 993 668 q 772 623 844 631 q 646 615 700 615 l 646 615 q 492 625 567 615 q 344 656 418 635 l 344 656 q 266 537 308 604 q 185 395 224 469 q 123 248 147 321 q 99 113 99 175 l 99 113 q 131 10 99 44 q 217 -24 163 -24 l 217 -24 q 355 16 282 -24 q 501 119 428 56 q 642 258 575 183 q 761 407 708 333 q 844 538 814 481 l 844 538 q 890 601 868 582 q 928 619 913 619 l 928 619 q 951 608 943 619 q 960 576 960 596 l 960 576 q 925 499 960 538 l 925 499 q 833 367 878 444 q 761 206 789 290 q 733 49 733 122 l 733 49 q 749 -25 733 -3 q 792 -47 765 -47 l 792 -47 q 873 -20 832 -47 q 951 53 914 7 q 1021 155 989 99 q 1076 268 1053 211 l 1076 268 q 1088 267 1083 268 q 1093 256 1093 265 l 1093 256 q 1037 135 1069 196 q 963 23 1004 74 q 869 -58 921 -28 q 757 -89 818 -89 z m 633 649 l 633 649 q 757 655 689 649 q 892 678 825 661 q 1017 725 960 694 q 1108 803 1074 756 q 1143 918 1143 850 l 1143 918 q 1092 1011 1143 979 q 964 1043 1042 1043 l 964 1043 q 728 992 835 1043 q 534 860 622 942 q 367 683 446 778 l 367 683 q 492 657 428 665 q 633 649 557 649 z m 1036 1143 l 1036 1143 q 1019 1149 1026 1146 q 1011 1163 1011 1153 l 1011 1163 q 1121 1242 1065 1199 q 1226 1326 1176 1285 l 1226 1326 q 1248 1314 1238 1326 q 1256 1267 1258 1301 l 1256 1267 q 1212 1239 1242 1257 q 1147 1202 1182 1221 q 1083 1167 1113 1183 q 1036 1143 1053 1151 z "},"":{"ha":994,"x_min":25,"x_max":1247,"o":"m 757 -89 l 757 -89 q 671 -41 696 -89 q 646 71 646 7 l 646 71 q 662 183 646 128 q 700 268 678 239 l 700 268 q 607 167 663 224 q 485 57 551 110 q 347 -31 418 4 q 207 -65 276 -65 l 207 -65 q 70 -7 115 -65 q 25 153 25 51 l 25 153 q 52 323 25 232 q 132 508 79 414 l 132 508 q 188 599 157 554 q 256 685 219 644 l 256 685 q 172 731 213 706 q 107 793 132 757 q 82 879 82 829 l 82 879 q 94 927 82 906 q 119 949 106 949 l 119 949 q 132 933 132 949 l 132 933 q 126 913 132 924 l 126 913 q 119 879 119 894 l 119 879 q 146 809 119 842 q 210 753 172 776 q 279 715 247 729 l 279 715 q 474 895 368 813 q 703 1028 581 978 q 960 1078 825 1078 l 960 1078 q 1136 1028 1072 1078 q 1200 901 1200 979 l 1200 901 q 1160 783 1200 832 q 1057 701 1121 733 q 919 649 993 668 q 772 623 844 631 q 646 615 700 615 l 646 615 q 492 625 567 615 q 344 656 418 635 l 344 656 q 266 537 308 604 q 185 395 224 469 q 123 248 147 321 q 99 113 99 175 l 99 113 q 131 10 99 44 q 217 -24 163 -24 l 217 -24 q 355 16 282 -24 q 501 119 428 56 q 642 258 575 183 q 761 407 708 333 q 844 538 814 481 l 844 538 q 890 601 868 582 q 928 619 913 619 l 928 619 q 951 608 943 619 q 960 576 960 596 l 960 576 q 925 499 960 538 l 925 499 q 833 367 878 444 q 761 206 789 290 q 733 49 733 122 l 733 49 q 749 -25 733 -3 q 792 -47 765 -47 l 792 -47 q 873 -20 832 -47 q 951 53 914 7 q 1021 155 989 99 q 1076 268 1053 211 l 1076 268 q 1088 267 1083 268 q 1093 256 1093 265 l 1093 256 q 1037 135 1069 196 q 963 23 1004 74 q 869 -58 921 -28 q 757 -89 818 -89 z m 633 649 l 633 649 q 757 655 689 649 q 892 678 825 661 q 1017 725 960 694 q 1108 803 1074 756 q 1143 918 1143 850 l 1143 918 q 1092 1011 1143 979 q 964 1043 1042 1043 l 964 1043 q 728 992 835 1043 q 534 860 622 942 q 367 683 446 778 l 367 683 q 492 657 428 665 q 633 649 557 649 z m 1160 1319 l 1160 1319 q 1185 1314 1179 1319 l 1185 1314 l 1246 1169 q 1247 1167 1246 1168 q 1247 1167 1247 1167 l 1247 1167 q 1236 1163 1247 1163 l 1236 1163 q 1223 1165 1231 1163 q 1213 1169 1215 1167 l 1213 1169 l 1135 1249 l 960 1169 q 929 1161 950 1161 l 929 1161 q 917 1164 922 1161 q 915 1169 911 1167 l 915 1169 l 1121 1314 q 1137 1318 1128 1317 q 1160 1319 1146 1319 z "},"":{"ha":994,"x_min":25,"x_max":1281,"o":"m 757 -89 l 757 -89 q 671 -41 696 -89 q 646 71 646 7 l 646 71 q 662 183 646 128 q 700 268 678 239 l 700 268 q 607 167 663 224 q 485 57 551 110 q 347 -31 418 4 q 207 -65 276 -65 l 207 -65 q 70 -7 115 -65 q 25 153 25 51 l 25 153 q 52 323 25 232 q 132 508 79 414 l 132 508 q 188 599 157 554 q 256 685 219 644 l 256 685 q 172 731 213 706 q 107 793 132 757 q 82 879 82 829 l 82 879 q 94 927 82 906 q 119 949 106 949 l 119 949 q 132 933 132 949 l 132 933 q 126 913 132 924 l 126 913 q 119 879 119 894 l 119 879 q 146 809 119 842 q 210 753 172 776 q 279 715 247 729 l 279 715 q 474 895 368 813 q 703 1028 581 978 q 960 1078 825 1078 l 960 1078 q 1136 1028 1072 1078 q 1200 901 1200 979 l 1200 901 q 1160 783 1200 832 q 1057 701 1121 733 q 919 649 993 668 q 772 623 844 631 q 646 615 700 615 l 646 615 q 492 625 567 615 q 344 656 418 635 l 344 656 q 266 537 308 604 q 185 395 224 469 q 123 248 147 321 q 99 113 99 175 l 99 113 q 131 10 99 44 q 217 -24 163 -24 l 217 -24 q 355 16 282 -24 q 501 119 428 56 q 642 258 575 183 q 761 407 708 333 q 844 538 814 481 l 844 538 q 890 601 868 582 q 928 619 913 619 l 928 619 q 951 608 943 619 q 960 576 960 596 l 960 576 q 925 499 960 538 l 925 499 q 833 367 878 444 q 761 206 789 290 q 733 49 733 122 l 733 49 q 749 -25 733 -3 q 792 -47 765 -47 l 792 -47 q 873 -20 832 -47 q 951 53 914 7 q 1021 155 989 99 q 1076 268 1053 211 l 1076 268 q 1088 267 1083 268 q 1093 256 1093 265 l 1093 256 q 1037 135 1069 196 q 963 23 1004 74 q 869 -58 921 -28 q 757 -89 818 -89 z m 633 649 l 633 649 q 757 655 689 649 q 892 678 825 661 q 1017 725 960 694 q 1108 803 1074 756 q 1143 918 1143 850 l 1143 918 q 1092 1011 1143 979 q 964 1043 1042 1043 l 964 1043 q 728 992 835 1043 q 534 860 622 942 q 367 683 446 778 l 367 683 q 492 657 428 665 q 633 649 557 649 z m 1279 1263 l 1279 1263 q 1234 1196 1264 1229 q 1163 1163 1204 1163 l 1163 1163 q 1106 1175 1133 1163 q 1052 1199 1079 1188 q 997 1211 1025 1211 l 997 1211 q 961 1199 976 1211 q 938 1171 946 1188 l 938 1171 q 925 1167 936 1167 l 925 1167 q 908 1174 906 1167 l 908 1174 q 954 1235 925 1204 q 1025 1267 983 1267 l 1025 1267 q 1083 1256 1056 1267 q 1137 1233 1110 1244 q 1192 1221 1164 1221 l 1192 1221 q 1228 1233 1214 1221 q 1253 1265 1243 1246 l 1253 1265 q 1264 1269 1256 1269 l 1264 1269 q 1276 1267 1271 1269 q 1279 1263 1281 1265 z "},"":{"ha":994,"x_min":25,"x_max":1222,"o":"m 757 -89 l 757 -89 q 671 -41 696 -89 q 646 71 646 7 l 646 71 q 662 183 646 128 q 700 268 678 239 l 700 268 q 607 167 663 224 q 485 57 551 110 q 347 -31 418 4 q 207 -65 276 -65 l 207 -65 q 70 -7 115 -65 q 25 153 25 51 l 25 153 q 52 323 25 232 q 132 508 79 414 l 132 508 q 188 599 157 554 q 256 685 219 644 l 256 685 q 172 731 213 706 q 107 793 132 757 q 82 879 82 829 l 82 879 q 94 927 82 906 q 119 949 106 949 l 119 949 q 132 933 132 949 l 132 933 q 126 913 132 924 l 126 913 q 119 879 119 894 l 119 879 q 146 809 119 842 q 210 753 172 776 q 279 715 247 729 l 279 715 q 474 895 368 813 q 703 1028 581 978 q 960 1078 825 1078 l 960 1078 q 1136 1028 1072 1078 q 1200 901 1200 979 l 1200 901 q 1160 783 1200 832 q 1057 701 1121 733 q 919 649 993 668 q 772 623 844 631 q 646 615 700 615 l 646 615 q 492 625 567 615 q 344 656 418 635 l 344 656 q 266 537 308 604 q 185 395 224 469 q 123 248 147 321 q 99 113 99 175 l 99 113 q 131 10 99 44 q 217 -24 163 -24 l 217 -24 q 355 16 282 -24 q 501 119 428 56 q 642 258 575 183 q 761 407 708 333 q 844 538 814 481 l 844 538 q 890 601 868 582 q 928 619 913 619 l 928 619 q 951 608 943 619 q 960 576 960 596 l 960 576 q 925 499 960 538 l 925 499 q 833 367 878 444 q 761 206 789 290 q 733 49 733 122 l 733 49 q 749 -25 733 -3 q 792 -47 765 -47 l 792 -47 q 873 -20 832 -47 q 951 53 914 7 q 1021 155 989 99 q 1076 268 1053 211 l 1076 268 q 1088 267 1083 268 q 1093 256 1093 265 l 1093 256 q 1037 135 1069 196 q 963 23 1004 74 q 869 -58 921 -28 q 757 -89 818 -89 z m 633 649 l 633 649 q 757 655 689 649 q 892 678 825 661 q 1017 725 960 694 q 1108 803 1074 756 q 1143 918 1143 850 l 1143 918 q 1092 1011 1143 979 q 964 1043 1042 1043 l 964 1043 q 728 992 835 1043 q 534 860 622 942 q 367 683 446 778 l 367 683 q 492 657 428 665 q 633 649 557 649 z m 1158 1151 l 1158 1151 q 1128 1165 1140 1151 q 1115 1197 1115 1179 l 1115 1197 q 1135 1239 1115 1221 q 1176 1257 1154 1257 l 1176 1257 q 1209 1244 1196 1257 q 1222 1214 1222 1232 l 1222 1214 q 1203 1171 1222 1190 q 1158 1151 1185 1151 z m 996 1151 l 996 1151 q 965 1165 978 1151 q 953 1197 953 1179 l 953 1197 q 972 1239 953 1221 q 1014 1257 992 1257 l 1014 1257 q 1047 1244 1033 1257 q 1060 1214 1060 1232 l 1060 1214 q 1041 1171 1060 1190 q 996 1151 1022 1151 z "},"":{"ha":994,"x_min":25,"x_max":1254,"o":"m 757 -89 l 757 -89 q 671 -41 696 -89 q 646 71 646 7 l 646 71 q 662 183 646 128 q 700 268 678 239 l 700 268 q 607 167 663 224 q 485 57 551 110 q 347 -31 418 4 q 207 -65 276 -65 l 207 -65 q 70 -7 115 -65 q 25 153 25 51 l 25 153 q 52 323 25 232 q 132 508 79 414 l 132 508 q 188 599 157 554 q 256 685 219 644 l 256 685 q 172 731 213 706 q 107 793 132 757 q 82 879 82 829 l 82 879 q 94 927 82 906 q 119 949 106 949 l 119 949 q 132 933 132 949 l 132 933 q 126 913 132 924 l 126 913 q 119 879 119 894 l 119 879 q 146 809 119 842 q 210 753 172 776 q 279 715 247 729 l 279 715 q 474 895 368 813 q 703 1028 581 978 q 960 1078 825 1078 l 960 1078 q 1136 1028 1072 1078 q 1200 901 1200 979 l 1200 901 q 1160 783 1200 832 q 1057 701 1121 733 q 919 649 993 668 q 772 623 844 631 q 646 615 700 615 l 646 615 q 492 625 567 615 q 344 656 418 635 l 344 656 q 266 537 308 604 q 185 395 224 469 q 123 248 147 321 q 99 113 99 175 l 99 113 q 131 10 99 44 q 217 -24 163 -24 l 217 -24 q 355 16 282 -24 q 501 119 428 56 q 642 258 575 183 q 761 407 708 333 q 844 538 814 481 l 844 538 q 890 601 868 582 q 928 619 913 619 l 928 619 q 951 608 943 619 q 960 576 960 596 l 960 576 q 925 499 960 538 l 925 499 q 833 367 878 444 q 761 206 789 290 q 733 49 733 122 l 733 49 q 749 -25 733 -3 q 792 -47 765 -47 l 792 -47 q 873 -20 832 -47 q 951 53 914 7 q 1021 155 989 99 q 1076 268 1053 211 l 1076 268 q 1088 267 1083 268 q 1093 256 1093 265 l 1093 256 q 1037 135 1069 196 q 963 23 1004 74 q 869 -58 921 -28 q 757 -89 818 -89 z m 633 649 l 633 649 q 757 655 689 649 q 892 678 825 661 q 1017 725 960 694 q 1108 803 1074 756 q 1143 918 1143 850 l 1143 918 q 1092 1011 1143 979 q 964 1043 1042 1043 l 964 1043 q 728 992 835 1043 q 534 860 622 942 q 367 683 446 778 l 367 683 q 492 657 428 665 q 633 649 557 649 z m 1079 1164 l 1079 1164 q 1011 1185 1040 1164 q 986 1247 982 1206 l 986 1247 q 1018 1316 990 1288 q 1084 1360 1046 1344 q 1158 1375 1122 1375 l 1158 1375 q 1226 1356 1199 1375 q 1250 1292 1254 1336 l 1250 1292 q 1219 1225 1246 1254 q 1156 1180 1193 1196 q 1079 1164 1118 1164 z m 1097 1189 l 1097 1189 q 1155 1217 1125 1189 q 1189 1285 1185 1244 l 1189 1285 q 1178 1335 1192 1319 q 1143 1350 1165 1350 l 1143 1350 q 1083 1324 1114 1350 q 1047 1254 1053 1299 l 1047 1254 q 1060 1206 1044 1224 q 1097 1189 1075 1189 z "},"":{"ha":1917,"x_min":25,"x_max":1888,"o":"m 1151 -160 l 1151 -160 q 884 -114 990 -160 q 726 5 778 -68 q 674 161 674 78 l 674 161 q 690 258 674 211 l 690 258 q 598 158 653 214 q 478 51 543 103 q 344 -33 413 0 q 208 -67 275 -67 l 208 -67 q 126 -50 167 -67 l 126 -50 q 50 24 75 -29 q 25 153 25 78 l 25 153 q 52 323 25 232 q 132 508 79 414 l 132 508 q 188 599 157 554 q 256 685 219 644 l 256 685 q 176 728 213 704 q 115 782 140 753 l 115 782 q 90 828 99 801 q 82 879 82 854 l 82 879 q 103 938 82 924 l 103 938 q 119 949 110 949 l 119 949 q 132 933 132 949 l 132 933 q 126 913 132 924 l 126 913 q 119 879 119 894 l 119 879 q 131 838 119 857 q 157 803 142 819 l 157 803 q 279 715 201 750 l 279 715 q 474 895 368 813 q 703 1028 581 978 q 960 1078 825 1078 l 960 1078 q 1078 1059 1028 1078 q 1160 1008 1129 1040 l 1160 1008 q 1362 1092 1251 1063 q 1568 1121 1472 1121 l 1568 1121 q 1595 1121 1583 1121 q 1628 1118 1607 1121 l 1628 1118 q 1811 1057 1753 1104 q 1869 954 1869 1010 l 1869 954 q 1806 834 1869 893 q 1626 749 1742 775 l 1626 749 q 1603 744 1614 746 q 1586 743 1593 743 l 1586 743 q 1567 750 1567 743 l 1567 750 q 1581 765 1567 756 q 1621 775 1596 774 l 1621 775 q 1699 808 1663 779 q 1758 877 1736 836 q 1781 958 1781 918 l 1781 958 q 1745 1039 1781 1003 q 1622 1083 1710 1075 l 1622 1083 q 1597 1085 1610 1085 q 1571 1086 1583 1086 l 1571 1086 q 1368 1051 1471 1086 q 1189 958 1265 1017 l 1189 958 q 1198 931 1196 944 q 1200 901 1200 917 l 1200 901 q 1172 808 1200 858 q 1076 715 1143 758 l 1076 715 q 1127 640 1089 667 q 1215 599 1165 613 q 1310 575 1264 585 q 1384 551 1356 565 q 1408 508 1413 536 l 1408 508 q 1383 486 1404 492 q 1326 481 1361 481 l 1326 481 q 1269 482 1300 481 q 1203 483 1239 483 l 1203 483 q 1113 479 1160 483 q 1019 461 1067 475 l 1019 461 q 893 392 947 440 q 810 279 839 343 q 781 150 781 215 l 781 150 q 819 16 781 79 q 940 -87 857 -47 q 1154 -126 1022 -126 l 1154 -126 q 1378 -96 1268 -126 q 1582 -19 1489 -65 q 1733 76 1675 28 l 1733 76 q 1810 162 1782 117 q 1839 238 1839 207 l 1839 238 q 1796 286 1839 276 l 1796 286 q 1756 307 1756 296 l 1756 307 q 1772 315 1756 315 l 1772 315 q 1811 306 1790 315 l 1811 306 q 1888 204 1888 268 l 1888 204 q 1860 122 1888 165 q 1783 36 1833 79 l 1783 36 q 1615 -66 1715 -22 q 1395 -135 1514 -110 q 1151 -160 1276 -160 z m 606 649 l 606 649 q 767 657 678 649 l 767 657 q 875 673 824 661 q 968 701 926 685 l 968 701 q 963 738 963 717 l 963 738 q 1007 874 963 811 q 1121 985 1051 938 l 1121 985 q 1058 1028 1100 1013 q 964 1043 1017 1043 l 964 1043 q 728 992 835 1043 q 534 860 622 942 q 367 683 446 778 l 367 683 q 606 649 472 649 z m 1074 772 l 1072 767 q 1143 915 1143 833 l 1143 915 q 1095 849 1114 885 q 1074 772 1076 813 l 1074 772 z m 217 -24 l 217 -24 q 337 7 269 -24 q 478 99 404 38 l 478 99 q 622 236 551 160 q 750 392 692 313 q 844 538 808 471 l 844 538 q 890 601 868 582 q 928 619 913 619 l 928 619 q 951 608 943 619 q 960 576 960 596 l 960 576 q 952 539 960 560 q 925 499 944 518 l 925 499 q 918 488 921 494 l 918 488 q 963 508 939 499 q 1008 524 986 518 l 1008 524 q 1084 541 1046 535 q 1157 549 1122 547 l 1157 549 q 1060 596 1110 564 q 983 671 1011 628 l 983 671 q 876 639 929 649 q 767 624 822 629 l 767 624 q 705 619 728 621 q 663 616 682 617 q 618 615 644 615 l 618 615 q 478 625 546 615 q 344 656 411 635 l 344 656 q 281 561 319 621 q 206 433 243 501 q 143 304 168 365 l 143 304 q 110 198 121 246 q 99 113 99 150 l 99 113 q 131 10 99 44 q 217 -24 163 -24 z "},"":{"ha":992,"x_min":83,"x_max":1188,"o":"m 515 -149 l 515 -149 q 291 -98 389 -149 q 138 52 193 -47 q 83 296 83 151 l 83 296 q 106 468 83 382 q 166 633 128 554 q 251 779 204 713 l 251 779 q 231 960 231 863 l 231 960 q 247 1100 231 1033 l 247 1100 q 267 1119 253 1119 l 267 1119 q 276 1106 278 1119 l 276 1106 q 269 1047 272 1078 q 267 972 267 1015 l 267 972 q 282 819 267 892 l 282 819 q 310 853 296 838 l 310 853 q 444 970 367 915 q 617 1058 522 1025 q 819 1092 713 1092 l 819 1092 q 1003 1055 919 1092 q 1137 949 1086 1018 q 1188 783 1188 881 l 1188 783 q 1155 658 1188 722 q 1062 541 1122 594 q 916 454 1001 488 q 725 421 831 421 l 725 421 q 471 482 586 421 q 292 668 356 543 l 292 668 q 210 468 236 569 q 183 275 183 367 l 183 275 q 228 58 183 142 q 351 -65 272 -25 q 531 -104 429 -104 l 531 -104 q 848 -13 711 -104 q 1074 268 985 78 l 1074 268 q 1090 256 1090 268 l 1090 256 q 855 -49 1004 50 q 515 -149 706 -149 z m 351 761 l 351 761 q 317 710 333 736 l 317 710 q 465 526 365 596 q 717 457 565 457 l 717 457 q 888 486 813 457 q 1016 564 964 515 q 1096 672 1068 613 q 1124 790 1124 731 l 1124 790 q 1084 919 1124 864 q 976 1006 1044 975 q 822 1038 908 1038 l 822 1038 q 649 1001 736 1038 q 485 903 563 965 q 351 761 408 840 z m 421 -439 l 421 -439 q 337 -415 367 -439 q 307 -374 307 -392 l 307 -374 q 315 -358 307 -358 l 315 -358 q 349 -390 329 -372 q 411 -408 369 -408 l 411 -408 q 490 -378 451 -408 q 528 -297 528 -349 l 528 -297 q 511 -256 528 -269 q 474 -243 494 -243 l 474 -243 q 427 -258 442 -243 q 406 -279 413 -272 l 406 -279 q 385 -271 399 -279 q 372 -256 372 -262 l 372 -256 q 401 -221 383 -242 q 437 -178 418 -200 q 469 -142 456 -157 q 485 -128 482 -128 l 485 -128 q 495 -131 489 -128 q 501 -137 501 -135 l 501 -137 q 488 -156 499 -140 q 466 -190 478 -172 q 444 -222 454 -208 l 444 -222 q 503 -211 463 -211 l 503 -211 q 567 -232 536 -211 q 599 -296 599 -253 l 599 -296 q 574 -363 599 -331 q 508 -417 549 -396 q 421 -439 468 -439 z "},"":{"ha":1138,"x_min":31,"x_max":1199,"o":"m 453 -82 l 453 -82 q 215 -42 308 -82 q 76 64 121 -1 q 31 203 31 129 l 31 203 q 74 354 31 286 q 187 472 117 422 q 342 551 257 522 q 508 585 426 581 l 508 585 q 391 658 436 611 q 346 760 346 704 l 346 760 q 381 869 346 817 q 476 965 417 921 q 612 1040 536 1008 q 769 1090 688 1072 q 928 1107 851 1107 l 928 1107 q 1125 1065 1051 1107 q 1199 958 1199 1024 l 1199 958 q 1134 840 1199 899 q 956 757 1069 782 l 956 757 q 926 753 933 753 l 926 753 q 911 765 911 753 l 911 765 q 916 772 911 769 q 938 779 921 774 l 938 779 q 1068 858 1019 807 q 1117 965 1117 908 l 1117 965 q 1070 1044 1117 1014 q 931 1074 1024 1074 l 931 1074 q 763 1050 847 1074 q 607 983 678 1026 q 493 885 536 940 q 450 764 450 829 l 450 764 q 478 688 450 717 q 549 641 506 658 q 638 613 592 624 q 724 590 685 603 l 724 590 q 742 579 738 586 q 746 565 746 572 l 746 565 q 726 535 746 547 q 669 522 706 522 l 669 522 q 620 523 647 522 q 563 524 593 524 l 563 524 q 472 519 519 524 q 367 497 424 515 l 367 497 q 241 428 294 475 q 158 324 188 381 q 129 211 129 267 l 129 211 q 163 81 129 139 q 268 -12 196 22 q 458 -46 340 -46 l 458 -46 q 668 -18 567 -46 q 856 53 769 10 q 1003 144 942 97 l 1003 144 q 1084 226 1053 185 q 1115 299 1115 268 l 1115 299 q 1061 346 1115 338 l 1061 346 q 1047 354 1047 347 l 1047 354 q 1067 365 1047 365 l 1067 365 q 1138 338 1107 365 q 1169 271 1169 311 l 1169 271 q 1057 104 1169 192 l 1057 104 q 891 8 989 50 q 680 -58 793 -33 q 453 -82 567 -82 z m 1010 1169 l 1010 1169 q 968 1216 996 1185 q 915 1279 940 1247 q 882 1329 890 1311 l 882 1329 q 906 1367 893 1361 q 928 1369 918 1374 l 928 1369 l 1033 1172 q 1025 1167 1032 1167 q 1010 1169 1018 1168 z "},"":{"ha":1138,"x_min":31,"x_max":1199,"o":"m 453 -82 l 453 -82 q 215 -42 308 -82 q 76 64 121 -1 q 31 203 31 129 l 31 203 q 74 354 31 286 q 187 472 117 422 q 342 551 257 522 q 508 585 426 581 l 508 585 q 391 658 436 611 q 346 760 346 704 l 346 760 q 381 869 346 817 q 476 965 417 921 q 612 1040 536 1008 q 769 1090 688 1072 q 928 1107 851 1107 l 928 1107 q 1125 1065 1051 1107 q 1199 958 1199 1024 l 1199 958 q 1134 840 1199 899 q 956 757 1069 782 l 956 757 q 926 753 933 753 l 926 753 q 911 765 911 753 l 911 765 q 916 772 911 769 q 938 779 921 774 l 938 779 q 1068 858 1019 807 q 1117 965 1117 908 l 1117 965 q 1070 1044 1117 1014 q 931 1074 1024 1074 l 931 1074 q 763 1050 847 1074 q 607 983 678 1026 q 493 885 536 940 q 450 764 450 829 l 450 764 q 478 688 450 717 q 549 641 506 658 q 638 613 592 624 q 724 590 685 603 l 724 590 q 742 579 738 586 q 746 565 746 572 l 746 565 q 726 535 746 547 q 669 522 706 522 l 669 522 q 620 523 647 522 q 563 524 593 524 l 563 524 q 472 519 519 524 q 367 497 424 515 l 367 497 q 241 428 294 475 q 158 324 188 381 q 129 211 129 267 l 129 211 q 163 81 129 139 q 268 -12 196 22 q 458 -46 340 -46 l 458 -46 q 668 -18 567 -46 q 856 53 769 10 q 1003 144 942 97 l 1003 144 q 1084 226 1053 185 q 1115 299 1115 268 l 1115 299 q 1061 346 1115 338 l 1061 346 q 1047 354 1047 347 l 1047 354 q 1067 365 1047 365 l 1067 365 q 1138 338 1107 365 q 1169 271 1169 311 l 1169 271 q 1057 104 1169 192 l 1057 104 q 891 8 989 50 q 680 -58 793 -33 q 453 -82 567 -82 z m 960 1186 l 960 1186 q 942 1192 950 1189 q 935 1206 935 1196 l 935 1206 q 1044 1285 989 1242 q 1150 1369 1100 1328 l 1150 1369 q 1172 1357 1161 1369 q 1179 1310 1182 1344 l 1179 1310 q 1135 1282 1165 1300 q 1071 1245 1106 1264 q 1006 1210 1036 1226 q 960 1186 976 1194 z "},"":{"ha":1138,"x_min":31,"x_max":1199,"o":"m 453 -82 l 453 -82 q 215 -42 308 -82 q 76 64 121 -1 q 31 203 31 129 l 31 203 q 74 354 31 286 q 187 472 117 422 q 342 551 257 522 q 508 585 426 581 l 508 585 q 391 658 436 611 q 346 760 346 704 l 346 760 q 381 869 346 817 q 476 965 417 921 q 612 1040 536 1008 q 769 1090 688 1072 q 928 1107 851 1107 l 928 1107 q 1125 1065 1051 1107 q 1199 958 1199 1024 l 1199 958 q 1134 840 1199 899 q 956 757 1069 782 l 956 757 q 926 753 933 753 l 926 753 q 911 765 911 753 l 911 765 q 916 772 911 769 q 938 779 921 774 l 938 779 q 1068 858 1019 807 q 1117 965 1117 908 l 1117 965 q 1070 1044 1117 1014 q 931 1074 1024 1074 l 931 1074 q 763 1050 847 1074 q 607 983 678 1026 q 493 885 536 940 q 450 764 450 829 l 450 764 q 478 688 450 717 q 549 641 506 658 q 638 613 592 624 q 724 590 685 603 l 724 590 q 742 579 738 586 q 746 565 746 572 l 746 565 q 726 535 746 547 q 669 522 706 522 l 669 522 q 620 523 647 522 q 563 524 593 524 l 563 524 q 472 519 519 524 q 367 497 424 515 l 367 497 q 241 428 294 475 q 158 324 188 381 q 129 211 129 267 l 129 211 q 163 81 129 139 q 268 -12 196 22 q 458 -46 340 -46 l 458 -46 q 668 -18 567 -46 q 856 53 769 10 q 1003 144 942 97 l 1003 144 q 1084 226 1053 185 q 1115 299 1115 268 l 1115 299 q 1061 346 1115 338 l 1061 346 q 1047 354 1047 347 l 1047 354 q 1067 365 1047 365 l 1067 365 q 1138 338 1107 365 q 1169 271 1169 311 l 1169 271 q 1057 104 1169 192 l 1057 104 q 891 8 989 50 q 680 -58 793 -33 q 453 -82 567 -82 z m 1083 1363 l 1083 1363 q 1108 1357 1103 1363 l 1108 1357 l 1169 1213 q 1170 1210 1169 1211 q 1171 1210 1171 1210 l 1171 1210 q 1160 1206 1171 1206 l 1160 1206 q 1147 1208 1154 1206 q 1136 1213 1139 1210 l 1136 1213 l 1058 1292 l 883 1213 q 853 1204 874 1204 l 853 1204 q 840 1207 846 1204 q 839 1213 835 1210 l 839 1213 l 1044 1357 q 1060 1361 1051 1360 q 1083 1363 1069 1363 z "},"":{"ha":1138,"x_min":31,"x_max":1199,"o":"m 453 -82 l 453 -82 q 215 -42 308 -82 q 76 64 121 -1 q 31 203 31 129 l 31 203 q 74 354 31 286 q 187 472 117 422 q 342 551 257 522 q 508 585 426 581 l 508 585 q 391 658 436 611 q 346 760 346 704 l 346 760 q 381 869 346 817 q 476 965 417 921 q 612 1040 536 1008 q 769 1090 688 1072 q 928 1107 851 1107 l 928 1107 q 1125 1065 1051 1107 q 1199 958 1199 1024 l 1199 958 q 1134 840 1199 899 q 956 757 1069 782 l 956 757 q 926 753 933 753 l 926 753 q 911 765 911 753 l 911 765 q 916 772 911 769 q 938 779 921 774 l 938 779 q 1068 858 1019 807 q 1117 965 1117 908 l 1117 965 q 1070 1044 1117 1014 q 931 1074 1024 1074 l 931 1074 q 763 1050 847 1074 q 607 983 678 1026 q 493 885 536 940 q 450 764 450 829 l 450 764 q 478 688 450 717 q 549 641 506 658 q 638 613 592 624 q 724 590 685 603 l 724 590 q 742 579 738 586 q 746 565 746 572 l 746 565 q 726 535 746 547 q 669 522 706 522 l 669 522 q 620 523 647 522 q 563 524 593 524 l 563 524 q 472 519 519 524 q 367 497 424 515 l 367 497 q 241 428 294 475 q 158 324 188 381 q 129 211 129 267 l 129 211 q 163 81 129 139 q 268 -12 196 22 q 458 -46 340 -46 l 458 -46 q 668 -18 567 -46 q 856 53 769 10 q 1003 144 942 97 l 1003 144 q 1084 226 1053 185 q 1115 299 1115 268 l 1115 299 q 1061 346 1115 338 l 1061 346 q 1047 354 1047 347 l 1047 354 q 1067 365 1047 365 l 1067 365 q 1138 338 1107 365 q 1169 271 1169 311 l 1169 271 q 1057 104 1169 192 l 1057 104 q 891 8 989 50 q 680 -58 793 -33 q 453 -82 567 -82 z m 1082 1194 l 1082 1194 q 1051 1208 1064 1194 q 1039 1240 1039 1222 l 1039 1240 q 1058 1282 1039 1264 q 1100 1300 1078 1300 l 1100 1300 q 1133 1288 1119 1300 q 1146 1257 1146 1275 l 1146 1257 q 1127 1214 1146 1233 q 1082 1194 1108 1194 z m 919 1194 l 919 1194 q 889 1208 901 1194 q 876 1240 876 1222 l 876 1240 q 896 1282 876 1264 q 938 1300 915 1300 l 938 1300 q 970 1288 957 1300 q 983 1257 983 1275 l 983 1257 q 965 1214 983 1233 q 919 1194 946 1194 z "},"":{"ha":1274,"x_min":-26,"x_max":1671,"o":"m 467 -269 l 467 -269 q 279 -241 368 -269 q 122 -162 190 -212 q 13 -44 53 -111 q -26 99 -26 22 l -26 99 q -5 237 -26 178 q 47 335 17 296 q 107 394 78 374 l 107 394 q 167 427 140 418 q 199 436 193 436 l 199 436 q 207 429 207 436 l 207 429 q 200 418 207 422 l 200 418 q 90 297 128 375 q 51 131 51 218 l 51 131 q 76 1 51 64 q 151 -115 100 -62 q 286 -197 203 -167 q 488 -228 369 -228 l 488 -228 q 656 -191 575 -228 q 810 -94 738 -154 q 944 40 882 -33 q 1057 188 1007 114 q 1142 324 1107 261 l 1142 324 q 1256 558 1208 442 q 1349 786 1303 674 q 1461 1006 1396 899 l 1461 1006 q 1328 978 1397 994 q 1192 938 1258 963 q 1071 878 1125 914 q 985 791 1017 842 q 953 672 953 740 l 953 672 q 982 584 953 617 q 1063 551 1011 551 l 1063 551 q 1127 571 1094 551 q 1183 626 1160 590 q 1206 711 1206 661 l 1206 711 q 1201 744 1206 732 q 1194 761 1197 756 l 1194 761 q 1198 772 1194 767 q 1207 778 1201 778 l 1207 778 q 1226 753 1219 778 q 1232 714 1232 729 l 1232 714 q 1210 619 1232 664 q 1147 547 1189 575 q 1042 519 1104 519 l 1042 519 q 926 563 974 519 q 878 678 878 606 l 878 678 q 916 802 878 747 q 1019 898 954 857 q 1163 968 1083 939 q 1325 1015 1242 997 q 1483 1043 1408 1033 l 1483 1043 q 1541 1124 1504 1086 q 1625 1161 1578 1161 l 1625 1161 q 1657 1151 1644 1161 q 1669 1121 1669 1142 l 1669 1121 q 1651 1076 1669 1096 q 1606 1044 1633 1057 q 1551 1023 1578 1031 q 1504 1013 1524 1015 l 1504 1013 q 1408 799 1444 903 q 1341 594 1371 694 q 1269 393 1311 493 l 1269 393 q 1133 132 1210 253 q 958 -79 1056 11 q 738 -219 860 -169 q 467 -269 615 -269 z m 1528 1049 l 1528 1049 q 1601 1074 1582 1060 q 1619 1099 1619 1088 l 1619 1099 q 1604 1117 1619 1117 l 1604 1117 q 1565 1099 1586 1117 q 1528 1049 1543 1081 z m 1647 1199 l 1647 1199 q 1606 1245 1633 1214 q 1553 1308 1578 1276 q 1519 1358 1528 1340 l 1519 1358 q 1543 1397 1531 1390 q 1565 1399 1556 1403 l 1565 1399 l 1671 1201 q 1663 1197 1669 1196 q 1647 1199 1656 1197 z "},"":{"ha":1274,"x_min":-26,"x_max":1819,"o":"m 467 -269 l 467 -269 q 279 -241 368 -269 q 122 -162 190 -212 q 13 -44 53 -111 q -26 99 -26 22 l -26 99 q -5 237 -26 178 q 47 335 17 296 q 107 394 78 374 l 107 394 q 167 427 140 418 q 199 436 193 436 l 199 436 q 207 429 207 436 l 207 429 q 200 418 207 422 l 200 418 q 90 297 128 375 q 51 131 51 218 l 51 131 q 76 1 51 64 q 151 -115 100 -62 q 286 -197 203 -167 q 488 -228 369 -228 l 488 -228 q 656 -191 575 -228 q 810 -94 738 -154 q 944 40 882 -33 q 1057 188 1007 114 q 1142 324 1107 261 l 1142 324 q 1256 558 1208 442 q 1349 786 1303 674 q 1461 1006 1396 899 l 1461 1006 q 1328 978 1397 994 q 1192 938 1258 963 q 1071 878 1125 914 q 985 791 1017 842 q 953 672 953 740 l 953 672 q 982 584 953 617 q 1063 551 1011 551 l 1063 551 q 1127 571 1094 551 q 1183 626 1160 590 q 1206 711 1206 661 l 1206 711 q 1201 744 1206 732 q 1194 761 1197 756 l 1194 761 q 1198 772 1194 767 q 1207 778 1201 778 l 1207 778 q 1226 753 1219 778 q 1232 714 1232 729 l 1232 714 q 1210 619 1232 664 q 1147 547 1189 575 q 1042 519 1104 519 l 1042 519 q 926 563 974 519 q 878 678 878 606 l 878 678 q 916 802 878 747 q 1019 898 954 857 q 1163 968 1083 939 q 1325 1015 1242 997 q 1483 1043 1408 1033 l 1483 1043 q 1541 1124 1504 1086 q 1625 1161 1578 1161 l 1625 1161 q 1657 1151 1644 1161 q 1669 1121 1669 1142 l 1669 1121 q 1651 1076 1669 1096 q 1606 1044 1633 1057 q 1551 1023 1578 1031 q 1504 1013 1524 1015 l 1504 1013 q 1408 799 1444 903 q 1341 594 1371 694 q 1269 393 1311 493 l 1269 393 q 1133 132 1210 253 q 958 -79 1056 11 q 738 -219 860 -169 q 467 -269 615 -269 z m 1528 1049 l 1528 1049 q 1601 1074 1582 1060 q 1619 1099 1619 1088 l 1619 1099 q 1604 1117 1619 1117 l 1604 1117 q 1565 1099 1586 1117 q 1528 1049 1543 1081 z m 1597 1215 l 1597 1215 q 1580 1222 1588 1218 q 1572 1235 1572 1225 l 1572 1235 q 1682 1314 1626 1271 q 1788 1399 1738 1357 l 1788 1399 q 1809 1386 1799 1399 q 1817 1339 1819 1374 l 1817 1339 q 1773 1311 1803 1329 q 1708 1274 1743 1293 q 1644 1240 1674 1256 q 1597 1215 1614 1224 z "},"":{"ha":1274,"x_min":-26,"x_max":1808,"o":"m 467 -269 l 467 -269 q 279 -241 368 -269 q 122 -162 190 -212 q 13 -44 53 -111 q -26 99 -26 22 l -26 99 q -5 237 -26 178 q 47 335 17 296 q 107 394 78 374 l 107 394 q 167 427 140 418 q 199 436 193 436 l 199 436 q 207 429 207 436 l 207 429 q 200 418 207 422 l 200 418 q 90 297 128 375 q 51 131 51 218 l 51 131 q 76 1 51 64 q 151 -115 100 -62 q 286 -197 203 -167 q 488 -228 369 -228 l 488 -228 q 656 -191 575 -228 q 810 -94 738 -154 q 944 40 882 -33 q 1057 188 1007 114 q 1142 324 1107 261 l 1142 324 q 1256 558 1208 442 q 1349 786 1303 674 q 1461 1006 1396 899 l 1461 1006 q 1328 978 1397 994 q 1192 938 1258 963 q 1071 878 1125 914 q 985 791 1017 842 q 953 672 953 740 l 953 672 q 982 584 953 617 q 1063 551 1011 551 l 1063 551 q 1127 571 1094 551 q 1183 626 1160 590 q 1206 711 1206 661 l 1206 711 q 1201 744 1206 732 q 1194 761 1197 756 l 1194 761 q 1198 772 1194 767 q 1207 778 1201 778 l 1207 778 q 1226 753 1219 778 q 1232 714 1232 729 l 1232 714 q 1210 619 1232 664 q 1147 547 1189 575 q 1042 519 1104 519 l 1042 519 q 926 563 974 519 q 878 678 878 606 l 878 678 q 916 802 878 747 q 1019 898 954 857 q 1163 968 1083 939 q 1325 1015 1242 997 q 1483 1043 1408 1033 l 1483 1043 q 1541 1124 1504 1086 q 1625 1161 1578 1161 l 1625 1161 q 1657 1151 1644 1161 q 1669 1121 1669 1142 l 1669 1121 q 1651 1076 1669 1096 q 1606 1044 1633 1057 q 1551 1023 1578 1031 q 1504 1013 1524 1015 l 1504 1013 q 1408 799 1444 903 q 1341 594 1371 694 q 1269 393 1311 493 l 1269 393 q 1133 132 1210 253 q 958 -79 1056 11 q 738 -219 860 -169 q 467 -269 615 -269 z m 1528 1049 l 1528 1049 q 1601 1074 1582 1060 q 1619 1099 1619 1088 l 1619 1099 q 1604 1117 1619 1117 l 1604 1117 q 1565 1099 1586 1117 q 1528 1049 1543 1081 z m 1721 1392 l 1721 1392 q 1746 1386 1740 1392 l 1746 1386 l 1807 1242 q 1808 1240 1807 1240 q 1808 1239 1808 1239 l 1808 1239 q 1797 1235 1808 1235 l 1797 1235 q 1784 1237 1792 1235 q 1774 1242 1776 1239 l 1774 1242 l 1696 1321 l 1521 1242 q 1490 1233 1511 1233 l 1490 1233 q 1478 1236 1483 1233 q 1476 1242 1472 1239 l 1476 1242 l 1682 1386 q 1698 1390 1689 1389 q 1721 1392 1707 1392 z "},"":{"ha":1274,"x_min":-26,"x_max":1783,"o":"m 467 -269 l 467 -269 q 279 -241 368 -269 q 122 -162 190 -212 q 13 -44 53 -111 q -26 99 -26 22 l -26 99 q -5 237 -26 178 q 47 335 17 296 q 107 394 78 374 l 107 394 q 167 427 140 418 q 199 436 193 436 l 199 436 q 207 429 207 436 l 207 429 q 200 418 207 422 l 200 418 q 90 297 128 375 q 51 131 51 218 l 51 131 q 76 1 51 64 q 151 -115 100 -62 q 286 -197 203 -167 q 488 -228 369 -228 l 488 -228 q 656 -191 575 -228 q 810 -94 738 -154 q 944 40 882 -33 q 1057 188 1007 114 q 1142 324 1107 261 l 1142 324 q 1256 558 1208 442 q 1349 786 1303 674 q 1461 1006 1396 899 l 1461 1006 q 1328 978 1397 994 q 1192 938 1258 963 q 1071 878 1125 914 q 985 791 1017 842 q 953 672 953 740 l 953 672 q 982 584 953 617 q 1063 551 1011 551 l 1063 551 q 1127 571 1094 551 q 1183 626 1160 590 q 1206 711 1206 661 l 1206 711 q 1201 744 1206 732 q 1194 761 1197 756 l 1194 761 q 1198 772 1194 767 q 1207 778 1201 778 l 1207 778 q 1226 753 1219 778 q 1232 714 1232 729 l 1232 714 q 1210 619 1232 664 q 1147 547 1189 575 q 1042 519 1104 519 l 1042 519 q 926 563 974 519 q 878 678 878 606 l 878 678 q 916 802 878 747 q 1019 898 954 857 q 1163 968 1083 939 q 1325 1015 1242 997 q 1483 1043 1408 1033 l 1483 1043 q 1541 1124 1504 1086 q 1625 1161 1578 1161 l 1625 1161 q 1657 1151 1644 1161 q 1669 1121 1669 1142 l 1669 1121 q 1651 1076 1669 1096 q 1606 1044 1633 1057 q 1551 1023 1578 1031 q 1504 1013 1524 1015 l 1504 1013 q 1408 799 1444 903 q 1341 594 1371 694 q 1269 393 1311 493 l 1269 393 q 1133 132 1210 253 q 958 -79 1056 11 q 738 -219 860 -169 q 467 -269 615 -269 z m 1528 1049 l 1528 1049 q 1601 1074 1582 1060 q 1619 1099 1619 1088 l 1619 1099 q 1604 1117 1619 1117 l 1604 1117 q 1565 1099 1586 1117 q 1528 1049 1543 1081 z m 1719 1224 l 1719 1224 q 1689 1238 1701 1224 q 1676 1269 1676 1251 l 1676 1269 q 1696 1311 1676 1293 q 1738 1329 1715 1329 l 1738 1329 q 1770 1317 1757 1329 q 1783 1286 1783 1304 l 1783 1286 q 1765 1243 1783 1263 q 1719 1224 1746 1224 z m 1557 1224 l 1557 1224 q 1526 1238 1539 1224 q 1514 1269 1514 1251 l 1514 1269 q 1533 1311 1514 1293 q 1575 1329 1553 1329 l 1575 1329 q 1608 1317 1594 1329 q 1621 1286 1621 1304 l 1621 1286 q 1602 1243 1621 1263 q 1557 1224 1583 1224 z "},"":{"ha":1433,"x_min":6,"x_max":1432,"o":"m 240 -54 l 240 -54 q 175 -50 208 -54 l 175 -50 q 47 2 88 -39 q 6 90 6 43 l 6 90 q 51 183 6 142 q 179 225 96 225 l 179 225 q 300 203 235 225 l 300 203 q 369 174 328 194 q 450 133 410 154 q 513 100 490 113 l 513 100 q 624 236 574 158 q 722 400 675 314 l 722 400 l 593 400 q 601 428 593 408 q 632 449 610 449 l 632 449 l 749 449 q 883 699 814 572 q 1042 925 951 825 l 1042 925 q 883 994 969 969 q 704 1018 796 1018 l 704 1018 q 634 1014 669 1018 q 563 1003 599 1010 l 563 1003 q 344 915 433 975 q 210 783 256 854 q 165 647 165 711 l 165 647 q 190 564 165 600 q 267 513 215 528 l 267 513 q 332 501 304 501 l 332 501 q 412 520 378 501 q 469 567 446 539 q 505 621 493 594 q 518 664 517 647 l 518 664 q 531 674 518 674 l 531 674 q 546 650 550 674 l 546 650 q 504 553 539 594 q 421 490 469 513 q 321 467 372 467 l 321 467 q 251 478 288 467 l 251 478 q 144 555 188 500 q 100 685 100 610 l 100 685 q 149 833 100 758 q 307 967 199 907 q 590 1051 415 1026 l 590 1051 q 708 1060 649 1060 l 708 1060 q 902 1036 807 1060 q 1082 968 997 1013 l 1082 968 l 1117 1008 q 1152 1036 1129 1019 q 1199 1068 1175 1053 q 1233 1088 1222 1083 l 1233 1088 q 1263 1094 1251 1094 l 1263 1094 q 1271 1090 1271 1094 l 1271 1090 q 1249 1067 1271 1081 l 1249 1067 q 1224 1045 1235 1057 q 1207 1026 1213 1033 l 1207 1026 q 1174 979 1186 997 q 1143 932 1163 961 l 1143 932 q 1351 713 1271 847 q 1432 407 1432 579 l 1432 407 q 1428 333 1432 371 l 1428 333 q 1379 172 1419 244 q 1274 50 1339 100 q 1131 -27 1210 0 q 967 -54 1053 -54 l 967 -54 q 903 -50 935 -54 l 903 -50 q 678 -6 767 -33 q 524 50 590 21 l 524 50 q 240 -54 397 -54 z m 943 -12 l 943 -12 q 1140 35 1054 -12 q 1278 161 1225 83 q 1340 329 1331 239 l 1340 329 q 1344 396 1344 363 l 1344 396 q 1280 672 1344 547 q 1110 881 1215 796 l 1110 881 q 978 668 1046 781 q 843 449 911 556 l 843 449 l 1010 449 q 1008 433 1010 446 q 999 410 1007 421 q 972 400 992 400 l 972 400 l 813 400 q 708 245 758 317 q 611 125 657 174 l 611 125 q 587 101 601 117 q 557 75 572 85 l 557 75 q 706 22 622 46 q 901 -11 789 -1 l 901 -11 q 923 -12 914 -12 q 943 -12 932 -12 z m 210 -11 l 210 -11 q 353 8 286 -15 q 476 72 419 31 l 476 72 q 375 122 426 96 q 267 168 324 147 l 267 168 q 200 181 229 181 l 200 181 q 122 152 149 181 q 96 89 96 124 l 96 89 q 125 22 96 51 q 210 -11 154 -8 z "},"":{"ha":1450,"x_min":-4,"x_max":1718,"o":"m 1390 -204 l 1390 -204 q 1237 -149 1286 -200 q 1188 -12 1188 -99 l 1188 -12 q 1215 126 1188 44 q 1285 301 1242 207 q 1376 490 1328 394 q 1467 672 1424 585 q 1537 829 1510 760 q 1564 938 1564 899 l 1564 938 q 1539 984 1564 969 q 1486 999 1514 999 l 1486 999 q 1383 972 1439 999 q 1269 901 1326 944 q 1159 806 1211 857 q 1068 708 1107 756 l 1068 708 q 933 521 997 622 q 815 315 869 419 q 716 115 761 210 q 636 -50 671 21 l 636 -50 q 603 -80 626 -69 q 560 -90 581 -90 l 560 -90 q 529 -83 542 -90 q 521 -60 517 -75 l 521 -60 q 589 55 550 -17 q 669 215 628 126 q 749 401 710 304 q 820 590 789 497 q 870 760 851 682 q 889 890 889 838 l 889 890 q 843 1028 889 988 q 724 1069 797 1069 l 724 1069 q 563 1034 650 1069 q 390 935 475 999 q 235 788 306 872 q 122 606 164 704 q 79 406 79 508 l 79 406 q 123 256 79 315 q 253 196 167 196 l 253 196 q 388 226 326 196 q 495 306 450 257 q 565 407 540 354 q 590 504 590 460 l 590 504 q 569 571 590 544 q 503 597 547 597 l 503 597 q 481 596 489 597 q 465 594 472 594 l 465 594 q 456 604 456 594 l 456 604 q 461 613 456 610 q 469 617 467 615 l 469 617 q 503 624 488 622 q 532 625 518 625 l 532 625 q 616 594 589 625 q 643 517 643 564 l 643 517 q 615 406 643 467 q 534 292 586 346 q 410 204 482 239 q 250 169 338 169 l 250 169 q 125 202 183 169 q 31 296 67 235 q -4 443 -4 357 l -4 443 q 35 624 -4 532 q 144 803 74 717 q 309 957 215 889 q 513 1065 403 1025 q 740 1104 622 1104 l 740 1104 q 854 1083 803 1104 q 937 1013 906 1061 q 968 882 968 964 l 968 882 q 956 794 968 844 q 926 688 944 743 q 887 580 907 632 q 848 488 867 528 q 819 428 829 447 l 819 428 q 882 524 844 469 q 961 635 919 579 q 1040 738 1003 692 l 1040 738 q 1139 847 1085 790 q 1255 953 1193 904 q 1384 1033 1317 1003 q 1521 1064 1451 1064 l 1521 1064 q 1617 1035 1576 1064 q 1658 932 1658 1007 l 1658 932 q 1630 799 1658 872 q 1557 643 1601 726 q 1463 472 1513 560 q 1369 295 1414 385 q 1297 119 1325 206 q 1268 -46 1268 33 l 1268 -46 q 1290 -135 1268 -103 q 1354 -168 1313 -168 l 1354 -168 q 1422 -150 1385 -168 l 1422 -150 q 1445 -141 1435 -143 q 1461 -139 1456 -139 l 1461 -139 q 1482 -154 1482 -139 l 1482 -154 q 1457 -187 1482 -169 q 1390 -204 1432 -206 z m 1717 1236 l 1717 1236 q 1672 1169 1701 1203 q 1600 1136 1642 1136 l 1600 1136 q 1544 1149 1571 1136 q 1490 1173 1517 1161 q 1435 1185 1463 1185 l 1435 1185 q 1399 1173 1414 1185 q 1375 1144 1383 1161 l 1375 1144 q 1363 1140 1374 1140 l 1363 1140 q 1346 1147 1343 1140 l 1346 1147 q 1392 1209 1363 1178 q 1463 1240 1421 1240 l 1463 1240 q 1520 1229 1493 1240 q 1574 1206 1547 1218 q 1629 1194 1601 1194 l 1629 1194 q 1666 1207 1651 1194 q 1690 1239 1681 1219 l 1690 1239 q 1701 1243 1693 1243 l 1701 1243 q 1713 1241 1708 1243 q 1717 1236 1718 1239 z "},"":{"ha":1014,"x_min":69,"x_max":1267,"o":"m 439 -85 l 439 -85 q 217 3 297 -85 q 138 251 138 90 l 138 251 q 179 461 138 353 l 179 461 q 95 552 121 501 q 69 675 69 603 l 69 675 q 113 846 69 771 q 231 974 157 921 q 396 1056 304 1028 q 582 1083 488 1083 l 582 1083 q 763 1055 675 1083 q 919 967 850 1026 q 1026 818 988 908 q 1058 603 1064 728 l 1058 603 q 1172 691 1124 643 q 1242 779 1219 739 l 1242 779 q 1256 792 1249 792 l 1256 792 q 1265 781 1263 792 q 1257 754 1267 769 l 1257 754 q 1172 647 1222 700 q 1053 553 1121 594 l 1053 553 q 1044 484 1051 522 q 1022 404 1036 446 l 1022 404 q 938 233 996 319 q 801 75 881 147 q 629 -41 722 3 q 439 -85 536 -85 z m 485 431 l 485 431 q 731 465 601 431 q 975 558 861 499 l 975 558 q 978 594 978 576 q 978 628 978 611 l 978 628 q 928 864 978 769 q 792 1006 879 958 q 588 1053 704 1053 l 588 1053 q 417 1025 497 1053 q 276 947 338 997 q 179 829 214 897 q 144 679 144 761 l 144 679 q 155 598 144 642 q 204 519 165 554 l 204 519 q 257 613 224 561 q 334 719 290 665 q 428 817 378 772 q 534 888 479 861 q 644 915 589 915 l 644 915 q 692 910 668 915 q 739 890 717 904 l 739 890 q 750 878 750 883 l 750 878 q 744 871 750 874 q 728 871 738 868 l 728 871 q 688 876 710 876 l 688 876 q 586 847 638 876 q 486 769 535 817 q 396 666 438 721 q 323 559 354 611 q 275 471 292 507 l 275 471 q 485 431 360 431 z m 450 -51 l 450 -51 q 602 -12 528 -51 q 742 93 676 26 q 860 242 808 160 q 942 410 911 324 l 942 410 q 957 459 950 433 q 965 508 964 485 l 965 508 q 725 417 853 449 q 481 385 597 385 l 481 385 q 256 422 351 385 l 256 422 q 213 207 213 313 l 213 207 q 280 13 213 78 q 450 -51 347 -51 z m 765 1154 l 765 1154 q 724 1201 751 1169 q 671 1264 696 1232 q 638 1314 646 1296 l 638 1314 q 661 1352 649 1346 q 683 1354 674 1358 l 683 1354 l 789 1157 q 781 1152 788 1151 q 765 1154 774 1153 z "},"":{"ha":1014,"x_min":69,"x_max":1267,"o":"m 439 -85 l 439 -85 q 217 3 297 -85 q 138 251 138 90 l 138 251 q 179 461 138 353 l 179 461 q 95 552 121 501 q 69 675 69 603 l 69 675 q 113 846 69 771 q 231 974 157 921 q 396 1056 304 1028 q 582 1083 488 1083 l 582 1083 q 763 1055 675 1083 q 919 967 850 1026 q 1026 818 988 908 q 1058 603 1064 728 l 1058 603 q 1172 691 1124 643 q 1242 779 1219 739 l 1242 779 q 1256 792 1249 792 l 1256 792 q 1265 781 1263 792 q 1257 754 1267 769 l 1257 754 q 1172 647 1222 700 q 1053 553 1121 594 l 1053 553 q 1044 484 1051 522 q 1022 404 1036 446 l 1022 404 q 938 233 996 319 q 801 75 881 147 q 629 -41 722 3 q 439 -85 536 -85 z m 485 431 l 485 431 q 731 465 601 431 q 975 558 861 499 l 975 558 q 978 594 978 576 q 978 628 978 611 l 978 628 q 928 864 978 769 q 792 1006 879 958 q 588 1053 704 1053 l 588 1053 q 417 1025 497 1053 q 276 947 338 997 q 179 829 214 897 q 144 679 144 761 l 144 679 q 155 598 144 642 q 204 519 165 554 l 204 519 q 257 613 224 561 q 334 719 290 665 q 428 817 378 772 q 534 888 479 861 q 644 915 589 915 l 644 915 q 692 910 668 915 q 739 890 717 904 l 739 890 q 750 878 750 883 l 750 878 q 744 871 750 874 q 728 871 738 868 l 728 871 q 688 876 710 876 l 688 876 q 586 847 638 876 q 486 769 535 817 q 396 666 438 721 q 323 559 354 611 q 275 471 292 507 l 275 471 q 485 431 360 431 z m 450 -51 l 450 -51 q 602 -12 528 -51 q 742 93 676 26 q 860 242 808 160 q 942 410 911 324 l 942 410 q 957 459 950 433 q 965 508 964 485 l 965 508 q 725 417 853 449 q 481 385 597 385 l 481 385 q 256 422 351 385 l 256 422 q 213 207 213 313 l 213 207 q 280 13 213 78 q 450 -51 347 -51 z m 715 1171 l 715 1171 q 698 1177 706 1174 q 690 1190 690 1181 l 690 1190 q 800 1269 744 1226 q 906 1354 856 1313 l 906 1354 q 927 1342 917 1354 q 935 1294 938 1329 l 935 1294 q 891 1267 921 1285 q 826 1230 861 1249 q 762 1195 792 1211 q 715 1171 732 1179 z "},"":{"ha":1014,"x_min":69,"x_max":1267,"o":"m 439 -85 l 439 -85 q 217 3 297 -85 q 138 251 138 90 l 138 251 q 179 461 138 353 l 179 461 q 95 552 121 501 q 69 675 69 603 l 69 675 q 113 846 69 771 q 231 974 157 921 q 396 1056 304 1028 q 582 1083 488 1083 l 582 1083 q 763 1055 675 1083 q 919 967 850 1026 q 1026 818 988 908 q 1058 603 1064 728 l 1058 603 q 1172 691 1124 643 q 1242 779 1219 739 l 1242 779 q 1256 792 1249 792 l 1256 792 q 1265 781 1263 792 q 1257 754 1267 769 l 1257 754 q 1172 647 1222 700 q 1053 553 1121 594 l 1053 553 q 1044 484 1051 522 q 1022 404 1036 446 l 1022 404 q 938 233 996 319 q 801 75 881 147 q 629 -41 722 3 q 439 -85 536 -85 z m 485 431 l 485 431 q 731 465 601 431 q 975 558 861 499 l 975 558 q 978 594 978 576 q 978 628 978 611 l 978 628 q 928 864 978 769 q 792 1006 879 958 q 588 1053 704 1053 l 588 1053 q 417 1025 497 1053 q 276 947 338 997 q 179 829 214 897 q 144 679 144 761 l 144 679 q 155 598 144 642 q 204 519 165 554 l 204 519 q 257 613 224 561 q 334 719 290 665 q 428 817 378 772 q 534 888 479 861 q 644 915 589 915 l 644 915 q 692 910 668 915 q 739 890 717 904 l 739 890 q 750 878 750 883 l 750 878 q 744 871 750 874 q 728 871 738 868 l 728 871 q 688 876 710 876 l 688 876 q 586 847 638 876 q 486 769 535 817 q 396 666 438 721 q 323 559 354 611 q 275 471 292 507 l 275 471 q 485 431 360 431 z m 450 -51 l 450 -51 q 602 -12 528 -51 q 742 93 676 26 q 860 242 808 160 q 942 410 911 324 l 942 410 q 957 459 950 433 q 965 508 964 485 l 965 508 q 725 417 853 449 q 481 385 597 385 l 481 385 q 256 422 351 385 l 256 422 q 213 207 213 313 l 213 207 q 280 13 213 78 q 450 -51 347 -51 z m 839 1347 l 839 1347 q 864 1342 858 1347 l 864 1342 l 925 1197 q 926 1195 925 1196 q 926 1194 926 1194 l 926 1194 q 915 1190 926 1190 l 915 1190 q 902 1192 910 1190 q 892 1197 894 1194 l 892 1197 l 814 1276 l 639 1197 q 608 1189 629 1189 l 608 1189 q 596 1192 601 1189 q 594 1197 590 1194 l 594 1197 l 800 1342 q 816 1346 807 1344 q 839 1347 825 1347 z "},"":{"ha":1014,"x_min":69,"x_max":1267,"o":"m 439 -85 l 439 -85 q 217 3 297 -85 q 138 251 138 90 l 138 251 q 179 461 138 353 l 179 461 q 95 552 121 501 q 69 675 69 603 l 69 675 q 113 846 69 771 q 231 974 157 921 q 396 1056 304 1028 q 582 1083 488 1083 l 582 1083 q 763 1055 675 1083 q 919 967 850 1026 q 1026 818 988 908 q 1058 603 1064 728 l 1058 603 q 1172 691 1124 643 q 1242 779 1219 739 l 1242 779 q 1256 792 1249 792 l 1256 792 q 1265 781 1263 792 q 1257 754 1267 769 l 1257 754 q 1172 647 1222 700 q 1053 553 1121 594 l 1053 553 q 1044 484 1051 522 q 1022 404 1036 446 l 1022 404 q 938 233 996 319 q 801 75 881 147 q 629 -41 722 3 q 439 -85 536 -85 z m 485 431 l 485 431 q 731 465 601 431 q 975 558 861 499 l 975 558 q 978 594 978 576 q 978 628 978 611 l 978 628 q 928 864 978 769 q 792 1006 879 958 q 588 1053 704 1053 l 588 1053 q 417 1025 497 1053 q 276 947 338 997 q 179 829 214 897 q 144 679 144 761 l 144 679 q 155 598 144 642 q 204 519 165 554 l 204 519 q 257 613 224 561 q 334 719 290 665 q 428 817 378 772 q 534 888 479 861 q 644 915 589 915 l 644 915 q 692 910 668 915 q 739 890 717 904 l 739 890 q 750 878 750 883 l 750 878 q 744 871 750 874 q 728 871 738 868 l 728 871 q 688 876 710 876 l 688 876 q 586 847 638 876 q 486 769 535 817 q 396 666 438 721 q 323 559 354 611 q 275 471 292 507 l 275 471 q 485 431 360 431 z m 450 -51 l 450 -51 q 602 -12 528 -51 q 742 93 676 26 q 860 242 808 160 q 942 410 911 324 l 942 410 q 957 459 950 433 q 965 508 964 485 l 965 508 q 725 417 853 449 q 481 385 597 385 l 481 385 q 256 422 351 385 l 256 422 q 213 207 213 313 l 213 207 q 280 13 213 78 q 450 -51 347 -51 z m 958 1290 l 958 1290 q 913 1224 943 1257 q 842 1190 883 1190 l 842 1190 q 785 1203 813 1190 q 731 1227 758 1215 q 676 1239 704 1239 l 676 1239 q 640 1227 656 1239 q 617 1199 625 1215 l 617 1199 q 604 1194 615 1194 l 604 1194 q 588 1201 585 1194 l 588 1201 q 633 1263 604 1232 q 704 1294 663 1294 l 704 1294 q 762 1283 735 1294 q 816 1260 789 1272 q 871 1249 843 1249 l 871 1249 q 908 1261 893 1249 q 932 1293 922 1274 l 932 1293 q 943 1297 935 1297 l 943 1297 q 955 1295 950 1297 q 958 1290 960 1293 z "},"":{"ha":1014,"x_min":69,"x_max":1267,"o":"m 439 -85 l 439 -85 q 217 3 297 -85 q 138 251 138 90 l 138 251 q 179 461 138 353 l 179 461 q 95 552 121 501 q 69 675 69 603 l 69 675 q 113 846 69 771 q 231 974 157 921 q 396 1056 304 1028 q 582 1083 488 1083 l 582 1083 q 763 1055 675 1083 q 919 967 850 1026 q 1026 818 988 908 q 1058 603 1064 728 l 1058 603 q 1172 691 1124 643 q 1242 779 1219 739 l 1242 779 q 1256 792 1249 792 l 1256 792 q 1265 781 1263 792 q 1257 754 1267 769 l 1257 754 q 1172 647 1222 700 q 1053 553 1121 594 l 1053 553 q 1044 484 1051 522 q 1022 404 1036 446 l 1022 404 q 938 233 996 319 q 801 75 881 147 q 629 -41 722 3 q 439 -85 536 -85 z m 485 431 l 485 431 q 731 465 601 431 q 975 558 861 499 l 975 558 q 978 594 978 576 q 978 628 978 611 l 978 628 q 928 864 978 769 q 792 1006 879 958 q 588 1053 704 1053 l 588 1053 q 417 1025 497 1053 q 276 947 338 997 q 179 829 214 897 q 144 679 144 761 l 144 679 q 155 598 144 642 q 204 519 165 554 l 204 519 q 257 613 224 561 q 334 719 290 665 q 428 817 378 772 q 534 888 479 861 q 644 915 589 915 l 644 915 q 692 910 668 915 q 739 890 717 904 l 739 890 q 750 878 750 883 l 750 878 q 744 871 750 874 q 728 871 738 868 l 728 871 q 688 876 710 876 l 688 876 q 586 847 638 876 q 486 769 535 817 q 396 666 438 721 q 323 559 354 611 q 275 471 292 507 l 275 471 q 485 431 360 431 z m 450 -51 l 450 -51 q 602 -12 528 -51 q 742 93 676 26 q 860 242 808 160 q 942 410 911 324 l 942 410 q 957 459 950 433 q 965 508 964 485 l 965 508 q 725 417 853 449 q 481 385 597 385 l 481 385 q 256 422 351 385 l 256 422 q 213 207 213 313 l 213 207 q 280 13 213 78 q 450 -51 347 -51 z m 838 1179 l 838 1179 q 807 1193 819 1179 q 794 1225 794 1207 l 794 1225 q 814 1267 794 1249 q 856 1285 833 1285 l 856 1285 q 888 1272 875 1285 q 901 1242 901 1260 l 901 1242 q 883 1199 901 1218 q 838 1179 864 1179 z m 675 1179 l 675 1179 q 644 1193 657 1179 q 632 1225 632 1207 l 632 1225 q 651 1267 632 1249 q 693 1285 671 1285 l 693 1285 q 726 1272 713 1285 q 739 1242 739 1260 l 739 1242 q 720 1199 739 1218 q 675 1179 701 1179 z "},"":{"ha":417,"x_min":49,"x_max":367,"o":"m 54 224 l 54 224 q 120 282 86 253 q 186 342 154 311 l 186 342 q 143 400 164 371 q 101 458 122 429 l 101 458 q 101 468 97 464 l 101 468 q 126 478 113 478 l 126 478 q 154 460 140 478 l 154 460 q 187 417 171 439 q 219 371 203 394 l 219 371 q 263 413 242 392 q 307 453 285 433 l 307 453 q 342 469 325 469 l 342 469 q 363 456 353 468 l 363 456 q 360 447 367 451 l 360 447 l 242 340 q 290 276 267 308 q 338 211 314 243 l 338 211 q 338 204 342 208 l 338 204 q 326 198 333 201 q 311 194 318 194 l 311 194 q 285 208 296 194 l 285 208 q 247 260 267 235 q 208 311 228 286 l 208 311 q 158 264 183 288 q 106 217 132 240 l 106 217 q 75 204 90 201 l 75 204 q 62 208 68 204 q 53 217 56 213 l 53 217 q 54 224 49 221 z "},"":{"ha":1014,"x_min":138,"x_max":1060,"o":"m 439 -85 l 439 -85 q 219 3 301 -85 q 138 251 138 92 l 138 251 q 167 436 138 342 q 248 616 197 531 q 364 769 299 701 q 501 876 429 836 q 644 915 574 915 l 644 915 q 692 910 668 915 q 739 890 717 904 l 739 890 q 750 878 750 883 l 750 878 q 744 871 750 874 q 728 871 738 868 l 728 871 q 688 876 710 876 l 688 876 q 565 837 629 876 q 438 728 500 797 q 324 574 375 660 q 243 393 274 488 q 213 207 213 299 l 213 207 q 280 13 213 78 q 450 -51 347 -51 l 450 -51 q 599 -12 524 -51 q 742 93 674 26 q 863 247 810 160 q 947 432 917 335 q 978 628 978 529 l 978 628 q 945 823 978 742 q 857 956 913 904 q 732 1031 801 1007 q 588 1056 663 1056 l 588 1056 q 563 1055 578 1056 q 542 1054 549 1054 l 542 1054 q 515 1063 522 1054 l 515 1063 q 521 1075 514 1071 l 521 1075 q 528 1078 524 1076 q 539 1079 533 1079 l 539 1079 l 582 1079 q 760 1051 675 1079 q 913 965 846 1024 q 1019 817 981 907 q 1058 603 1058 728 l 1058 603 q 1025 408 1058 506 q 933 222 992 310 q 796 64 874 133 q 627 -45 718 -6 q 439 -85 536 -85 z m 217 -206 l 217 -206 q 203 -193 203 -206 l 203 -193 q 210 -172 203 -183 q 224 -150 218 -160 l 224 -150 q 292 -40 246 -115 q 399 135 338 35 q 530 351 460 236 q 669 583 600 467 q 801 807 739 700 q 911 997 864 914 l 911 997 q 970 1101 949 1064 q 1002 1155 992 1139 q 1017 1175 1013 1171 q 1025 1179 1022 1179 l 1025 1179 q 1050 1165 1040 1179 q 1060 1142 1060 1151 l 1060 1142 q 1053 1119 1060 1132 q 1040 1096 1047 1106 l 1040 1096 q 941 936 999 1029 q 817 735 883 843 q 682 513 751 626 q 547 290 613 399 q 424 90 481 182 q 325 -70 367 -3 q 264 -168 283 -137 l 264 -168 q 238 -199 249 -192 q 217 -206 228 -206 z "},"":{"ha":1315,"x_min":-6,"x_max":1403,"o":"m 1253 -110 l 1253 -110 q 1192 -74 1214 -103 q 1160 -3 1169 -46 q 1151 85 1151 39 l 1151 85 q 1158 178 1151 132 q 1171 258 1164 224 l 1171 258 q 1131 198 1150 225 q 1085 135 1113 171 l 1085 135 q 937 -8 1010 39 q 803 -54 864 -54 l 803 -54 q 708 -12 746 -54 q 671 111 671 31 l 671 111 q 692 241 671 169 q 744 390 713 313 q 810 545 775 468 q 875 693 846 622 q 919 822 904 764 l 919 822 q 937 906 931 865 q 943 986 943 947 l 943 986 q 931 1070 943 1035 q 890 1122 918 1106 l 890 1122 q 822 1150 860 1142 q 744 1158 785 1158 l 744 1158 q 585 1132 668 1158 q 424 1060 503 1106 l 424 1060 q 211 889 293 983 q 91 697 129 794 q 53 511 53 599 l 53 511 q 81 371 53 433 q 160 272 108 308 q 281 236 211 236 l 281 236 q 390 258 333 236 l 390 258 q 474 311 435 275 q 542 393 513 347 q 590 488 572 439 q 607 578 607 536 l 607 578 q 585 649 607 621 q 511 676 563 676 l 511 676 q 488 675 500 676 q 461 671 475 674 l 461 671 q 444 667 451 669 q 432 665 436 665 l 432 665 q 425 669 425 665 l 425 669 q 438 684 425 675 q 456 694 450 693 l 456 694 q 502 710 481 706 q 542 714 524 714 l 542 714 q 622 678 596 714 q 647 586 647 642 l 647 586 q 618 456 647 526 q 531 325 589 386 q 389 228 474 264 l 389 228 q 257 199 321 199 l 257 199 q 119 240 179 199 q 27 351 60 281 q -6 510 -6 422 l -6 510 q 40 715 -6 608 q 180 922 85 821 q 426 1106 275 1022 l 426 1106 q 588 1174 510 1151 q 736 1196 667 1196 l 736 1196 q 812 1189 774 1196 q 883 1167 850 1182 l 883 1167 q 987 1075 957 1136 q 1017 940 1017 1014 l 1017 940 q 1001 815 1017 883 l 1001 815 q 958 679 988 751 q 892 531 928 607 q 824 378 857 454 q 771 231 792 301 q 750 99 750 160 l 750 99 q 772 12 750 42 q 828 -18 793 -18 l 828 -18 q 934 29 872 -18 q 1064 174 996 76 l 1064 174 q 1153 322 1111 242 q 1233 478 1196 403 q 1299 608 1269 554 l 1299 608 q 1341 665 1322 649 q 1378 682 1360 682 l 1378 682 q 1397 668 1392 682 q 1403 640 1403 654 l 1403 640 q 1390 589 1403 618 q 1358 528 1376 560 q 1326 465 1340 497 l 1326 465 q 1288 374 1313 436 q 1243 240 1263 313 l 1243 240 q 1219 128 1229 185 q 1208 25 1208 71 l 1208 25 q 1220 -49 1208 -21 q 1258 -78 1232 -78 l 1258 -78 l 1274 -78 q 1300 -89 1300 -78 l 1300 -89 q 1286 -105 1300 -97 q 1253 -110 1272 -112 z m 1324 914 l 1324 914 q 1282 960 1310 929 q 1229 1024 1254 992 q 1196 1074 1204 1056 l 1196 1074 q 1219 1112 1207 1106 q 1242 1114 1232 1118 l 1242 1114 l 1347 917 q 1339 912 1346 911 q 1324 914 1332 913 z "}}}
